<?xml version="1.0" encoding="UTF-8"?>
<svg version="1.1" xmlns="http://www.w3.org/2000/svg" width="512" height="512">
<path d="M0 0 C3.01897658 2.20027107 5.81182123 4.56306448 8.58984375 7.0625 C11.83899057 9.77096689 15.41335771 11.29490125 19.32421875 12.82421875 C32.88892461 18.48126962 43.95945977 26.78270389 54.82421875 36.57421875 C55.89736328 37.52167969 55.89736328 37.52167969 56.9921875 38.48828125 C73.71425562 54.14151615 84.73077128 75.88739194 93.82421875 96.57421875 C94.12924316 97.26467285 94.43426758 97.95512695 94.74853516 98.66650391 C107.48867503 128.0433501 125.76932813 178.44215101 117.09765625 210.23828125 C114.08004885 217.77003304 108.97336305 221.97940261 101.82421875 225.57421875 C98.88332003 226.77735899 95.89815947 227.81266368 92.88671875 228.82421875 C91.71786133 229.22640625 91.71786133 229.22640625 90.52539062 229.63671875 C88.62715944 230.28887179 86.72598663 230.93245231 84.82421875 231.57421875 C87.79421875 234.87421875 90.76421875 238.17421875 93.82421875 241.57421875 C96.77453625 237.88899046 96.77453625 237.88899046 99.6484375 234.14453125 C113.57796427 215.86385251 133.55849456 210.7731954 154.76171875 204.76171875 C157.09606158 204.08913348 159.43004918 203.415314 161.76367188 202.74023438 C166.03034475 201.5082936 170.29869992 200.28270031 174.57006836 199.06713867 C175.47771942 198.8057309 176.38537048 198.54432312 177.32052612 198.2749939 C178.88409111 197.83735731 180.45418072 197.42171942 182.03225708 197.03970337 C184.1264352 196.5528306 184.1264352 196.5528306 186.82421875 195.57421875 C188.35568253 192.56827454 188.35568253 192.56827454 188.82421875 189.57421875 C188.08558594 189.29707031 187.34695313 189.01992188 186.5859375 188.734375 C168.45952354 181.11974283 157.53475444 164.78187767 149.82421875 147.57421875 C149.46608867 146.24733076 149.12602778 144.91503947 148.82421875 143.57421875 C148.12296875 143.63222656 147.42171875 143.69023437 146.69921875 143.75 C139.71117168 144.08231202 135.09652413 143.34913683 129.82421875 138.57421875 C124.71295512 132.02131666 124.58951301 126.81109652 124.51171875 118.82421875 C124.48271484 117.84710938 124.45371094 116.87 124.42382812 115.86328125 C124.36818617 109.51153753 125.11252941 105.76916444 128.82421875 100.57421875 C129.15421875 100.24421875 129.48421875 99.91421875 129.82421875 99.57421875 C129.93911754 97.46348549 130.04625117 95.35203748 130.11376953 93.23925781 C130.7862664 72.26504125 134.23684746 53.28839096 147.82421875 36.57421875 C148.84128906 35.31351563 148.84128906 35.31351563 149.87890625 34.02734375 C163.57575887 17.942072 183.04977806 8.63119475 203.96826172 6.75292969 C234.43514524 4.84647057 262.94389537 6.73545119 286.82421875 27.57421875 C287.43910156 28.09371094 288.05398438 28.61320312 288.6875 29.1484375 C301.87848263 41.18710441 309.83401814 60.13794793 311.82421875 77.57421875 C311.89888232 79.3470524 311.95608945 81.12066946 312 82.89453125 C312.02384766 83.84199219 312.04769531 84.78945312 312.07226562 85.765625 C312.11540107 87.72894152 312.14656027 89.69255605 312.16601562 91.65625 C312.33161314 97.30197008 312.64527795 100.41952712 316.82421875 104.57421875 C318.38069194 109.24363833 318.09125969 113.93282411 318.13671875 118.82421875 C318.16572266 119.84902344 318.19472656 120.87382812 318.22460938 121.9296875 C318.28656346 129.33558317 317.34108232 133.7392037 312.2265625 139.31640625 C307.68706069 142.82695432 304.80119764 143.70335968 299.13671875 143.63671875 C298.14285156 143.62769531 297.14898437 143.61867188 296.125 143.609375 C295.36574219 143.59777344 294.60648437 143.58617187 293.82421875 143.57421875 C293.70046875 144.14527344 293.57671875 144.71632813 293.44921875 145.3046875 C289.30397053 161.60069456 276.82536792 176.68323999 262.65625 185.55859375 C259.73311426 187.27203791 256.79508137 188.94519574 253.82421875 190.57421875 C254.15421875 192.22421875 254.48421875 193.87421875 254.82421875 195.57421875 C255.54561035 195.76943115 256.26700195 195.96464355 257.01025391 196.16577148 C265.26141775 198.40481665 273.50176651 200.68074397 281.73394775 202.98846436 C283.11162137 203.37452835 284.48950581 203.75984097 285.86761475 204.14434814 C333.98949903 217.58282235 333.98949903 217.58282235 347.86962891 240.79785156 C351.73613406 247.99291332 354.92360559 256.63386856 354.97138977 264.8626709 C354.98212273 266.13699226 354.98212273 266.13699226 354.99307251 267.4370575 C354.99710587 268.82269646 354.99710587 268.82269646 355.0012207 270.23632812 C355.0110775 271.70523247 355.0110775 271.70523247 355.02113342 273.20381165 C355.04083333 276.4418648 355.05251873 279.67987175 355.0625 282.91796875 C355.06657553 284.02359665 355.07065105 285.12922455 355.07485008 286.26835632 C355.0956919 292.11493747 355.11000451 297.96149523 355.11938477 303.80810547 C355.13047412 309.85445122 355.16490866 315.90043148 355.20455647 321.94664764 C355.2306523 326.59113262 355.23907011 331.23552932 355.24266624 335.88008118 C355.24754665 338.10966982 355.2592017 340.33925415 355.27770424 342.56877136 C355.30195642 345.6835165 355.30115656 348.79729946 355.29418945 351.91210938 C355.30699951 352.83586868 355.31980957 353.75962799 355.33300781 354.71138 C355.32259209 355.98570137 355.32259209 355.98570137 355.31196594 357.2857666 C355.3143543 358.02169289 355.31674265 358.75761917 355.31920338 359.51584625 C354.57826186 362.59701999 353.3344811 363.64599638 350.82421875 365.57421875 C347.98343993 365.96706194 345.53062043 366.11366772 342.69068909 366.08037663 C341.85996899 366.08648998 341.02924889 366.09260334 340.17335546 366.09890196 C337.37122756 366.11458478 334.56995497 366.10160255 331.76782227 366.08888245 C329.74606347 366.09420407 327.72430862 366.10126752 325.70256138 366.1099295 C320.13246571 366.12863452 314.56263448 366.12222485 308.99252748 366.11177647 C302.991078 366.10480674 296.98968407 366.12076538 290.98825073 366.1337738 C279.90617596 366.15420183 268.8241717 366.15622287 257.74208757 366.14855734 C247.50514146 366.14149085 237.26822678 366.14142101 227.03128052 366.14842033 C225.65933087 366.14933165 224.28738121 366.15024242 222.91543156 366.15115262 C220.8481597 366.15253572 218.78088785 366.1539268 216.71361602 366.15533876 C197.48865506 366.16832373 178.26370466 366.17342855 159.03874207 366.16180515 C158.31370548 366.16136718 157.58866889 366.16092921 156.84166149 366.16047797 C150.95344107 366.15687096 145.0652208 366.15303628 139.17700054 366.14918704 C116.20356828 366.1343367 93.23025488 366.14312139 70.25683594 366.17114258 C44.45922013 366.20254816 18.66167471 366.21754774 -7.13596058 366.20734257 C-9.88492138 366.20630575 -12.63388219 366.20531852 -15.38284302 366.20435905 C-16.05973106 366.20411017 -16.7366191 366.20386128 -17.4340189 366.20360485 C-27.6657442 366.20016033 -37.89740749 366.20948782 -48.12911987 366.22513008 C-59.76046426 366.24287096 -71.39168348 366.24259948 -83.02302623 366.21977843 C-88.96173003 366.20859639 -94.90014863 366.20556322 -100.83884048 366.22407913 C-106.26945499 366.2407936 -111.69953356 366.23465602 -117.13011277 366.20986234 C-119.10043925 366.20494884 -121.07080823 366.20857607 -123.04109943 366.22134978 C-125.70880646 366.23740424 -128.37463149 366.22300562 -131.04225159 366.20063114 C-131.81672941 366.21262282 -132.59120723 366.2246145 -133.38915408 366.23696956 C-137.25219066 366.17028854 -138.83729793 365.90383804 -141.65284115 363.16202682 C-143.14065621 360.63390386 -143.67608073 359.40555929 -143.67698669 356.52978516 C-143.68682083 355.75918259 -143.69665497 354.98858002 -143.70678711 354.19462585 C-143.69711914 353.36340714 -143.68745117 352.53218842 -143.67749023 351.67578125 C-143.68289322 350.78885086 -143.6882962 349.90192047 -143.69386292 348.9881134 C-143.70635976 346.05814126 -143.68984202 343.12915068 -143.671875 340.19921875 C-143.67203008 338.15242461 -143.67352047 336.10563017 -143.67628479 334.05883789 C-143.67766959 329.76484215 -143.66510561 325.47118005 -143.64233398 321.17724609 C-143.61409285 315.70464038 -143.61664658 310.23259494 -143.6294241 304.75994873 C-143.6364245 300.52853723 -143.62854013 296.29725227 -143.61616707 292.06585693 C-143.61168464 290.05027758 -143.61128736 288.03468448 -143.61523247 286.019104 C-143.63734586 264.76048395 -140.80545719 248.26970385 -125.17578125 232.57421875 C-124.84578125 232.24421875 -124.51578125 231.91421875 -124.17578125 231.57421875 C-124.73974609 231.39358887 -125.30371094 231.21295898 -125.88476562 231.02685547 C-128.48716567 230.18336668 -131.08121874 229.31650228 -133.67578125 228.44921875 C-134.56265625 228.165625 -135.44953125 227.88203125 -136.36328125 227.58984375 C-144.01894608 225.0004277 -150.26786814 221.4365132 -155.17578125 214.88671875 C-167.57994268 189.70124233 -149.42163294 141.89118004 -141.17578125 117.57421875 C-125.68646224 72.66693319 -102.58597922 34.1832001 -59.01416016 12.45507812 C-56.72876031 11.36002864 -54.40164576 10.39437041 -52.05078125 9.44921875 C-48.14518465 7.81379685 -45.90250216 5.40158493 -43.06640625 2.3203125 C-31.50796344 -8.35453034 -12.67838101 -8.30809528 0 0 Z M-36.6875 18.4609375 C-38.09096397 20.80989298 -39.17578125 22.79556662 -39.17578125 25.57421875 C-37.25765625 25.32671875 -37.25765625 25.32671875 -35.30078125 25.07421875 C-23.68656297 23.9177532 -11.75118297 24.1464159 -0.17578125 25.57421875 C-2.46535266 18.8401852 -5.98281244 15.07966829 -12.078125 11.4375 C-20.89274776 7.80988058 -30.86145046 11.18966637 -36.6875 18.4609375 Z M162.94921875 43.38671875 C152.80429265 55.44894281 147.45523034 68.83047948 146.82421875 84.57421875 C148.56947757 81.95633052 149.19125204 80.48164442 150.01171875 77.57421875 C151.29505694 74.04179796 151.66160031 73.6693352 155.13671875 71.63671875 C172.81491982 66.5429998 190.2168011 71.04222186 207.36328125 75.99609375 C208.12202042 76.21524445 208.88075958 76.43439514 209.66249084 76.66018677 C213.4735575 77.76635658 217.27780323 78.89139393 221.07495117 80.04443359 C240.88517547 85.982947 262.40509922 88.84515205 281.63671875 79.26171875 C284.99411895 77.67458411 285.82943948 77.57479883 289.76171875 78.01171875 C292.82421875 79.57421875 292.82421875 79.57421875 294.26171875 82.19921875 C294.44734375 82.98296875 294.63296875 83.76671875 294.82421875 84.57421875 C295.15421875 84.57421875 295.48421875 84.57421875 295.82421875 84.57421875 C295.48574747 67.77373506 288.85471608 53.19873098 277.4296875 41.02734375 C258.30239229 23.01843612 235.85327487 21.88576423 210.85449219 22.46923828 C192.1828946 23.11609511 175.88743146 29.74677247 162.94921875 43.38671875 Z M16.82421875 29.57421875 C18.17000138 33.61156665 20.7820334 34.62732087 24.26171875 36.69921875 C30.75525658 40.7224159 36.40181571 45.16158581 41.82421875 50.57421875 C42.44683594 51.18523437 43.06945312 51.79625 43.7109375 52.42578125 C55.64546358 65.03078632 61.59654965 81.79445234 64.1484375 98.62890625 C65.31897781 106.35948521 65.31897781 106.35948521 69.38671875 112.82421875 C73.90777049 117.9248925 73.04221795 123.40255617 73.07421875 129.88671875 C73.09484375 130.91990234 73.11546875 131.95308594 73.13671875 133.01757812 C73.16543835 138.61430988 73.07001504 142.78317494 69.82421875 147.57421875 C66.25729593 150.95340879 62.69226543 153.4969823 57.6484375 153.6328125 C55.20796354 153.70071439 53.16003141 153.85143898 50.82421875 154.57421875 C48.79130219 156.92280558 47.93139846 159.70016475 46.82421875 162.57421875 C38.67462 179.45916866 26.60432374 191.29776464 9.82421875 199.57421875 C10.31921875 202.04921875 10.31921875 202.04921875 10.82421875 204.57421875 C11.36296631 204.74990387 11.90171387 204.92558899 12.45678711 205.1065979 C16.4824106 206.43218068 20.48232258 207.80039554 24.453125 209.28271484 C53.75714927 220.40510347 53.75714927 220.40510347 83.88671875 216.19921875 C84.57999268 215.9346991 85.2732666 215.67017944 85.98754883 215.39764404 C92.32836367 212.87170727 98.02653401 210.54128365 101.82421875 204.57421875 C102.34451149 202.26857684 102.34451149 202.26857684 102.14453125 199.91015625 C102.08894043 198.60062988 102.08894043 198.60062988 102.03222656 197.26464844 C98.38041146 150.03107755 83.92380152 93.88161199 51.82421875 57.57421875 C50.97085938 56.589375 50.1175 55.60453125 49.23828125 54.58984375 C40.08021066 44.18604198 29.84403659 36.39088769 17.82421875 29.57421875 C17.49421875 29.57421875 17.16421875 29.57421875 16.82421875 29.57421875 Z M-57.17578125 29.57421875 C-80.27572226 42.11188307 -96.59159115 60.87173781 -109.17578125 83.57421875 C-109.51319336 84.18040039 -109.85060547 84.78658203 -110.19824219 85.41113281 C-127.64911703 117.26536386 -147.04614606 168.76006653 -141.17578125 205.57421875 C-138.14385788 209.37826397 -135.02225567 210.63112119 -130.46875 212.15234375 C-129.50332024 212.47679474 -129.50332024 212.47679474 -128.51838684 212.80780029 C-127.16125024 213.26053175 -125.80211441 213.70730902 -124.44116211 214.1484375 C-122.37471429 214.82050043 -120.31732811 215.51611393 -118.25976562 216.21484375 C-116.93406878 216.65378106 -115.60791027 217.09132698 -114.28125 217.52734375 C-113.08653076 217.92083008 -111.89181152 218.31431641 -110.66088867 218.71972656 C-103.4981254 220.47592071 -97.90162868 219.19115393 -91.05859375 217.0546875 C-90.20200165 216.79544998 -89.34540955 216.53621246 -88.46286011 216.26911926 C-85.73931905 215.44234939 -83.0201376 214.6021374 -80.30078125 213.76171875 C-78.48203274 213.2081232 -76.66302434 212.65538071 -74.84375 212.10351562 C-66.91987543 209.69099466 -59.02350592 207.22541784 -51.17578125 204.57421875 C-51.17578125 202.59421875 -51.17578125 200.61421875 -51.17578125 198.57421875 C-52.19285156 198.08115234 -52.19285156 198.08115234 -53.23046875 197.578125 C-60.58575857 193.81898104 -66.33271938 189.38801653 -72.17578125 183.57421875 C-73.22572266 182.57648438 -73.22572266 182.57648438 -74.296875 181.55859375 C-81.06736469 174.64292787 -85.87029328 165.29493367 -89.00390625 156.16015625 C-90.15275821 154.25331766 -90.15275821 154.25331766 -93.07421875 153.8515625 C-94.22148438 153.73941406 -95.36875 153.62726563 -96.55078125 153.51171875 C-101.13105079 153.05162395 -103.64989715 152.54465535 -107.17578125 149.57421875 C-107.83578125 149.57421875 -108.49578125 149.57421875 -109.17578125 149.57421875 C-109.85924807 147.91437077 -110.5216644 146.2458507 -111.17578125 144.57421875 C-111.52253906 143.69765625 -111.86929688 142.82109375 -112.2265625 141.91796875 C-113.36376736 137.91201255 -113.51987323 134.34005695 -113.48828125 130.19921875 C-113.4833667 129.44479492 -113.47845215 128.69037109 -113.47338867 127.91308594 C-113.35895873 122.49790894 -112.85565524 118.37951004 -110.17578125 113.57421875 C-109.34433594 112.87554687 -108.51289062 112.176875 -107.65625 111.45703125 C-104.26751832 107.51863128 -104.16117639 104.24418433 -103.67578125 99.19921875 C-100.76218313 75.68735832 -90.07239431 57.10931236 -72.17578125 41.57421875 C-68.02741412 38.59623733 -63.61529341 36.09036272 -59.17578125 33.57421875 C-58.18578125 32.91421875 -57.19578125 32.25421875 -56.17578125 31.57421875 C-56.67078125 30.58421875 -56.67078125 30.58421875 -57.17578125 29.57421875 Z M-65.17578125 56.57421875 C-65.97242187 57.26773438 -66.7690625 57.96125 -67.58984375 58.67578125 C-79.68353891 69.89259217 -86.96473275 85.25318971 -89.17578125 101.57421875 C-89.17578125 102.89421875 -89.17578125 104.21421875 -89.17578125 105.57421875 C-87.52578125 105.57421875 -85.87578125 105.57421875 -84.17578125 105.57421875 C-84.0149707 104.9694873 -83.85416016 104.36475586 -83.68847656 103.74169922 C-82.94563852 100.97433609 -82.1858808 98.21188829 -81.42578125 95.44921875 C-81.173125 94.49789062 -80.92046875 93.5465625 -80.66015625 92.56640625 C-78.73096998 85.62133567 -76.9480037 80.68110781 -71.05078125 76.19921875 C-65.9883595 73.61922651 -60.55044922 73.59426709 -55.14453125 75.1640625 C-49.79320589 77.54364775 -45.59664797 81.4746951 -41.1484375 85.20703125 C-25.76976593 97.45338469 -7.19495045 106.16941005 12.6171875 105.8671875 C14.22525017 105.86082024 14.22525017 105.86082024 15.86579895 105.85432434 C19.24804136 105.83769864 22.62966024 105.80007721 26.01171875 105.76171875 C28.32225694 105.74665108 30.63280459 105.73296635 32.94335938 105.72070312 C38.57052077 105.68784819 44.19732519 105.63781278 49.82421875 105.57421875 C46.71958713 83.24693571 37.93479222 65.41980434 19.67578125 51.45703125 C-6.45728175 34.20204992 -41.52695022 35.32020605 -65.17578125 56.57421875 Z M164.04296875 85.84375 C159.92401078 91.69214225 161.51956555 101.27543469 161.47412109 108.1418457 C161.457697 109.95219906 161.43059037 111.76249133 161.39208984 113.57250977 C160.96979313 133.57652139 165.39245614 149.29856733 179.41015625 164.25390625 C191.34680033 175.72699133 206.41919688 181.37845477 222.82421875 181.57421875 C239.23756162 180.57385699 254.61105815 173.84973931 265.98046875 161.8046875 C278.69712501 146.42076647 281.87606783 130.65019492 281.94921875 111.26171875 C281.95622803 109.95315918 281.95622803 109.95315918 281.96337891 108.61816406 C281.95299573 104.47607592 281.87333755 100.6124935 280.82421875 96.57421875 C280.00179687 96.77917969 279.179375 96.98414063 278.33203125 97.1953125 C250.47082696 103.91932139 225.32760241 97.67414211 198.52856445 89.39208984 C189.61144928 86.67205839 180.70844937 84.29955839 171.32421875 84.26171875 C170.34453125 84.24496094 169.36484375 84.22820312 168.35546875 84.2109375 C165.81042384 84.37864706 165.81042384 84.37864706 164.04296875 85.84375 Z M-63.17578125 89.57421875 C-64.76936792 93.65030026 -66.25574486 97.6692864 -67.38671875 101.8984375 C-67.58007812 102.61708984 -67.7734375 103.33574219 -67.97265625 104.07617188 C-68.36046854 105.54225956 -68.73796482 107.01111214 -69.10546875 108.48242188 C-70.4627001 113.43363756 -72.15961452 116.15328194 -76.17578125 119.57421875 C-78.90802363 122.30646113 -77.48782719 130.19549174 -77.49047852 133.86669922 C-77.28366741 149.0434529 -71.94057071 161.83784475 -61.42578125 172.88671875 C-49.45255875 184.18871514 -35.44461263 190.43120141 -18.9140625 190.609375 C-1.76239714 189.76110204 12.01444462 182.86115548 23.82421875 170.57421875 C33.68579592 158.71730301 38.2550911 145.798569 37.94921875 130.51171875 C37.90796875 127.56234375 37.86671875 124.61296875 37.82421875 121.57421875 C30.56421875 121.57421875 23.30421875 121.57421875 15.82421875 121.57421875 C15.88609375 123.78109375 15.94796875 125.98796875 16.01171875 128.26171875 C16.15360966 133.3224944 16.03857008 136.53374909 12.82421875 140.57421875 C9.60041709 141.60309162 7.71878604 141.88852618 4.51171875 140.76171875 C2.82421875 139.57421875 2.82421875 139.57421875 1.82421875 137.57421875 C1.75240054 134.85661767 1.73122369 132.16562487 1.76171875 129.44921875 C1.76623047 128.69511719 1.77074219 127.94101562 1.77539062 127.1640625 C1.78718376 125.30074748 1.80511933 123.4374732 1.82421875 121.57421875 C1.27185547 121.43435547 0.71949219 121.29449219 0.15039062 121.15039062 C-22.37762564 115.3457402 -40.59737643 105.49984284 -58.84765625 91.2265625 C-60.97179476 89.3812933 -60.97179476 89.3812933 -63.17578125 89.57421875 Z M140.82421875 111.57421875 C140.60284482 114.20118939 140.5425985 116.58315839 140.63671875 119.19921875 C140.65025391 119.905625 140.66378906 120.61203125 140.67773438 121.33984375 C140.71310835 123.08496003 140.76691654 124.82968483 140.82421875 126.57421875 C142.47421875 126.90421875 144.12421875 127.23421875 145.82421875 127.57421875 C145.82421875 121.63421875 145.82421875 115.69421875 145.82421875 109.57421875 C143.50064364 109.38931868 143.50064364 109.38931868 140.82421875 111.57421875 Z M297.82421875 109.57421875 C297.49421875 115.51421875 297.16421875 121.45421875 296.82421875 127.57421875 C298.47421875 127.24421875 300.12421875 126.91421875 301.82421875 126.57421875 C301.82421875 121.62421875 301.82421875 116.67421875 301.82421875 111.57421875 C300.50421875 110.91421875 299.18421875 110.25421875 297.82421875 109.57421875 Z M-96.78125 122.6953125 C-98.76183413 125.36383061 -98.54018468 127.35083266 -98.48828125 130.63671875 C-98.48441406 131.70019531 -98.48054688 132.76367188 -98.4765625 133.859375 C-98.44577637 136.72085141 -98.44577637 136.72085141 -96.17578125 138.57421875 C-95.18578125 138.57421875 -94.19578125 138.57421875 -93.17578125 138.57421875 C-93.17578125 132.96421875 -93.17578125 127.35421875 -93.17578125 121.57421875 C-95.22884504 121.38337715 -95.22884504 121.38337715 -96.78125 122.6953125 Z M53.82421875 121.57421875 C53.82421875 127.18421875 53.82421875 132.79421875 53.82421875 138.57421875 C55.14421875 138.24421875 56.46421875 137.91421875 57.82421875 137.57421875 C57.82421875 132.62421875 57.82421875 127.67421875 57.82421875 122.57421875 C56.50421875 122.24421875 55.18421875 121.91421875 53.82421875 121.57421875 Z M203.82421875 195.57421875 C203.16421875 198.21421875 202.50421875 200.85421875 201.82421875 203.57421875 C214.02264287 206.62382478 225.50037477 207.26907466 237.82421875 204.57421875 C238.48421875 203.91421875 239.14421875 203.25421875 239.82421875 202.57421875 C238.83421875 200.26421875 237.84421875 197.95421875 236.82421875 195.57421875 C235.61507812 195.65800781 234.4059375 195.74179687 233.16015625 195.828125 C223.24412597 196.46292157 213.72702249 196.62427135 203.82421875 195.57421875 Z M-35.17578125 204.57421875 C-35.31113281 205.15429688 -35.44648437 205.734375 -35.5859375 206.33203125 C-35.90884766 207.50378906 -35.90884766 207.50378906 -36.23828125 208.69921875 C-36.43550781 209.46492187 -36.63273437 210.230625 -36.8359375 211.01953125 C-39.37935195 215.86907367 -42.8830187 218.69575958 -47.99731445 220.65527344 C-51.41319644 221.66137644 -54.84192207 222.54018667 -58.30078125 223.38671875 C-60.89296823 224.0640492 -63.48398371 224.74501514 -66.07421875 225.4296875 C-66.73740112 225.60302612 -67.4005835 225.77636475 -68.0838623 225.95495605 C-75.413464 227.87696014 -82.67459578 230.00164941 -89.92578125 232.19921875 C-91.71653076 232.72092651 -91.71653076 232.72092651 -93.54345703 233.25317383 C-104.95664136 236.73985857 -115.21996031 242.67509299 -121.71484375 253.02734375 C-125.79570374 260.80722887 -127.48879024 268.20747665 -127.40283203 276.91796875 C-127.40312408 277.70917618 -127.40341614 278.50038361 -127.40371704 279.31556702 C-127.40233605 281.90190019 -127.38683356 284.4879366 -127.37109375 287.07421875 C-127.36735923 288.87882327 -127.36451433 290.68342983 -127.36251831 292.48803711 C-127.35491639 297.21610199 -127.33529776 301.94404217 -127.31311035 306.67205811 C-127.29257748 311.50531325 -127.28350074 316.33858872 -127.2734375 321.171875 C-127.25204835 330.63938626 -127.21689456 340.10677258 -127.17578125 349.57421875 C-120.57578125 349.57421875 -113.97578125 349.57421875 -107.17578125 349.57421875 C-107.13839844 347.80433594 -107.10101563 346.03445313 -107.0625 344.2109375 C-106.99685225 341.89450963 -106.93040451 339.57810433 -106.86328125 337.26171875 C-106.84072266 336.09447266 -106.81816406 334.92722656 -106.79492188 333.72460938 C-106.75947266 332.60634766 -106.72402344 331.48808594 -106.6875 330.3359375 C-106.66131592 329.30428467 -106.63513184 328.27263184 -106.6081543 327.2097168 C-106.12170587 324.24460629 -105.54271559 323.3520624 -103.17578125 321.57421875 C-100.53703112 320.43076036 -99.36022333 320.52591249 -96.55078125 321.26171875 C-94.17578125 322.57421875 -94.17578125 322.57421875 -92.17578125 326.57421875 C-91.68078125 337.95921875 -91.68078125 337.95921875 -91.17578125 349.57421875 C-43.98578125 349.57421875 3.20421875 349.57421875 51.82421875 349.57421875 C51.82421875 326.14421875 51.82421875 302.71421875 51.82421875 278.57421875 C45.55818501 271.84377022 45.55818501 271.84377022 38.51171875 267.63671875 C37.28001953 267.06630859 37.28001953 267.06630859 36.0234375 266.484375 C27.73985711 263.05617921 17.85786126 263.35752723 9.51171875 266.51171875 C4.19941163 269.01078796 0.27410083 272.45010787 -3.94140625 276.484375 C-8.6450797 280.88378986 -13.37302169 283.2576658 -19.86328125 283.65234375 C-28.64592049 283.35563296 -33.25514113 278.93455769 -39.390625 273.0234375 C-47.39431401 265.98513034 -55.89751768 264.09945731 -66.3046875 264.29296875 C-75.44890599 264.95733175 -82.94567265 269.34411015 -89.3359375 275.734375 C-91.67015929 279.33730332 -91.73444439 282.41506567 -91.73828125 286.57421875 C-91.77088521 291.6231752 -91.93390089 295.45742128 -95.17578125 299.57421875 C-98.25146922 300.78830611 -99.7532811 300.69904834 -102.92578125 299.76171875 C-105.17578125 298.57421875 -105.17578125 298.57421875 -106.17578125 296.57421875 C-108.36392215 274.68769131 -108.36392215 274.68769131 -101.99609375 266.46875 C-101.39539063 265.84355469 -100.7946875 265.21835937 -100.17578125 264.57421875 C-99.59570312 263.93871094 -99.015625 263.30320312 -98.41796875 262.6484375 C-87.92792007 252.39979161 -74.63413449 249.14613932 -60.47070312 249.21069336 C-46.72901158 249.50959906 -34.84567259 254.59725833 -25.17578125 264.44921875 C-24.40234375 265.31160156 -24.40234375 265.31160156 -23.61328125 266.19140625 C-22.11132801 267.83447502 -22.11132801 267.83447502 -19.17578125 268.57421875 C-17.37643494 267.37689448 -17.37643494 267.37689448 -15.61328125 265.57421875 C-1.45854655 252.60982737 11.61361254 248.69853508 30.40136719 249.39501953 C39.94195885 250.10066184 50.25472613 254.9385016 56.98046875 261.76171875 C58.63101794 263.80789793 58.63101794 263.80789793 60.82421875 263.57421875 C61.22640625 264.40953125 61.22640625 264.40953125 61.63671875 265.26171875 C62.81904214 267.64390386 62.81904214 267.64390386 64.38671875 270.07421875 C66.97883015 274.58223858 66.96718409 278.56277561 67.02954102 283.72949219 C67.03944061 284.44208694 67.04934021 285.1546817 67.05953979 285.88887024 C67.09105014 288.23707797 67.11587066 290.5853059 67.140625 292.93359375 C67.16120358 294.56456011 67.18220029 296.19552124 67.20359802 297.82647705 C67.2587254 302.11390952 67.30817574 306.40138938 67.35644531 310.68890381 C67.40672858 315.06608281 67.46237899 319.44319322 67.51757812 323.8203125 C67.62504552 332.40489142 67.7260196 340.9895288 67.82421875 349.57421875 C74.42421875 349.57421875 81.02421875 349.57421875 87.82421875 349.57421875 C87.86959396 339.87230154 87.90620602 330.17045603 87.92784309 320.46845627 C87.93823331 315.96232883 87.9523044 311.45627843 87.97509766 306.95019531 C87.99699729 302.59298201 88.00882308 298.23584232 88.01397324 293.87857819 C88.01763851 292.22499688 88.02479487 290.57141912 88.03567886 288.91786957 C88.14684001 271.31260117 86.91679038 257.07670801 74.1796875 243.7578125 C58.16425529 228.91100221 25.79492265 224.54036435 4.98779297 219.28637695 C0.65395517 217.85985869 -1.34838603 215.20435172 -3.35546875 211.25 C-4.35945354 209.04469547 -5.29555072 206.83134621 -6.17578125 204.57421875 C-7.68205078 204.69990234 -7.68205078 204.69990234 -9.21875 204.828125 C-17.99620479 205.50173861 -26.39547302 205.55147908 -35.17578125 204.57421875 Z M192.82421875 217.57421875 C194.47421875 223.18421875 196.12421875 228.79421875 197.82421875 234.57421875 C200.84899046 234.89650821 200.84899046 234.89650821 202.69140625 233 C203.35398437 232.30261719 204.0165625 231.60523438 204.69921875 230.88671875 C205.68535156 229.85998047 205.68535156 229.85998047 206.69140625 228.8125 C207.39523437 228.07386719 208.0990625 227.33523438 208.82421875 226.57421875 C210.47421875 224.92421875 212.12421875 223.27421875 213.82421875 221.57421875 C203.42921875 219.59421875 203.42921875 219.59421875 192.82421875 217.57421875 Z M243.47265625 218.44921875 C242.621875 218.6296875 241.77109375 218.81015625 240.89453125 218.99609375 C240.00507813 219.186875 239.115625 219.37765625 238.19921875 219.57421875 C237.30203125 219.765 236.40484375 219.95578125 235.48046875 220.15234375 C233.26132836 220.62450128 231.04260525 221.09853394 228.82421875 221.57421875 C229.93410156 222.67830078 229.93410156 222.67830078 231.06640625 223.8046875 C232.71275982 225.4580369 234.34745337 227.12332761 235.95703125 228.8125 C236.94316406 229.83923828 236.94316406 229.83923828 237.94921875 230.88671875 C238.61179687 231.58410156 239.274375 232.28148437 239.95703125 233 C241.79944704 234.89650821 241.79944704 234.89650821 244.82421875 234.57421875 C246.47421875 228.96421875 248.12421875 223.35421875 249.82421875 217.57421875 C247.58313632 217.57421875 245.66585636 217.98133606 243.47265625 218.44921875 Z M149.83251953 223.14477539 C147.86213524 223.75007093 145.8883045 224.34297687 143.9140625 224.93554688 C128.23440284 229.71709361 117.45468645 235.33287626 108.82421875 249.57421875 C105.04934001 256.88448241 103.67363366 262.77727366 103.71069336 271.01464844 C103.71054733 271.86379318 103.71040131 272.71293793 103.71025085 273.58781433 C103.71094674 276.39060025 103.71872399 279.19331946 103.7265625 281.99609375 C103.72842783 283.94093794 103.72985119 285.88578261 103.73085022 287.83062744 C103.73466633 292.94668884 103.74448891 298.0627218 103.7555542 303.17877197 C103.76578777 308.4004274 103.77035201 313.62208743 103.77539062 318.84375 C103.78611197 329.08725408 103.80370147 339.3307296 103.82421875 349.57421875 C112.40421875 349.57421875 120.98421875 349.57421875 129.82421875 349.57421875 C130.07319392 342.55953239 130.07319392 342.55953239 130.30224609 335.54418945 C130.33785645 334.66335693 130.3734668 333.78252441 130.41015625 332.875 C130.44157715 331.97950439 130.47299805 331.08400879 130.50537109 330.16137695 C130.85756215 327.30366741 131.5181816 325.13943099 132.82421875 322.57421875 C136.20020114 320.84871664 137.94898609 320.34082338 141.63671875 321.32421875 C143.82421875 322.57421875 143.82421875 322.57421875 144.82421875 324.57421875 C145.31921875 336.94921875 145.31921875 336.94921875 145.82421875 349.57421875 C195.32421875 349.57421875 244.82421875 349.57421875 295.82421875 349.57421875 C296.03432782 325.02685265 296.03432782 325.02685265 296.2121582 300.47924805 C296.26208496 295.73205566 296.26208496 295.73205566 296.28923035 293.50984192 C296.30538215 291.9575209 296.31566906 290.40513214 296.32133484 288.85273743 C296.3310547 286.50130995 296.3593684 284.15076902 296.3918457 281.79956055 C296.39041974 281.10772769 296.38899378 280.41589483 296.3875246 279.70309734 C296.44290334 276.9013583 296.54131791 274.99285023 298.13249207 272.63825989 C300.93959453 270.87268361 303.60584038 271.34433458 306.82421875 271.57421875 C307.81421875 271.90421875 308.80421875 272.23421875 309.82421875 272.57421875 C310.79757599 276.67297738 310.97796154 280.54380923 311.02954102 284.7512207 C311.03944061 285.45420792 311.04934021 286.15719513 311.05953979 286.88148499 C311.09098205 289.19178974 311.11584343 291.50211501 311.140625 293.8125 C311.16120947 295.41961687 311.18220633 297.02672851 311.20359802 298.63383484 C311.25866454 302.85384877 311.30814151 307.07391031 311.35644531 311.29400635 C311.40677326 315.60425021 311.46240025 319.91442535 311.51757812 324.22460938 C311.62497098 332.67442251 311.72596749 341.12429437 311.82421875 349.57421875 C320.73421875 349.57421875 329.64421875 349.57421875 338.82421875 349.57421875 C338.91489249 338.43808879 338.98814897 327.30220741 339.03146744 316.16579056 C339.05226698 310.99368734 339.08044396 305.82185165 339.12597656 300.64990234 C339.16970807 295.65076855 339.19341314 290.65189071 339.20372772 285.65258026 C339.21107037 283.75335415 339.22540778 281.8541407 339.24713898 279.95502472 C339.42070855 264.14566761 337.74775139 251.85591708 326.82421875 239.57421875 C317.47535414 230.66331897 306.01709825 226.71108372 293.82421875 223.19921875 C292.59832031 222.83183594 291.37242187 222.46445312 290.109375 222.0859375 C284.41493674 219.88347766 284.41493674 219.88347766 278.82421875 220.57421875 C279.12714844 221.07236084 279.43007813 221.57050293 279.7421875 222.08374023 C281.12355438 224.38132526 282.47375049 226.69584818 283.82421875 229.01171875 C284.53964844 230.18637695 284.53964844 230.18637695 285.26953125 231.38476562 C288.38657862 236.79506927 290.17453433 241.31687855 288.82421875 247.57421875 C287.53387713 250.6941968 285.82530868 253.40015596 283.94921875 256.19921875 C283.44672607 256.98353271 282.9442334 257.76784668 282.42651367 258.57592773 C280.91404915 260.92375818 279.37443702 263.25118834 277.82421875 265.57421875 C277.41349121 266.19538574 277.00276367 266.81655273 276.57958984 267.45654297 C275.04146588 269.78234316 273.49672933 272.10333176 271.93676758 274.41455078 C267.90066536 280.40230296 264.01905027 286.48598546 260.13671875 292.57421875 C252.99377723 303.76817903 245.78412475 314.91609092 238.49902344 326.01806641 C236.91683245 328.4328681 235.34258438 330.85267776 233.76953125 333.2734375 C232.87152169 334.64481157 231.97311572 336.01592619 231.07421875 337.38671875 C230.67992676 337.99725098 230.28563477 338.6077832 229.87939453 339.23681641 C228.01732392 342.0575605 226.68603681 343.66634005 223.82421875 345.57421875 C220.6790008 345.88257345 219.57215183 345.92330461 216.82421875 344.57421875 C210.7282933 338.33652759 206.51713312 329.91027527 202.03222656 322.47509766 C199.07330077 317.57444044 196.02306079 312.75908536 192.82421875 308.01171875 C182.51135186 292.70444304 172.63431392 277.10423122 162.72143555 261.53613281 C161.43005096 259.52003735 160.12630815 257.51181644 158.81176758 255.51074219 C158.17779053 254.53911133 157.54381348 253.56748047 156.890625 252.56640625 C156.03513062 251.26872314 156.03513062 251.26872314 155.16235352 249.94482422 C153.55001325 247.08844327 152.88197924 244.92406173 153.1953125 241.6640625 C154.31840894 237.93203396 156.25177121 234.68380984 158.22265625 231.33984375 C160.41599751 227.55231786 162.13233598 223.60488065 163.82421875 219.57421875 C159.10269986 219.57421875 154.31235686 221.76311771 149.83251953 223.14477539 Z M177.82421875 227.57421875 C176.45456667 229.81601252 175.10369067 232.06594213 173.76171875 234.32421875 C173.17680664 235.27554688 173.17680664 235.27554688 172.58007812 236.24609375 C170.42967359 239.63869849 170.42967359 239.63869849 170.04541016 243.49780273 C170.97649431 245.98020735 172.19839391 248.01855816 173.6328125 250.25 C174.2107959 251.15411621 174.7887793 252.05823242 175.38427734 252.98974609 C176.00383301 253.94574707 176.62338867 254.90174805 177.26171875 255.88671875 C177.88900879 256.86334473 178.51629883 257.8399707 179.16259766 258.84619141 C184.29478395 266.81462035 189.51605957 274.72205701 194.82421875 282.57421875 C196.23250255 279.75765115 195.38196966 278.46856667 194.46899414 275.48193359 C194.14858658 274.4209848 193.82817902 273.36003601 193.49806213 272.26693726 C193.14292038 271.11794952 192.78777863 269.96896179 192.421875 268.78515625 C192.06532333 267.61159576 191.70877167 266.43803528 191.34141541 265.22891235 C190.39148074 262.10700685 189.43521708 258.98713262 188.47589111 255.86810303 C187.49880505 252.68581682 186.53014856 249.50098086 185.56054688 246.31640625 C183.65610778 240.06664738 181.74330743 233.81949376 179.82421875 227.57421875 C179.16421875 227.57421875 178.50421875 227.57421875 177.82421875 227.57421875 Z M263.82421875 227.57421875 C261.04857272 234.24326961 258.65144398 240.94059458 256.5546875 247.8515625 C256.26942703 248.78472794 255.98416656 249.71789337 255.69026184 250.67933655 C255.09562862 252.63065155 254.50334013 254.58268253 253.91333008 256.53540039 C253.00582696 259.53116821 252.08425434 262.5223832 251.16210938 265.51367188 C250.58377578 267.41770786 250.00627147 269.32199596 249.4296875 271.2265625 C249.1527153 272.12028061 248.8757431 273.01399872 248.59037781 273.93479919 C248.34294327 274.76318802 248.09550873 275.59157684 247.84057617 276.44506836 C247.61947678 277.17213486 247.39837738 277.89920135 247.170578 278.64830017 C246.62779754 280.78354357 246.62779754 280.78354357 247.82421875 283.57421875 C248.50226563 282.44886719 249.1803125 281.32351563 249.87890625 280.1640625 C263.5995926 257.4940231 263.5995926 257.4940231 271.171875 247.46484375 C273.03638743 244.77016066 273.03638743 244.77016066 272.79296875 242.09375 C271.58173205 238.94355777 270.05192498 236.16129129 268.32421875 233.26171875 C267.380625 231.65876953 267.380625 231.65876953 266.41796875 230.0234375 C265.89203125 229.21519531 265.36609375 228.40695312 264.82421875 227.57421875 C264.49421875 227.57421875 264.16421875 227.57421875 263.82421875 227.57421875 Z M218.4375 238.88671875 C218.00824219 239.44359375 217.57898438 240.00046875 217.13671875 240.57421875 C216.37359375 241.56421875 215.61046875 242.55421875 214.82421875 243.57421875 C215.84182348 245.71296952 215.84182348 245.71296952 217.82421875 247.57421875 C221.32421875 248.32421875 221.32421875 248.32421875 224.82421875 247.57421875 C226.83286234 245.20152135 226.83286234 245.20152135 227.82421875 242.57421875 C225.51189453 240.011719 225.51189453 240.011719 222.82421875 237.57421875 C219.86913012 237.2305167 219.86913012 237.2305167 218.4375 238.88671875 Z M219.82421875 263.57421875 C219.1184099 267.73799613 218.43790225 271.90553633 217.76171875 276.07421875 C217.56255859 277.24726563 217.36339844 278.4203125 217.15820312 279.62890625 C215.67302319 288.90476693 215.97756337 295.56522145 218.88671875 304.57421875 C219.24894531 305.70859375 219.61117188 306.84296875 219.984375 308.01171875 C220.26152344 308.85734375 220.53867187 309.70296875 220.82421875 310.57421875 C226.86248677 301.51681672 227.32649586 292.01862151 225.82421875 281.57421875 C225.65746714 280.22559019 225.49350965 278.87661385 225.33203125 277.52734375 C224.54279772 270.45368665 224.54279772 270.45368665 222.82421875 263.57421875 C221.83421875 263.57421875 220.84421875 263.57421875 219.82421875 263.57421875 Z " fill="#000000" transform="translate(157.17578125,133.42578125)"/>
<path d="M0 0 C1.50170997 1.05439211 2.97827853 2.1465215 4.4140625 3.2890625 C6.42983019 4.57880466 6.42983019 4.57880466 8.91015625 4.2109375 C11.66241418 3.29210678 13.72256967 2.09239353 16.13671875 0.48828125 C27.69839371 -6.54338071 40.78544829 -7.52259237 53.9921875 -4.9453125 C68.40172032 -0.49010119 78.78241091 8.13038355 85.97265625 21.3125 C92.45489693 34.70570098 92.2518095 50.12184573 87.84814453 64.16723633 C83.24558244 77.35540605 75.15602575 87.55475622 65.44921875 97.36328125 C64.794375 98.07871094 64.13953125 98.79414062 63.46484375 99.53125 C50.21528639 113.71507102 31.69411497 123.02166076 14.44921875 131.36328125 C13.78921875 131.69328125 13.12921875 132.02328125 12.44921875 132.36328125 C6.15926131 132.8481602 2.30544846 131.85923717 -3.17578125 128.86328125 C-3.86381836 128.50161865 -4.55185547 128.13995605 -5.26074219 127.76733398 C-7.36771484 126.65069655 -9.45969918 125.50934551 -11.55078125 124.36328125 C-12.17887695 124.02699707 -12.80697266 123.69071289 -13.45410156 123.34423828 C-26.11309255 116.56045655 -37.11183849 108.19831823 -47.55078125 98.36328125 C-48.29972656 97.69039063 -49.04867187 97.0175 -49.8203125 96.32421875 C-62.87136286 84.11885817 -72.98852328 66.86744712 -73.88671875 48.75 C-74.187064 33.03798267 -70.8462375 19.87134758 -59.80078125 8.11328125 C-44.35603853 -6.39541646 -18.63440164 -11.95683658 0 0 Z M-51.55078125 23.36328125 C-57.79797824 33.27855721 -59.02127107 43.44389633 -56.90234375 54.85546875 C-53.43810016 67.2023882 -46.28496877 76.22999201 -37.55078125 85.36328125 C-36.97199219 86.01683594 -36.39320313 86.67039062 -35.796875 87.34375 C-26.55113701 97.37547914 -14.25707961 104.71984279 -2.36328125 111.17578125 C-1.57397217 111.6145459 -0.78466309 112.05331055 0.02856445 112.50537109 C3.40972593 114.27301896 5.69780083 115.36706197 9.5546875 115.34765625 C13.08688457 114.14642324 16.31964078 112.60214245 19.57421875 110.80078125 C20.22801514 110.44435547 20.88181152 110.08792969 21.55541992 109.72070312 C45.02268747 96.72678488 65.67346925 79.67480183 74.06640625 53.43359375 C75.79074548 44.1080857 75.13368484 34.40357264 70.16015625 26.25 C64.6299177 18.39824419 57.94893199 12.60889739 48.44921875 10.36328125 C35.92695295 9.05358856 27.92133061 11.33747167 18.1484375 18.90234375 C16.29739662 20.41496971 16.29739662 20.41496971 14.44921875 22.73828125 C11.23190964 25.3523449 8.51593385 24.68603642 4.44921875 24.36328125 C1.44921875 23.36328125 1.44921875 23.36328125 0.48828125 21.4921875 C0.14539063 20.78964844 -0.1975 20.08710937 -0.55078125 19.36328125 C-7.52308957 12.66921058 -14.38651583 10.22298449 -23.92578125 9.92578125 C-35.82914513 10.23250817 -43.68141766 14.37769587 -51.55078125 23.36328125 Z " fill="#000000" transform="translate(247.55078125,18.63671875)"/>
<path d="M0 0 C2.25969126 1.46617177 4.01353048 3.14897158 6 5 C10.08485823 6.36161941 13.86256057 6.90744411 17.94140625 5.17578125 C20.58891057 3.6889782 22.85043389 2.14956611 25 0 C28.53622611 -0.32742834 31.10695442 -0.39952039 34.375 1.0625 C36.88450758 4.0546052 37.06463846 6.12169223 37 10 C34.70318015 15.93134796 30.0189471 18.45043434 24.5 21.0546875 C16.65052468 24.02277036 8.41729822 23.81708749 0.5078125 21.1640625 C-4.17083542 18.99235365 -7.92974527 16.16317913 -11 12 C-11.93647678 8.76156913 -11.93384752 6.23558437 -11 3 C-8.11665567 -0.80601452 -4.49675312 -0.62024181 0 0 Z " fill="#000000" transform="translate(366,282)"/>
<path d="M0 0 C1.83125066 1.16006829 3.47694191 2.46854061 5.1796875 3.80859375 C8.46852787 5.96116094 11.07881363 6 15 6 C18.16012378 4.78456778 20.42159987 3.48802511 23 1.3125 C25.88421192 -0.58026407 27.61876384 -0.55203856 31 0 C33.9375 2 33.9375 2 36 5 C36.26546011 9.18099674 36.23212799 11.46500256 33.6015625 14.7421875 C26.46929552 21.22900046 18.47642329 23.16583741 9 23 C0.96996773 21.99624597 -4.58505793 19.00855871 -10 13 C-11.54586876 9.90826248 -11.29359521 7.40570448 -11 4 C-8.09926274 -0.52515012 -5.13484142 -0.78328089 0 0 Z " fill="#000000" transform="translate(125,292)"/>
<path d="M0 0 C2.19140625 1.3359375 2.19140625 1.3359375 4 4 C4.60101005 7.67391007 4.55759468 11.28514317 4.5 15 C4.51546875 15.99773437 4.5309375 16.99546875 4.546875 18.0234375 C4.50785854 25.30000684 4.50785854 25.30000684 2.08984375 28.6328125 C-0.10550418 30.06902142 -1.3800619 30.84121587 -4 31 C-7.06212707 30.05219877 -8.72204978 29.27795022 -11 27 C-12.43803719 23.18049994 -12.18383004 19.08844846 -12.1875 15.0625 C-12.19974609 14.35931641 -12.21199219 13.65613281 -12.22460938 12.93164062 C-12.2360743 8.85394847 -11.99300756 5.59535916 -10 2 C-6.2794164 -0.48038907 -4.40203429 -0.46337203 0 0 Z " fill="#000000" transform="translate(299,404)"/>
<path d="M0 0 C3.1359157 1.77984405 3.84102736 2.52308207 5 6 C5.17066284 8.12069561 5.2662598 10.24795098 5.3125 12.375 C5.34988281 13.49648437 5.38726562 14.61796875 5.42578125 15.7734375 C4.91283636 19.66052443 3.7309956 21.24394939 1 24 C-2.47454134 25.46296477 -3.72080658 25.11275119 -7.25 23.6875 C-10 22 -10 22 -11 20 C-11.20331599 17.35689216 -11.32348481 14.7710077 -11.375 12.125 C-11.41238281 11.40441406 -11.44976562 10.68382812 -11.48828125 9.94140625 C-11.55253763 6.06460492 -11.3647547 4.38797191 -8.66796875 1.51953125 C-5.43267172 -0.32311962 -3.66932994 -0.54649595 0 0 Z " fill="#000000" transform="translate(411,240)"/>
<path d="M0 0 C2.6640625 1.51953125 2.6640625 1.51953125 5 4 C5.48722793 6.90521003 5.65912572 9.11689757 5.5625 12 C5.57345703 12.7115625 5.58441406 13.423125 5.59570312 14.15625 C5.54641251 17.67888582 5.28056707 19.64156126 3.0859375 22.4453125 C0.88923794 24.082553 -0.27185026 24.83465759 -3 25 C-6.24609943 24.20826843 -7.63447645 23.49613029 -9.62890625 20.7890625 C-11.19066715 17.61214716 -11.40195519 15.52214503 -11.375 12 C-11.38273437 10.989375 -11.39046875 9.97875 -11.3984375 8.9375 C-10.94572924 5.59988614 -9.97876296 3.70270063 -8 1 C-5.14675563 -0.42662219 -3.16545451 -0.31033868 0 0 Z " fill="#000000" transform="translate(352,240)"/>
<path d="M0 0 C2.37815773 3.32322367 2.26830978 6.5084684 2.25 10.5 C2.25515625 11.6240625 2.2603125 12.748125 2.265625 13.90625 C2.00891642 16.89614994 1.72359429 18.5700146 0 21 C-3.64117197 22.51142987 -5.94462782 23.25797987 -9.8125 22.3125 C-12 21 -12 21 -14 18 C-14.24769941 15.46828157 -14.37014685 13.09341828 -14.375 10.5625 C-14.40335937 9.24378906 -14.43171875 7.92507813 -14.4609375 6.56640625 C-14 3 -14 3 -12.1640625 0.58984375 C-7.7182687 -2.67628996 -4.96922566 -1.89734071 0 0 Z " fill="#000000" transform="translate(115,253)"/>
</svg>
