<?xml version="1.0" encoding="UTF-8"?>
<svg version="1.1" xmlns="http://www.w3.org/2000/svg" width="512" height="512">
<path d="M0 0 C1.12005936 -0.0071553 2.24011871 -0.01431061 3.39411926 -0.02168274 C4.62376404 -0.02437164 5.85340881 -0.02706055 7.12031555 -0.02983093 C8.41488174 -0.03640213 9.70944794 -0.04297333 11.04324341 -0.04974365 C15.3388597 -0.07076968 19.63447628 -0.08114611 23.93013 -0.09111023 C25.41056143 -0.09515863 26.89099267 -0.09927557 28.37142372 -0.10346031 C35.32861223 -0.12251045 42.28579016 -0.13674066 49.24299973 -0.14507228 C57.26473618 -0.15483807 65.2861962 -0.18114086 73.30783528 -0.22157317 C79.51349196 -0.2517748 85.71906959 -0.26654506 91.92479831 -0.26985329 C95.62849466 -0.2721996 99.33189565 -0.28110452 103.03551292 -0.30631447 C107.17202904 -0.33401593 111.30793121 -0.32975174 115.4445343 -0.32279968 C116.66405792 -0.33560974 117.88358154 -0.3484198 119.14006042 -0.36161804 C127.00254833 -0.31348043 132.37907716 0.65941007 138.5941925 5.78779602 C139.03118469 6.31888977 139.46817688 6.84998352 139.91841125 7.39717102 C140.59323547 8.1783429 140.59323547 8.1783429 141.2816925 8.97529602 C145.07105405 15.19029608 146.59474745 22.55504167 148.30513 29.55342102 C148.54504166 30.51872742 148.78495331 31.48403381 149.03213501 32.47859192 C149.79035637 35.53370016 150.54198361 38.59038554 151.29341125 41.64717102 C151.80925088 43.73061245 152.32552261 45.81394696 152.84223938 47.89717102 C154.10179607 52.97927848 155.35595651 58.06269393 156.60591125 63.14717102 C157.22452687 63.14863758 157.84314249 63.15010414 158.48050404 63.15161514 C173.57263646 63.1887593 188.66451199 63.24787413 203.75645161 63.33107376 C211.05498915 63.37078648 218.35342008 63.4032182 225.65205383 63.41816711 C232.01779763 63.43122415 238.38330608 63.4582912 244.74891728 63.50178409 C248.11567329 63.52430866 251.48214002 63.54008718 254.84897804 63.53905487 C258.61897849 63.54143103 262.38807022 63.56856587 266.15791321 63.60127258 C267.80977631 63.59372704 267.80977631 63.59372704 269.49501038 63.58602905 C280.98802237 63.73953589 290.24989793 67.17025849 298.60591125 75.14717102 C310.75605671 87.87474913 310.18726826 101.8487013 310.12348938 118.43623352 C310.12891487 120.80421885 310.13603992 123.17220079 310.14472961 125.54017639 C310.16291481 131.94923481 310.1559151 138.35803473 310.14321327 144.76709747 C310.13608339 148.7749173 310.13745025 152.78271962 310.14117432 156.7905426 C310.14178725 157.45751368 310.14240018 158.12448476 310.14303169 158.81166708 C310.14431069 160.16694118 310.14560755 161.52221526 310.14692205 162.87748933 C310.15830663 175.56231635 310.14524758 188.24702742 310.12372059 200.93183541 C310.1058515 211.79729176 310.1089562 222.66257713 310.12739563 233.5280304 C310.14883998 246.16991423 310.1572082 258.81169663 310.14494658 271.45359612 C310.14367249 272.80366387 310.142415 274.15373165 310.14117432 275.50379944 C310.14024866 276.49998242 310.14024866 276.49998242 310.13930431 277.51629031 C310.13586206 282.17854619 310.14185264 286.84070189 310.15109253 291.50294495 C310.16267767 297.78710356 310.15457617 304.07094041 310.1315155 310.35506439 C310.12624271 312.65640479 310.12771758 314.95777244 310.13656616 317.25910187 C310.19077061 332.79293346 309.89076683 345.32600548 298.60591125 357.14717102 C287.49038228 367.75840379 275.53084381 368.73748378 260.8808136 368.65510559 C259.08899111 368.6597198 257.29717241 368.66607621 255.50536156 368.67401457 C250.60306418 368.6906595 245.70107966 368.68248354 240.79878139 368.67006969 C235.50353348 368.66100171 230.20833852 368.67499761 224.9131012 368.68598938 C214.54821543 368.70376049 204.18344564 368.69994086 193.81855536 368.68833882 C185.39355869 368.67929925 176.96859449 368.67808277 168.54359436 368.68243408 C167.34375392 368.68304701 166.14391349 368.68365995 164.90771425 368.68429145 C162.47013616 368.68557037 160.03255807 368.68686723 157.59498 368.68818182 C134.74662935 368.6995835 111.89834293 368.68648036 89.05000281 368.66498035 C69.45207034 368.64710976 49.85423264 368.65021399 30.25630188 368.6686554 C7.4887899 368.69006936 -15.2786658 368.6984849 -38.04618645 368.68620634 C-40.47471491 368.68493217 -42.90324337 368.68367468 -45.33177185 368.68243408 C-47.12401859 368.68150843 -47.12401859 368.68150843 -48.95247233 368.68056408 C-57.36574381 368.67711276 -65.77897954 368.68293482 -74.19224548 368.69235229 C-84.44751185 368.70357947 -94.70265578 368.70051701 -104.95790815 368.67922932 C-110.18865414 368.66872869 -115.41919609 368.66458038 -120.64994049 368.67782593 C-125.44158155 368.6897759 -130.23283012 368.68314425 -135.02443576 368.66191572 C-136.75443535 368.65746071 -138.48446833 368.65969108 -140.21444631 368.66941887 C-154.00903736 368.74101512 -165.04999199 367.02197038 -175.39408875 357.14717102 C-187.5442342 344.41959291 -186.97544575 330.44564074 -186.91166687 313.85810852 C-186.91709236 311.49012319 -186.92421741 309.12214125 -186.9329071 306.75416565 C-186.9510923 300.34510723 -186.94409259 293.93630732 -186.93139076 287.52724457 C-186.92426088 283.51942474 -186.92562774 279.51162242 -186.92935181 275.50379944 C-186.92996474 274.83682836 -186.93057767 274.16985728 -186.93120918 273.48267496 C-186.93248818 272.12740086 -186.93378504 270.77212678 -186.93509954 269.41685271 C-186.94648412 256.73202569 -186.93342507 244.04731463 -186.91189808 231.36250663 C-186.89402899 220.49705028 -186.89713369 209.63176491 -186.91557312 198.76631165 C-186.93701747 186.12442782 -186.94538569 173.48264541 -186.93312407 160.84074593 C-186.93184998 159.49067817 -186.93059249 158.14061039 -186.92935181 156.7905426 C-186.9287347 156.12642062 -186.9281176 155.46229863 -186.9274818 154.77805173 C-186.92403955 150.11579585 -186.93003014 145.45364015 -186.93927002 140.79139709 C-186.95085516 134.50723848 -186.94275366 128.22340163 -186.91969299 121.93927765 C-186.9144202 119.63793725 -186.91589507 117.3365696 -186.92474365 115.03524017 C-186.9789481 99.50140858 -186.67894432 86.96833656 -175.39408875 75.14717102 C-167.49556741 67.6069947 -159.07564832 63.89652778 -148.16947937 64.09223938 C-147.29066101 64.11943054 -147.29066101 64.11943054 -146.39408875 64.14717102 C-146.41503601 63.49232727 -146.43598328 62.83748352 -146.45756531 62.16279602 C-146.54139257 59.15774774 -146.59295769 56.15294638 -146.64408875 53.14717102 C-146.69436218 51.60222961 -146.69436218 51.60222961 -146.74565125 50.02607727 C-146.84552741 42.1857985 -145.64349742 36.85524375 -140.429245 30.90498352 C-139.77826843 30.3661554 -139.12729187 29.82732727 -138.45658875 29.27217102 C-137.80819031 28.71787415 -137.15979187 28.16357727 -136.491745 27.59248352 C-132.18859352 24.62755606 -128.44191857 23.89368165 -123.26200867 23.85664368 C-122.04692123 23.84388397 -120.8318338 23.83112427 -119.57992554 23.81797791 C-118.27465408 23.81575226 -116.96938263 23.81352661 -115.6245575 23.81123352 C-114.260812 23.80479937 -112.89706786 23.79807056 -111.5333252 23.7910614 C-108.67787988 23.7791074 -105.82255535 23.77537854 -102.96708679 23.77656555 C-99.32555764 23.77676845 -95.68481146 23.74948931 -92.04346752 23.71502113 C-89.22684237 23.69267377 -86.41040319 23.68873041 -83.5936985 23.689785 C-81.60410395 23.68630702 -79.61456744 23.66469144 -77.62509155 23.64268494 C-69.27909103 23.68462309 -63.60526459 24.45688975 -57.15190125 30.11201477 C-56.61307312 30.76299133 -56.074245 31.4139679 -55.51908875 32.08467102 C-54.96479187 32.73306946 -54.410495 33.3814679 -53.83940125 34.04951477 C-51.01240747 38.152476 -50.14348464 41.71810364 -50.19877625 46.66670227 C-50.20844421 48.19907532 -50.20844421 48.19907532 -50.2183075 49.7624054 C-50.24344421 51.34505188 -50.24344421 51.34505188 -50.26908875 52.95967102 C-50.27811218 54.03410461 -50.28713562 55.10853821 -50.2964325 56.2155304 C-50.31993451 58.85950654 -50.35580358 61.50336762 -50.39408875 64.14717102 C-41.97908875 63.65217102 -41.97908875 63.65217102 -33.39408875 63.14717102 C-32.89594666 61.03677429 -32.89594666 61.03677429 -32.38774109 58.88374329 C-31.14236316 53.62925685 -29.87306407 48.38078718 -28.59672546 43.13374329 C-28.04923815 40.86869622 -27.50811631 38.60210016 -26.97367859 36.3339386 C-26.2011247 33.06029544 -25.40529971 29.79304015 -24.60502625 26.52607727 C-24.25774979 25.02084251 -24.25774979 25.02084251 -23.90345764 23.48519897 C-21.43506678 13.59997311 -17.19233393 6.45931906 -8.39408875 1.14717102 C-5.3236133 0.12367921 -3.2166618 0.01409873 0 0 Z M-4.05155945 19.72114563 C-6.02975536 23.29585607 -6.89901743 27.01339525 -7.8745575 30.96357727 C-8.20113091 32.24288368 -8.20113091 32.24288368 -8.53430176 33.54803467 C-8.99151748 35.34649743 -9.44427891 37.14609771 -9.89286804 38.94673157 C-10.58057839 41.70561777 -11.28201429 44.46072788 -11.98588562 47.2155304 C-12.42874956 48.96467532 -12.87083369 50.7140179 -13.3120575 52.46357727 C-13.62604744 53.70114525 -13.62604744 53.70114525 -13.94638062 54.9637146 C-14.72294115 58.09267662 -15.39408875 60.9100972 -15.39408875 64.14717102 C35.42591125 64.14717102 86.24591125 64.14717102 138.60591125 64.14717102 C137.08133484 55.76200073 135.35835949 47.5855181 133.25679016 39.34736633 C132.72716102 37.25737205 132.21545605 35.16344605 131.7035675 33.06904602 C131.36221377 31.72241402 131.01980367 30.37604926 130.67622375 29.02998352 C130.22400452 27.22618225 130.22400452 27.22618225 129.76264954 25.38594055 C128.51772634 21.9002607 127.21067265 19.76632667 124.60591125 17.14717102 C121.61422621 16.12253541 118.82441626 16.01958803 115.67880249 16.01345825 C114.68765945 16.00919327 113.69651642 16.00492828 112.67533875 16.00053406 C111.59418793 16.00098724 110.51303711 16.00144043 109.39912415 16.00190735 C108.25565018 15.99854874 107.11217621 15.99519012 105.93405151 15.99172974 C102.14887917 15.98221989 98.36375105 15.98027668 94.5785675 15.97920227 C91.95067323 15.97599 89.32277914 15.97262595 86.69488525 15.96911621 C81.18451143 15.96272342 75.67414962 15.96123354 70.16377258 15.96186829 C63.798328 15.96246918 57.43296814 15.95191352 51.067545 15.93612462 C44.93902873 15.92146606 38.81055308 15.91788039 32.68202019 15.91847801 C30.07648307 15.9172965 27.47094534 15.91286515 24.86541939 15.90514565 C21.22423865 15.89536701 17.58327703 15.89821541 13.9420929 15.9042511 C12.86296631 15.89863159 11.78383972 15.89301208 10.67201233 15.88722229 C9.18106804 15.89351402 9.18106804 15.89351402 7.66000366 15.89993286 C6.36945116 15.89911571 6.36945116 15.89911571 5.05282688 15.89828205 C1.45835961 16.26389468 -1.4150292 17.2174322 -4.05155945 19.72114563 Z M-128.39408875 43.14717102 C-131.38446388 49.7255814 -131.38446388 49.7255814 -130.39408875 64.14717102 C-109.27408875 64.14717102 -88.15408875 64.14717102 -66.39408875 64.14717102 C-65.20151916 49.41427621 -65.20151916 49.41427621 -69.39408875 42.14717102 C-72.68399542 40.27225395 -75.52657459 39.89347189 -79.27275085 39.87251282 C-80.21400314 39.8629808 -81.15525543 39.85344879 -82.12503052 39.84362793 C-83.13034317 39.84453934 -84.13565582 39.84545074 -85.1714325 39.84638977 C-86.73759056 39.83996208 -86.73759056 39.83996208 -88.33538818 39.83340454 C-90.54008765 39.82767019 -92.74480602 39.82715438 -94.94950867 39.83149719 C-98.31613037 39.83465651 -101.68187252 39.81118833 -105.04838562 39.7858429 C-107.19356681 39.7835697 -109.33875035 39.7828665 -111.4839325 39.78388977 C-112.48722092 39.77468002 -113.49050934 39.76547028 -114.52420044 39.75598145 C-119.81542671 39.79087956 -123.96594814 39.90317194 -128.39408875 43.14717102 Z M-163.39408875 87.14717102 C-170.71357686 95.65561152 -170.68703432 105.99345131 -170.51908875 116.70967102 C-170.51006531 117.81375305 -170.50104187 118.91783508 -170.491745 120.05537415 C-170.46839003 122.75287272 -170.43563928 125.44990179 -170.39408875 128.14717102 C-151.02672049 128.35777542 -131.65958582 128.51629692 -112.2913084 128.61348057 C-103.29742757 128.65981215 -94.3042598 128.72293327 -85.31083679 128.8261261 C-77.46855464 128.91606725 -69.62678907 128.97395024 -61.78400546 128.99396747 C-57.63418867 129.00566213 -53.48584918 129.03297791 -49.3365078 129.09874153 C-45.42329026 129.1602549 -41.51214489 129.17859322 -37.59848976 129.16514015 C-36.16943178 129.16759768 -34.74029792 129.18525489 -33.31166077 129.22002029 C-23.8105723 129.43970556 -18.5848967 127.90094036 -11.61376667 121.31613064 C-10.88127295 120.60037396 -10.14877924 119.88461729 -9.39408875 119.14717102 C11.14608807 103.87566898 35.99017046 96.46546147 61.35591125 96.70967102 C62.05212585 96.71337708 62.74834045 96.71708313 63.46565247 96.72090149 C87.15802301 96.89968117 110.22414954 102.98256301 129.60591125 117.14717102 C130.82312363 118.52199394 130.82312363 118.52199394 132.06492615 119.92459106 C137.96600927 126.43481535 143.87186705 128.71023271 152.63490999 129.23184341 C160.19224655 129.54094338 167.75523612 129.40971979 175.31479025 129.26250434 C179.48122138 129.19317439 183.64776303 129.1872346 187.81468201 129.17422485 C195.684461 129.14019829 203.55253492 129.05016018 211.42156708 128.93938047 C220.38883082 128.81591302 229.35618122 128.75582037 238.324085 128.70073068 C256.75232278 128.58612295 275.17897937 128.39296832 293.60591125 128.14717102 C293.66464053 124.33473722 293.69975042 120.52242196 293.73091125 116.70967102 C293.74766907 115.64039368 293.76442688 114.57111633 293.7816925 113.46943665 C293.8400878 103.92180617 293.27942536 94.53459594 286.60591125 87.14717102 C278.88367962 81.12644805 271.94743112 80.02396177 262.27289009 80.01853657 C261.5651461 80.01678353 260.8574021 80.01503049 260.12821132 80.01322433 C257.76269541 80.00858184 255.39724144 80.0110253 253.03172302 80.01345825 C251.31617841 80.0115894 249.60063422 80.0092884 247.88509071 80.00659293 C243.17522211 80.00047777 238.46537127 80.00060819 233.7554996 80.0017873 C228.67428231 80.00199138 223.59307072 79.99647193 218.51185608 79.99172974 C208.55888208 79.98342442 198.605914 79.98067496 188.65293683 79.98011736 C180.56345783 79.97964219 172.47398079 79.97758739 164.38450241 79.97441673 C141.45103761 79.96561087 118.51757749 79.96099731 95.58411099 79.96174721 C94.34784316 79.96178716 93.11157534 79.96182712 91.83784485 79.96186829 C89.98118019 79.96192961 89.98118019 79.96192961 88.08700715 79.96199217 C68.02142608 79.96239873 47.95586377 79.95282647 27.89028813 79.93872992 C7.28876565 79.92437098 -13.31274768 79.91745945 -33.91427529 79.9183237 C-45.48118197 79.91865581 -57.04806898 79.9159024 -68.61497116 79.90514565 C-78.46192347 79.89604705 -88.30884719 79.89386016 -98.15580188 79.90065507 C-103.17964656 79.90392336 -108.20343637 79.90396573 -113.22727585 79.89530182 C-117.82765249 79.88744976 -122.42793063 79.88885503 -127.02830483 79.89758595 C-128.69109846 79.89912378 -130.35389938 79.89729415 -132.0166844 79.89172588 C-148.81095088 79.64821798 -148.81095088 79.64821798 -163.39408875 87.14717102 Z M-13.39408875 144.14717102 C-35.35273314 167.38365383 -42.39683268 195.69377346 -41.5776825 226.74775696 C-41.19268083 233.87643149 -39.63047493 240.39430459 -37.39408875 247.14717102 C-37.00865906 248.31119446 -36.62322937 249.4752179 -36.22612 250.67451477 C-31.82343293 262.88520348 -25.42220532 273.00255099 -17.39408875 283.14717102 C-16.89135437 283.80588196 -16.38862 284.4645929 -15.87065125 285.14326477 C-0.60892191 304.24248096 25.11979188 316.12169267 48.91548157 319.30635071 C78.58029 322.60501259 105.84562013 313.37107076 129.18013 295.13545227 C144.95471738 281.73819674 155.36757824 263.67674559 161.60591125 244.14717102 C161.94751282 243.11076477 162.28911438 242.07435852 162.6410675 241.00654602 C169.62709344 215.14200349 164.10960186 186.83442828 151.23091125 163.83467102 C147.80600251 158.20965534 143.84658228 153.17249843 139.60591125 148.14717102 C138.93882141 147.26158508 138.93882141 147.26158508 138.258255 146.35810852 C123.87649515 127.79816155 98.28696601 116.54433341 75.60591125 113.14717102 C42.03370288 109.00245394 10.92713243 121.02757578 -13.39408875 144.14717102 Z M-170.39408875 144.14717102 C-170.39408875 191.66717102 -170.39408875 239.18717102 -170.39408875 288.14717102 C-125.84408875 288.14717102 -81.29408875 288.14717102 -35.39408875 288.14717102 C-39.02656885 281.60746987 -39.02656885 281.60746987 -42.67533875 275.07685852 C-52.94436259 256.46737253 -58.03116779 237.71266241 -57.83158875 216.39717102 C-57.82854736 215.7026181 -57.82550598 215.00806519 -57.82237244 214.29246521 C-57.6494313 187.47621185 -48.48810817 167.06170502 -35.39408875 144.14717102 C-79.94408875 144.14717102 -124.49408875 144.14717102 -170.39408875 144.14717102 Z M158.60591125 144.14717102 C162.23839136 150.68687217 162.23839136 150.68687217 165.88716125 157.21748352 C176.17078618 175.85342953 181.23986763 194.61611214 181.04341125 215.95967102 C181.03934769 217.00341888 181.03934769 217.00341888 181.03520203 218.06825256 C180.96971114 229.19596747 179.98006456 239.50304924 176.60591125 250.14717102 C176.07997375 251.92414368 176.07997375 251.92414368 175.54341125 253.73701477 C171.57620692 265.98300314 164.96300769 277.02225226 158.60591125 288.14717102 C203.15591125 288.14717102 247.70591125 288.14717102 293.60591125 288.14717102 C293.60591125 240.62717102 293.60591125 193.10717102 293.60591125 144.14717102 C249.05591125 144.14717102 204.50591125 144.14717102 158.60591125 144.14717102 Z M-170.39408875 304.14717102 C-170.45281803 307.95960482 -170.48792791 311.77192008 -170.51908875 315.58467102 C-170.53584656 316.65394836 -170.55260437 317.72322571 -170.56987 318.8249054 C-170.62923839 328.53163814 -169.94685174 337.52999983 -163.39408875 345.14717102 C-153.82416126 353.37981606 -141.44295339 352.43581179 -129.57939148 352.40113831 C-127.86211992 352.40344451 -126.14484935 352.40662211 -124.42758083 352.41059279 C-119.72220882 352.41892739 -115.01691812 352.41482157 -110.31154585 352.40862036 C-105.23172427 352.40409142 -100.15191659 352.41108183 -95.07209778 352.4165802 C-85.12607346 352.42547111 -75.18007934 352.42355352 -65.23405385 352.41775492 C-57.15034185 352.41323726 -49.06663831 352.41262598 -40.98292542 352.41480255 C-39.25682687 352.41526225 -39.25682687 352.41526225 -37.49585766 352.41573124 C-35.15813104 352.41637069 -32.82040443 352.41701912 -30.48267782 352.41767642 C-8.56435639 352.42337883 13.3539483 352.41682321 35.27226698 352.40607569 C54.07717502 352.39714026 72.88205836 352.39869233 91.68696594 352.40791321 C113.52712759 352.4186174 135.36727457 352.42282951 157.20743847 352.41668868 C159.53654162 352.41605159 161.86564477 352.41542284 164.19474792 352.41480255 C165.3406965 352.414494 166.48664507 352.41418545 167.66731936 352.41386755 C175.74085789 352.41214106 183.81438711 352.41505473 191.88792419 352.41976166 C201.72751158 352.42537214 211.56706705 352.42385049 221.40665078 352.41320017 C226.42645667 352.40794574 231.44620937 352.40588287 236.46601486 352.41249847 C241.06261444 352.4184647 245.65911159 352.41517164 250.2557019 352.40454337 C251.9170884 352.40231221 253.57848357 352.40343925 255.23986447 352.40829495 C270.87792552 352.7808619 270.87792552 352.7808619 284.60591125 346.14717102 C290.80833271 339.90012783 293.36934784 334.15740802 293.71943665 325.26289368 C293.71158142 323.8018219 293.71158142 323.8018219 293.7035675 322.31123352 C293.69873352 320.71601868 293.69873352 320.71601868 293.69380188 319.08857727 C293.68542297 317.99416321 293.67704407 316.89974915 293.66841125 315.77217102 C293.66164368 314.09574524 293.66164368 314.09574524 293.65473938 312.38545227 C293.6430037 309.63930298 293.62658488 306.89326516 293.60591125 304.14717102 C274.29046801 303.88952185 254.97537629 303.69589997 235.65856743 303.57723713 C226.68811773 303.52066002 217.71873938 303.44361275 208.74897766 303.31733704 C200.92534187 303.20724948 193.10248233 303.13662649 185.27809346 303.11219758 C181.13959071 303.09792967 177.00330734 303.06472004 172.86552048 302.9841404 C152.66585505 301.68708598 152.66585505 301.68708598 134.93452454 309.41352844 C133.14057601 311.30809713 131.36353112 313.21885199 129.60591125 315.14717102 C104.55116094 333.56463849 71.9223265 338.34329479 41.60591125 334.65107727 C37.86072984 333.99344125 34.26511704 333.17723122 30.60591125 332.14717102 C29.37743469 331.80685852 28.14895813 331.46654602 26.883255 331.11592102 C11.6453821 326.45158764 -5.97393441 318.76056119 -16.68379211 306.5329895 C-21.73427496 302.36322221 -28.65508904 303.49698036 -34.84477234 303.57954407 C-36.32347058 303.58095544 -37.80217232 303.58016082 -39.28086853 303.57733154 C-43.28482655 303.57589942 -47.28803266 303.60525534 -51.29181623 303.64020133 C-55.47980892 303.67149926 -59.66781966 303.67439827 -63.85591125 303.68032837 C-71.78197082 303.69585677 -79.70768475 303.73687147 -87.63359225 303.78707582 C-96.65890376 303.84300067 -105.68423194 303.87046366 -114.70967364 303.89555299 C-133.27134115 303.94778835 -151.83268714 304.03571095 -170.39408875 304.14717102 Z " fill="#000000" transform="translate(194.3940887451172,135.8528289794922)"/>
<path d="M0 0 C2.98766321 1.82651899 5.73937926 3.94383185 8.375 6.25 C11.30130647 4.81357103 14.15616929 3.28061587 17 1.6875 C24.46202943 -2.48974903 32.4721951 -3.18458261 40.8984375 -1.13671875 C47.34806962 1.75669329 52.36593514 7.55633234 55.25 13.9375 C58.59541941 23.78790161 58.35757637 33.63526487 54.375 43.25 C50.00969473 51.21058153 43.8096584 56.8687515 36.94921875 62.6796875 C34.6746824 64.78530319 32.9175653 66.55742996 31.375 69.25 C31.28351386 73.15457252 32.29843342 76.52390672 33.375 80.25 C34.59375839 94.39326594 31.76462419 106.73119318 23.375 118.25 C19.19109445 123.07181336 14.56553864 127.48243763 10 131.9375 C8.79339713 133.13258206 7.58766196 134.32854084 6.3828125 135.52539062 C1.17531789 140.67844215 -4.06783545 145.71710189 -9.64013672 150.47680664 C-14.63274646 154.93699416 -19.24293623 159.82159589 -23.94140625 164.58691406 C-25.33132591 165.99482315 -26.72420977 167.39980398 -28.1171875 168.8046875 C-28.93558105 169.63468262 -29.75397461 170.46467773 -30.59716797 171.31982422 C-33.68331336 174.25734715 -36.14580875 174.78572002 -40.43603516 174.71289062 C-43.12695885 174.143853 -44.25685362 173.19989311 -46.2734375 171.34375 C-46.96614746 170.70759766 -47.65885742 170.07144531 -48.37255859 169.41601562 C-53.40548499 164.57620174 -58.30341906 159.60675641 -63.203125 154.6328125 C-67.50936733 150.28694217 -71.86328077 146.10797395 -76.50341797 142.12255859 C-80.55112044 138.54996044 -84.40253982 134.77426145 -88.2434082 130.98168945 C-89.20258706 130.03905096 -90.16709728 129.10180549 -91.13696289 128.17016602 C-103.11179442 116.66128124 -110.49751079 104.61353794 -111 87.75 C-110.64084896 75.22460748 -106.87129516 64.73533243 -98.375 55.4375 C-89.91389307 47.44855306 -80.09744776 45.77711714 -68.9296875 45.9765625 C-58.24247991 46.44404105 -48.94579105 52.80463112 -41.5 60.1875 C-40.88125 60.868125 -40.2625 61.54875 -39.625 62.25 C-36.63279732 60.88629701 -34.33473471 59.30091917 -31.875 57.125 C-31.26140625 56.58617187 -30.6478125 56.04734375 -30.015625 55.4921875 C-29.55671875 55.08226562 -29.0978125 54.67234375 -28.625 54.25 C-29.09550781 53.54875 -29.56601562 52.8475 -30.05078125 52.125 C-37.26987972 41.12446899 -39.87658342 33.69029924 -38.625 20.25 C-36.79960357 12.15523608 -32.30396619 6.04897713 -25.921875 0.8671875 C-18.75281133 -3.59009991 -7.51458204 -3.60014196 0 0 Z M24.375 17.25 C22.22222256 19.46018484 20.19828619 21.73723528 18.20703125 24.09375 C13.88162904 29.18462851 13.88162904 29.18462851 9.5 29.75 C6.25137045 29.60798341 5.49350611 29.34249257 2.8125 27.25 C2.008125 26.26 1.20375 25.27 0.375 24.25 C-0.84868796 22.82859826 -2.07814224 21.41214591 -3.3125 20 C-3.89386719 19.31421875 -4.47523438 18.6284375 -5.07421875 17.921875 C-7.40881175 15.4049838 -8.50366135 15.26123506 -12 14.9375 C-15.62299858 14.92558093 -15.62299858 14.92558093 -17.9375 17 C-20.56861912 20.50815883 -21.91420464 23.19888231 -21.9375 27.625 C-21.95425781 28.35460938 -21.97101563 29.08421875 -21.98828125 29.8359375 C-21.01505723 36.30316805 -16.90118238 40.3872793 -12.42578125 44.7421875 C-11.83073288 45.33299103 -11.23568451 45.92379456 -10.62260437 46.53250122 C-8.73453904 48.40387529 -6.83627711 50.26450178 -4.9375 52.125 C-3.64970089 53.39773998 -2.36258398 54.67117063 -1.07617188 55.9453125 C2.06638083 59.05492278 5.21811678 62.15494185 8.375 65.25 C12.38015134 63.63518307 15.12142034 60.82656485 18.12890625 57.83203125 C18.67103256 57.29656174 19.21315887 56.76109222 19.77171326 56.20939636 C20.9148083 55.076406 22.05522225 53.94070506 23.19311523 52.80249023 C24.92471545 51.07525235 26.67164785 49.36463456 28.41992188 47.65429688 C29.5322302 46.54785952 30.6435898 45.44046744 31.75390625 44.33203125 C32.27271866 43.82758987 32.79153107 43.3231485 33.32606506 42.80342102 C37.75502604 38.31854379 40.01261678 34.09729675 40.8125 27.8125 C40.26289905 23.33717795 39.1018113 19.86891624 36.375 16.25 C31.51661539 13.39833947 28.8771463 14.09849759 24.375 17.25 Z M-85.375 66.875 C-91.63584954 73.48367452 -93.98436691 80.89423878 -93.8359375 89.859375 C-92.69950031 102.7389965 -83.67525005 112.16299287 -74.25390625 120.09765625 C-70.36369995 123.48925612 -66.73331244 127.09577567 -63.11328125 130.76953125 C-62.53282043 131.35784729 -61.95235962 131.94616333 -61.35430908 132.55230713 C-58.93060496 135.01262235 -56.50986853 137.47569499 -54.09838867 139.94799805 C-52.31843775 141.7702891 -50.52915723 143.5829846 -48.73828125 145.39453125 C-48.19859207 145.95284134 -47.65890289 146.51115143 -47.1028595 147.08638 C-44.14936574 150.05970849 -41.66546595 152.04042189 -37.625 153.25 C-29.38031161 146.06093333 -21.68592235 138.39975249 -14 130.625 C-11.65669062 128.25477076 -9.31106607 125.88690666 -6.9609375 123.5234375 C-6.12537575 122.68297379 -6.12537575 122.68297379 -5.27293396 121.82553101 C-1.69587047 118.2525178 2.00516639 114.89038417 5.85449219 111.61083984 C11.85922281 106.23666379 15.94857119 97.93571743 16.55078125 89.90625 C16.56074411 88.01994939 16.47773784 86.13352706 16.375 84.25 C14.89 84.745 14.89 84.745 13.375 85.25 C6.83561871 86.13669577 6.83561871 86.13669577 3.49609375 84.109375 C1.33761689 82.25281453 -0.63670547 80.28901633 -2.625 78.25 C-3.68067499 77.20279481 -4.73809078 76.15734273 -5.796875 75.11328125 C-8.76142795 72.18002563 -11.6980989 69.22080462 -14.625 66.25 C-18.58347917 68.4207789 -21.57153387 70.92709371 -24.75 74.125 C-25.59820312 74.96804687 -26.44640625 75.81109375 -27.3203125 76.6796875 C-29.48163199 79.09010822 -30.99019218 81.47372873 -32.625 84.25 C-35.75442465 85.81471233 -39.23582223 85.94701958 -42.625 85.25 C-45.50450819 82.80678093 -47.58041011 80.00654299 -49.75 76.9375 C-55.65154043 69.28315163 -63.24073328 64.49452849 -72.625 62.25 C-76.89399871 62.25 -81.80133042 64.76328616 -85.375 66.875 Z " fill="#000000" transform="translate(446.625,9.75)"/>
<path d="M0 0 C18.38674221 14.65927658 30.80537007 34.33196328 34.29296875 57.828125 C35.19768718 72.21127615 35.08496085 86.1457265 30.29296875 99.828125 C29.94234375 100.86453125 29.59171875 101.9009375 29.23046875 102.96875 C20.42847957 126.31847131 2.68196955 142.84358844 -19.72460938 152.98681641 C-39.11865108 161.21734199 -62.85397061 161.78127066 -82.70703125 154.828125 C-83.7434375 154.4775 -84.77984375 154.126875 -85.84765625 153.765625 C-109.19522713 144.96444645 -125.72129533 127.21878808 -135.86572266 104.81494141 C-143.95510015 85.71124029 -145.19845143 61.27653505 -137.70703125 41.828125 C-137.32160156 40.76980469 -136.93617188 39.71148437 -136.5390625 38.62109375 C-127.78117649 16.08866857 -110.94341711 -1.1090737 -88.89453125 -10.921875 C-86.84481456 -11.70613755 -84.78126064 -12.45495193 -82.70703125 -13.171875 C-81.02673828 -13.76162109 -81.02673828 -13.76162109 -79.3125 -14.36328125 C-51.93036987 -22.59225648 -22.73490585 -16.90837219 0 0 Z M-105.08203125 20.578125 C-114.73980134 30.48855094 -119.98416162 41.67824643 -123.70703125 54.828125 C-123.88588867 55.45348145 -124.06474609 56.07883789 -124.24902344 56.72314453 C-128.07719486 74.31722449 -123.81502296 93.65543689 -114.70703125 108.828125 C-103.46062946 125.61662383 -87.6104088 136.70131222 -67.95654297 141.43115234 C-49.96988634 144.60526822 -31.25394692 141.31808478 -15.70703125 131.828125 C-12.18223302 129.35512246 -8.91981848 126.69240649 -5.70703125 123.828125 C-5.00835937 123.21195312 -4.3096875 122.59578125 -3.58984375 121.9609375 C8.98684958 110.16722897 16.81905371 93.73067562 17.6640625 76.48046875 C17.92280163 64.32606622 16.99724078 54.068996 12.29296875 42.828125 C11.90882813 41.88839844 11.5246875 40.94867188 11.12890625 39.98046875 C8.17958414 33.48995376 3.98745914 28.15309141 -0.70703125 22.828125 C-1.38636719 22.05339844 -2.06570313 21.27867187 -2.765625 20.48046875 C-16.53395594 5.75214409 -34.26180192 0.48566999 -53.70703125 -1.171875 C-73.29058649 -1.171875 -91.25482066 7.10252815 -105.08203125 20.578125 Z " fill="#000000" transform="translate(309.70703125,281.171875)"/>
</svg>
