<?xml version="1.0" encoding="UTF-8"?>
<svg version="1.1" xmlns="http://www.w3.org/2000/svg" width="512" height="512">
<path d="M0 0 C4.89169499 3.95381362 8.76628941 8.44792471 10.703125 14.4921875 C10.81618121 16.47067123 10.92602257 18.44972562 10.98950195 20.43041992 C11.34185767 29.12477308 13.51108193 33.54947182 19.890625 39.5546875 C21.89646994 41.38412185 23.92186653 43.18351083 25.97558594 44.95898438 C28.01212111 46.76642373 29.78007705 48.70861509 31.515625 50.8046875 C34.88031554 54.79214852 38.59141896 58.39385537 42.30078125 62.05859375 C44.34026873 64.12461115 46.258203 66.22224299 48.140625 68.4296875 C51.00484835 71.78143823 54.06646216 74.89775506 57.203125 77.9921875 C60.94342838 81.68213338 64.4855185 85.46722448 67.89453125 89.46484375 C70.87840504 92.80961804 74.10932232 95.90553907 77.296875 99.0546875 C79.95272253 101.74502656 82.40447932 104.55792275 84.859375 107.4296875 C87.05108813 109.88143439 89.36379604 112.18104323 91.703125 114.4921875 C95.26712802 118.01325073 98.60616668 121.62404758 101.859375 125.4296875 C104.05108813 127.88143439 106.36379604 130.18104323 108.703125 132.4921875 C111.65495525 135.40845353 114.50701359 138.33824585 117.203125 141.4921875 C117.72712891 142.08527206 118.25113281 142.67835663 118.79101562 143.28941345 C120.13221401 144.83449086 121.42783966 146.41975294 122.6875 148.03199768 C126.14747343 152.06687012 128.91083192 155.02663316 134.15429688 156.38864136 C138.20560488 156.69294232 142.14734997 156.69675252 146.203125 156.58203125 C147.68944846 156.57819058 149.17579162 156.57922387 150.66210938 156.58485413 C154.55233267 156.58864526 158.43955222 156.53569666 162.32910156 156.4675293 C168.55070392 156.36835731 174.77309786 156.35787 180.99536133 156.34475899 C183.1505048 156.3323346 185.30420062 156.29645875 187.45898438 156.2563324 C202.62019771 156.0617591 213.43726809 160.30255385 224.515625 170.8046875 C234.06023226 180.87860213 238.17659329 191.97607891 238.10717773 205.74365234 C238.11747261 207.19924057 238.11747261 207.19924057 238.12797546 208.68423462 C238.14611904 211.8573513 238.14242665 215.02996815 238.13671875 218.203125 C238.14128377 220.42127644 238.14659029 222.63942647 238.15260315 224.85757446 C238.16150764 229.48893003 238.15913818 234.12011287 238.14916992 238.75146484 C238.13763368 244.69007953 238.1579766 250.6281037 238.18708706 256.56664085 C238.20540709 261.13908676 238.20516583 265.71138968 238.19944954 270.28386307 C238.19929608 272.47435973 238.20536085 274.66486593 238.21774101 276.85532761 C238.2325842 279.90963055 238.22202592 282.96282221 238.20483398 286.01708984 C238.21450195 286.92207214 238.22416992 287.82705444 238.23413086 288.75946045 C238.16225821 294.84350062 238.16225821 294.84350062 235.89051819 298.0531311 C232.66744311 300.17354861 230.47123227 300.03048854 226.703125 299.4921875 C224.51651001 297.99476624 224.51651001 297.99476624 222.703125 295.4921875 C222.31042954 292.52186654 222.15900079 289.92041546 222.18896484 286.95092773 C222.17827721 285.65982338 222.17827721 285.65982338 222.16737366 284.34263611 C222.14806733 281.49511868 222.15638084 278.64834264 222.1640625 275.80078125 C222.1541534 273.81501687 222.14221135 271.82926168 222.12832642 269.84352112 C222.09591783 264.60834873 222.08557035 259.37338538 222.08148193 254.13812256 C222.07274129 245.78413171 222.03695461 237.43031344 221.9893074 229.0764637 C221.97680717 226.1701668 221.97747389 223.26409093 221.97958374 220.35777283 C221.95298332 207.42333196 221.65622381 196.74640191 214.703125 185.4921875 C214.25453125 184.43837891 214.25453125 184.43837891 213.796875 183.36328125 C212.40373942 180.98002431 211.23069411 180.54196219 208.703125 179.4921875 C207.47916016 178.87150391 207.47916016 178.87150391 206.23046875 178.23828125 C205.37582031 177.80644531 204.52117187 177.37460938 203.640625 176.9296875 C202.35478516 176.27806641 202.35478516 176.27806641 201.04296875 175.61328125 C196.73420229 173.54881385 193.4300984 173.3637325 188.68326664 173.35517311 C187.96077633 173.35252128 187.23828602 173.34986946 186.49390206 173.34713727 C184.05411369 173.33943049 181.61437554 173.33888457 179.17457581 173.33828735 C177.41512341 173.33427362 175.65567193 173.32983555 173.89622158 173.3250078 C169.04629407 173.31302616 164.19637651 173.30739015 159.3464371 173.30282664 C154.12125597 173.29687644 148.89608678 173.28526502 143.6709137 173.27453613 C131.04315221 173.24999684 118.41538677 173.23538174 105.78760877 173.22247607 C102.22137618 173.21876493 98.65514398 173.21479162 95.08891177 173.2107234 C72.94783366 173.18548519 50.80675495 173.16342983 28.66566563 173.15099525 C23.5353298 173.1480655 18.40499399 173.14510385 13.2746582 173.14208984 C11.99951931 173.14134379 10.72438042 173.14059774 9.41060095 173.13982908 C-11.2416957 173.12717797 -31.89390621 173.0939593 -52.5461626 173.05228801 C-73.74534873 173.0098636 -94.94449078 172.98629953 -116.14371926 172.98107469 C-128.04785665 172.97766091 -139.9518595 172.96590968 -151.85595512 172.93297195 C-161.99536847 172.90496324 -172.13461968 172.89397573 -182.27406871 172.90516742 C-187.44621133 172.91035211 -192.61801447 172.9074793 -197.79010773 172.88270187 C-202.52973988 172.86018613 -207.26878915 172.86096745 -212.00843168 172.87990575 C-213.71851184 172.8827025 -215.42863172 172.87712533 -217.13864809 172.86209281 C-226.95717087 172.78109199 -235.59992559 173.32203862 -244.296875 178.4921875 C-245.30491062 179.48408678 -246.30718406 180.48198364 -247.296875 181.4921875 C-247.956875 181.4921875 -248.616875 181.4921875 -249.296875 181.4921875 C-249.5753125 182.05679688 -249.85375 182.62140625 -250.140625 183.203125 C-250.90741303 184.72115806 -251.69904048 186.22691289 -252.515625 187.71875 C-252.9384375 188.51023438 -253.36125 189.30171875 -253.796875 190.1171875 C-254.2196875 190.89320313 -254.6425 191.66921875 -255.078125 192.46875 C-257.97897171 199.66508126 -258.59191745 207.13641525 -258.55224609 214.82568359 C-258.55767677 216.13496826 -258.55767677 216.13496826 -258.56321716 217.47070312 C-258.57005465 219.34541156 -258.57262733 221.22013966 -258.57126999 223.09486008 C-258.57029712 226.06253095 -258.58333253 229.02984722 -258.60025024 231.99746704 C-258.64632021 240.42748392 -258.67115785 248.85745895 -258.67773438 257.28759766 C-258.68274096 262.46046192 -258.70693264 267.63294715 -258.74306107 272.80568314 C-258.75286487 274.77286126 -258.75518785 276.74009142 -258.74988937 278.70728683 C-258.74284003 281.45029306 -258.76005169 284.19216016 -258.78271484 286.93505859 C-258.77454239 287.74653351 -258.76636993 288.55800842 -258.75794983 289.39407349 C-258.81032988 292.95017431 -258.99638645 295.07733115 -261.11026001 297.99575806 C-264.32234616 300.19397782 -266.49912067 300.03472383 -270.296875 299.4921875 C-272.48426819 298.0531311 -272.48426819 298.0531311 -274.296875 295.4921875 C-274.89002487 292.33610297 -274.83280512 289.2204019 -274.79858398 286.01708984 C-274.80398697 285.05721161 -274.80938995 284.09733337 -274.81495667 283.10836792 C-274.82747451 279.93130757 -274.81092482 276.7551485 -274.79296875 273.578125 C-274.79312374 271.36577304 -274.79461276 269.1534208 -274.79737854 266.94107056 C-274.79876417 262.29897081 -274.78618283 257.65717939 -274.76342773 253.01513672 C-274.73514239 247.08373009 -274.73775134 241.1528397 -274.75051785 235.22139549 C-274.757499 230.64868824 -274.74965627 226.07609874 -274.73726082 221.50340652 C-274.73276295 219.31788206 -274.73239488 217.13234486 -274.73632622 214.94681931 C-274.73925973 211.87883733 -274.7226259 208.81154664 -274.70092773 205.74365234 C-274.70542938 204.85081543 -274.70993103 203.95797852 -274.71456909 203.03808594 C-274.55937933 189.7296366 -269.05532186 179.24833233 -259.984375 169.6796875 C-249.43095537 159.68076958 -238.60115596 156.06000694 -224.20663452 156.41023254 C-223.18132189 156.444196 -223.18132189 156.444196 -222.13529587 156.4788456 C-218.4335009 156.5904191 -214.73046758 156.61314272 -211.02734375 156.65429688 C-206.35194873 156.71339644 -201.6802898 156.79673019 -197.00732422 156.96166992 C-176.93728975 158.32155796 -176.93728975 158.32155796 -159.57290649 150.06718445 C-157.09961473 147.38221046 -154.89085331 144.61927957 -152.81036377 141.62069702 C-148.89158711 136.10948769 -144.13205102 131.20012205 -139.296875 126.4921875 C-136.34504475 123.57592147 -133.49298641 120.64612915 -130.796875 117.4921875 C-127.31235393 113.41595531 -123.51605519 109.69667877 -119.703125 105.9296875 C-117.64238155 103.84218115 -115.70171874 101.72049527 -113.796875 99.4921875 C-111.10076359 96.33824585 -108.24870525 93.40845353 -105.296875 90.4921875 C-102.36569309 87.59626792 -99.53284326 84.68976179 -96.859375 81.5546875 C-93.55341382 77.68600952 -89.96542822 74.13154445 -86.34619141 70.56103516 C-83.09703327 67.33868341 -80.07251166 63.99886934 -77.10546875 60.51953125 C-74.1228161 57.1761258 -70.89330808 54.0814238 -67.70703125 50.93359375 C-65.02697693 48.21878994 -62.54101164 45.39611135 -60.09765625 42.46875 C-58.296875 40.4921875 -58.296875 40.4921875 -55.90234375 38.453125 C-50.97787352 34.24597069 -50.97787352 34.24597069 -48.64453125 28.3828125 C-48.53745884 26.15779554 -48.46996277 23.9305337 -48.44140625 21.703125 C-48.09744091 14.06151663 -44.52044538 7.75246022 -39.36328125 2.25 C-27.87393659 -7.52354461 -12.54462131 -8.23507453 0 0 Z M-27.296875 13.4921875 C-31.19366285 17.81024972 -32.67054626 20.49035006 -32.57421875 26.3984375 C-31.94542552 31.14538358 -29.02465958 33.86364627 -25.546875 36.8671875 C-21.55933131 38.86095935 -18.66716328 39.348764 -14.296875 38.4921875 C-9.49921634 36.09335817 -6.731626 33.26804524 -4.296875 28.4921875 C-3.64394476 23.26874558 -4.451767 19.90701026 -7.296875 15.4921875 C-10.81527649 11.66333883 -14.05392307 10.7372432 -19.0859375 10.39453125 C-22.47267585 10.54412217 -24.53735264 11.56693934 -27.296875 13.4921875 Z M-40.296875 45.4921875 C-46.23233146 51.33992786 -52.12127296 57.14916266 -57.5234375 63.5 C-60.49259347 66.83539547 -63.71505843 69.91738077 -66.890625 73.0546875 C-68.95136845 75.14219385 -70.89203126 77.26387973 -72.796875 79.4921875 C-76.28139607 83.56841969 -80.07769481 87.28769623 -83.890625 91.0546875 C-85.95136845 93.14219385 -87.89203126 95.26387973 -89.796875 97.4921875 C-93.28139607 101.56841969 -97.07769481 105.28769623 -100.890625 109.0546875 C-102.95136845 111.14219385 -104.89203126 113.26387973 -106.796875 115.4921875 C-110.28139607 119.56841969 -114.07769481 123.28769623 -117.890625 127.0546875 C-119.95136845 129.14219385 -121.89203126 131.26387973 -123.796875 133.4921875 C-126.49298641 136.64612915 -129.34504475 139.57592147 -132.296875 142.4921875 C-136.49394642 146.64433614 -140.63660577 150.85019043 -144.296875 155.4921875 C-144.296875 155.8221875 -144.296875 156.1521875 -144.296875 156.4921875 C-61.136875 156.4921875 22.023125 156.4921875 107.703125 156.4921875 C105.723125 154.1821875 103.743125 151.8721875 101.703125 149.4921875 C101.12046875 148.80511719 100.5378125 148.11804688 99.9375 147.41015625 C95.88112701 142.68127932 91.54018125 138.30711054 87.109375 133.9296875 C84.45352747 131.23934844 82.00177068 128.42645225 79.546875 125.5546875 C77.35516187 123.10294061 75.04245396 120.80333177 72.703125 118.4921875 C69.13912198 114.97112427 65.80008332 111.36032742 62.546875 107.5546875 C60.35516187 105.10294061 58.04245396 102.80333177 55.703125 100.4921875 C52.13912198 96.97112427 48.80008332 93.36032742 45.546875 89.5546875 C43.35516187 87.10294061 41.04245396 84.80333177 38.703125 82.4921875 C35.13912198 78.97112427 31.80008332 75.36032742 28.546875 71.5546875 C25.5526284 68.2051913 22.31860538 65.09928766 19.12109375 61.9453125 C16.98389883 59.77704366 14.98528824 57.56152129 13.015625 55.2421875 C9.87628481 51.56467471 6.44666264 48.5481366 2.703125 45.4921875 C2.19523438 45.90210938 1.68734375 46.31203125 1.1640625 46.734375 C0.13152344 47.54261719 0.13152344 47.54261719 -0.921875 48.3671875 C-1.59476563 48.90085938 -2.26765625 49.43453125 -2.9609375 49.984375 C-9.81406234 54.40796394 -17.41580541 54.21749357 -25.296875 53.4921875 C-30.97327423 51.89852404 -35.44576503 48.77219936 -40.296875 45.4921875 Z " fill="#000000" transform="translate(274.296875,26.5078125)"/>
<path d="M0 0 C1.9904399 1.54342019 2.88435101 2.41829014 3.38031673 4.91297817 C3.38274663 5.6394357 3.38517653 6.36589323 3.38768005 7.11436462 C3.402537 8.36928207 3.402537 8.36928207 3.41769409 9.64955139 C3.41319244 10.56433762 3.4086908 11.47912384 3.40405273 12.42163086 C3.41434761 13.87104065 3.41434761 13.87104065 3.42485046 15.34973145 C3.44319819 18.55491716 3.43926641 21.75961658 3.43359375 24.96484375 C3.43815478 27.19625508 3.44346012 29.427665 3.44947815 31.65907288 C3.45842719 36.34577114 3.45596929 41.03229923 3.44604492 45.71899414 C3.43460813 51.70074236 3.45467641 57.6818956 3.48396206 63.66356564 C3.50239681 68.27838329 3.50201617 72.89306068 3.49632454 77.50790596 C3.49617192 79.71132804 3.50216698 81.91475998 3.51461601 84.1181469 C3.60045756 101.81841679 2.12133792 115.70259112 -10.21875 129.4765625 C-20.12049156 139.08896746 -32.87264084 144.24224245 -46.63230419 144.25726891 C-47.36026413 144.26077498 -48.08822407 144.26428105 -48.8382434 144.26789337 C-51.26660395 144.27716401 -53.6947224 144.27229535 -56.12309265 144.26742554 C-57.88614862 144.27116399 -59.64920294 144.27576629 -61.41225463 144.28115618 C-66.24897451 144.29337756 -71.08562517 144.29312672 -75.92235696 144.29076743 C-81.14202016 144.29035905 -86.36166122 144.30140052 -91.58131409 144.31088257 C-101.80487311 144.32748902 -112.02840907 144.33299196 -122.25198045 144.33410732 C-130.56356233 144.335058 -138.8751366 144.33916929 -147.18671608 144.34550858 C-170.75806329 144.36312032 -194.32939229 144.3723476 -217.90074613 144.37084763 C-219.17124161 144.37076772 -220.44173708 144.3706878 -221.75073242 144.37060547 C-223.0227815 144.37052371 -224.29483057 144.37044195 -225.60542659 144.37035771 C-246.21791992 144.36954491 -266.83034016 144.38868112 -287.44281235 144.4168822 C-308.61391592 144.44561871 -329.78498386 144.45942206 -350.95610744 144.45769465 C-362.83949515 144.457031 -374.72280624 144.46251251 -386.60617638 144.48405075 C-396.72457103 144.50227264 -406.84285434 144.50660157 -416.96125831 144.4930319 C-422.12135636 144.4865073 -427.28124085 144.48636685 -432.44131851 144.5037384 C-437.17087426 144.51949647 -441.90004761 144.51657753 -446.62959418 144.49917014 C-448.33482578 144.49610626 -450.04008611 144.4997094 -451.7452838 144.51089029 C-468.63051384 144.61421766 -483.19396607 141.09606827 -495.86328125 129.2890625 C-509.19554633 115.00623373 -509.60131365 99.49112368 -509.49609375 81.05859375 C-509.49624892 78.8409063 -509.49774082 76.62321857 -509.50050354 74.40553284 C-509.5018815 69.78186912 -509.48942157 65.15851791 -509.46655273 60.53491211 C-509.43801989 54.60304709 -509.44095402 48.67169481 -509.45364285 42.73979092 C-509.46058438 38.17167251 -509.4528307 33.60367333 -509.44038582 29.03557014 C-509.43586699 26.84705118 -509.43553827 24.65851945 -509.43945122 22.46999931 C-509.4423522 19.42300801 -509.42591496 16.37673465 -509.40405273 13.32983398 C-509.40855438 12.4243985 -509.41305603 11.51896301 -509.41769409 10.58609009 C-509.40778946 9.75789261 -509.39788483 8.92969513 -509.38768005 8.07640076 C-509.38525016 7.35731757 -509.38282026 6.63823439 -509.38031673 5.8973608 C-508.88328366 3.41771425 -507.9685595 2.54576907 -506 1 C-502.31003991 -0.12303133 -500.69011278 -0.33738847 -497.1875 1.375 C-495 3 -495 3 -494 4 C-493.8854094 6.74126043 -493.83514861 9.45834697 -493.82641602 12.20068359 C-493.819729 13.06098175 -493.81304199 13.92127991 -493.80615234 14.80764771 C-493.79206234 16.68413224 -493.78018101 18.56063432 -493.77020454 20.43714523 C-493.75381869 23.41434725 -493.730576 26.39142174 -493.70530701 29.36856079 C-493.63450596 37.83662554 -493.57470824 46.30474579 -493.52319336 54.77294922 C-493.49122621 59.94835405 -493.44989285 65.12361821 -493.40299797 70.29890823 C-493.3870668 72.26587997 -493.37470467 74.23288419 -493.36609077 76.19990158 C-493.63052406 98.37184156 -493.63052406 98.37184156 -483.60546875 117.5546875 C-475.75901499 124.618405 -466.83409524 127.24740984 -456.4530201 127.25447559 C-455.37492737 127.25928531 -455.37492737 127.25928531 -454.27505499 127.26419219 C-451.87812173 127.27246217 -449.48144031 127.26657854 -447.08450317 127.26069641 C-445.34405824 127.26371846 -443.60361463 127.26760822 -441.86317337 127.27228898 C-437.08906721 127.28257073 -432.31503615 127.28038669 -427.54092383 127.27610838 C-422.38880589 127.2736415 -417.23670604 127.28265486 -412.08459473 127.29014587 C-401.99438843 127.30289586 -391.90420873 127.30468619 -381.81399573 127.30234561 C-373.61251427 127.30056265 -365.41104089 127.30231162 -357.20956039 127.30657005 C-355.45871345 127.30746284 -355.45871345 127.30746284 -353.67249586 127.30837366 C-351.30127145 127.30958541 -348.93004703 127.31079954 -346.55882262 127.31201603 C-324.32095872 127.3228927 -302.08310998 127.32072846 -279.84524523 127.31463119 C-259.50233161 127.30946175 -239.15946586 127.32071796 -218.81656171 127.33972941 C-197.92684639 127.35910218 -177.03715372 127.3673648 -156.14742935 127.36360615 C-144.42008951 127.36169328 -132.69279043 127.3641901 -120.96545792 127.37832069 C-110.98203573 127.39022828 -100.99867938 127.39164632 -91.0152563 127.37953053 C-85.92239891 127.37363755 -80.82966199 127.37255407 -75.73681259 127.38453293 C-71.07223194 127.3953769 -66.40787257 127.39230599 -61.74330233 127.37827124 C-60.05831423 127.37562024 -58.37330887 127.37800352 -56.6883377 127.38600711 C-44.16362773 127.44135711 -32.79459204 126.68816591 -23 118 C-14.32093196 107.81368923 -12.85878536 97.72611626 -12.84228516 84.78588867 C-12.83720444 83.90196442 -12.83212372 83.01804016 -12.82688904 82.10733032 C-12.81625024 80.20257215 -12.80760505 78.29780198 -12.80076981 76.39302635 C-12.78891172 73.37965369 -12.76944662 70.36641992 -12.74765015 67.35310364 C-12.68622871 58.79086891 -12.63184153 50.2286544 -12.59863281 41.66625977 C-12.57773497 36.41793055 -12.54248721 31.16986506 -12.49787521 25.92168617 C-12.48369356 23.92298791 -12.47498791 21.92424312 -12.47182083 19.92549706 C-12.46693337 17.1390942 -12.44383715 14.35339867 -12.41650391 11.56713867 C-12.41951004 10.73957565 -12.42251617 9.91201263 -12.4256134 9.05937195 C-12.34324867 3.42940815 -12.34324867 3.42940815 -10.66300011 1.32739735 C-7.09311042 -1.52206855 -4.21256925 -1.05314231 0 0 Z " fill="#000000" transform="translate(509,347)"/>
<path d="M0 0 C7.97884113 4.93928261 12.02893804 10.29792073 14.7109375 19.25 C17.46440219 32.76237299 12.47116874 46.11028486 5.1328125 57.3203125 C2.30555155 61.15767207 -0.69147175 64.76791514 -3.8671875 68.3203125 C-4.34671875 68.91457031 -4.82625 69.50882812 -5.3203125 70.12109375 C-8.37117189 73.38330786 -11.44969453 73.70459718 -15.6796875 73.8828125 C-31.3054203 73.20652794 -48.62458191 68.45638129 -60.18359375 57.39453125 C-66.19417048 49.98938916 -69.48823141 41.58272394 -68.67578125 32.08203125 C-67.51864122 25.02956728 -64.16700683 19.12815876 -58.71875 14.4921875 C-51.72858378 9.57759965 -45.3362829 7.88968053 -36.8671875 8.3203125 C-36.2071875 8.6503125 -35.5471875 8.9803125 -34.8671875 9.3203125 C-34.6403125 8.7428125 -34.4134375 8.1653125 -34.1796875 7.5703125 C-27.5874199 -3.73071768 -10.77516932 -5.52275704 0 0 Z M-20.8671875 16.3203125 C-21.91457612 17.83018441 -22.91150085 19.37579056 -23.8671875 20.9453125 C-26.53088325 25.17831737 -26.53088325 25.17831737 -29.6796875 26.5078125 C-32.45871159 26.34434049 -34.63708026 25.89612457 -37.3046875 25.1953125 C-42.22771536 23.96663101 -44.53372903 24.72023742 -48.8671875 27.3203125 C-51.58766331 30.04078831 -52.68819247 32.47191941 -52.8671875 36.3203125 C-50.45583193 43.42746575 -47.18478509 48.09067787 -40.4296875 51.4453125 C-33.25702996 54.85584084 -23.95692764 58.46836143 -15.8671875 57.3203125 C-7.9365669 50.41349071 -1.41257986 38.54676131 -0.6171875 28.0078125 C-0.90716483 23.73064681 -1.75524544 21.05141014 -3.8671875 17.3203125 C-6.70100777 14.91772575 -8.69875095 13.5247889 -12.3671875 12.8828125 C-15.85041527 13.49237736 -17.89948614 14.32165648 -20.8671875 16.3203125 Z " fill="#000000" transform="translate(105.8671875,233.6796875)"/>
<path d="M0 0 C3.49753954 1.94439486 6.67976448 4.23912067 9.3046875 7.28125 C9.3046875 7.94125 9.3046875 8.60125 9.3046875 9.28125 C9.9646875 8.95125 10.6246875 8.62125 11.3046875 8.28125 C20.24881852 7.65359168 27.51755283 9.87482382 34.515625 15.5625 C40.51602719 21.32707852 42.83259933 28.04849288 43.3046875 36.28125 C42.86613176 45.60409618 38.4041984 53.62276171 31.7421875 60.03125 C19.99400845 69.45195961 2.12924513 74.45604553 -12.90234375 73.83984375 C-17.94486684 72.83133913 -20.50321285 70.15643271 -23.6953125 66.28125 C-24.44554687 65.39695312 -25.19578125 64.51265625 -25.96875 63.6015625 C-35.8606564 51.21203189 -42.29983627 37.3467981 -40.6953125 21.28125 C-38.98964118 13.61083587 -35.70199081 7.41599114 -29.6953125 2.28125 C-20.23348398 -3.70196509 -10.29386531 -4.6042848 0 0 Z M-21.6953125 17.28125 C-24.87059724 22.89091971 -25.62206449 27.43831842 -24.109375 33.7109375 C-21.37057322 42.37962203 -16.14421265 50.83234985 -9.6953125 57.28125 C1.63351643 57.89032682 13.72313274 53.60829781 22.3046875 46.28125 C25.13113457 42.81885233 27.19406101 39.81693602 27.3046875 35.28125 C26.10141783 30.99460179 24.78458528 28.20904383 21.0546875 25.78125 C16.10365612 23.33693829 11.83480286 24.91191181 6.6796875 26.15625 C3.3046875 26.28125 3.3046875 26.28125 0.6171875 24.21875 C-1.6953125 21.28125 -1.6953125 21.28125 -3.6953125 18.09375 C-5.91486635 14.97250241 -7.02705536 14.17594686 -10.6953125 13.28125 C-15.48351768 12.54460305 -18.06677991 14.20488542 -21.6953125 17.28125 Z " fill="#000000" transform="translate(431.6953125,233.71875)"/>
<path d="M0 0 C3.79925795 2.64823251 5.95657501 5.12671321 8.11328125 9.203125 C8.63857422 10.1828125 9.16386719 11.1625 9.70507812 12.171875 C10.23552734 13.18765625 10.76597656 14.2034375 11.3125 15.25 C12.13717773 16.796875 12.13717773 16.796875 12.97851562 18.375 C14.32901016 20.91158103 15.6690311 23.45313523 17 26 C17.66 26 18.32 26 19 26 C19.27674561 25.45585449 19.55349121 24.91170898 19.83862305 24.35107422 C21.11374887 21.85495902 22.40050542 19.36501504 23.6875 16.875 C24.12255859 16.0190625 24.55761719 15.163125 25.00585938 14.28125 C31.16619318 2.41690341 31.16619318 2.41690341 36 0 C43.31444368 -0.46440912 43.31444368 -0.46440912 45.9375 1.3125 C48.2008281 4.90719757 48.13635468 8.12642261 48.16113281 12.25976562 C48.17074036 13.55120483 48.1803479 14.84264404 48.19024658 16.17321777 C48.19509345 17.58422672 48.19937255 18.99523772 48.203125 20.40625 C48.20887763 21.85209149 48.21463535 23.29793296 48.22039795 24.74377441 C48.23089708 27.77335973 48.2367474 30.80291858 48.24023438 33.83251953 C48.24572822 37.71656573 48.26977936 41.60026298 48.29820633 45.48419952 C48.31681495 48.46959463 48.32203726 51.45490519 48.32357025 54.44035339 C48.32659948 55.87251196 48.33463714 57.30466894 48.34775543 58.73677063 C48.36478286 60.73785487 48.36109567 62.7390831 48.35644531 64.74023438 C48.36191376 66.44874573 48.36191376 66.44874573 48.36749268 68.19177246 C48 71 48 71 46.61468506 72.86853027 C44.46594101 74.37423495 43.04092164 74.36825697 40.4375 74.3125 C39.25994141 74.30669922 39.25994141 74.30669922 38.05859375 74.30078125 C36 74 36 74 34 72 C33.7215271 70.16500854 33.7215271 70.16500854 33.68115234 67.91748047 C33.66128265 67.07675995 33.64141296 66.23603943 33.62094116 65.36984253 C33.60938995 64.46146637 33.59783875 63.55309021 33.5859375 62.6171875 C33.56657135 61.68778351 33.5472052 60.75837952 33.5272522 59.80081177 C33.46736315 56.8256352 33.4210339 53.85042012 33.375 50.875 C33.33682879 48.86066 33.29777757 46.84633646 33.2578125 44.83203125 C33.161654 39.88815425 33.0776576 34.94420083 33 30 C32.72325439 30.52956299 32.44650879 31.05912598 32.16137695 31.60473633 C30.89202883 34.01478064 29.60258253 36.41349547 28.3125 38.8125 C27.87744141 39.64587891 27.44238281 40.47925781 26.99414062 41.33789062 C24.58132277 45.78819911 22.86071972 48.92434131 18 51 C12.30421595 48.56774627 10.41430175 44.03584023 7.6875 38.8125 C7.23310547 37.96751953 6.77871094 37.12253906 6.31054688 36.25195312 C5.19521185 34.17390786 4.09232537 32.09020515 3 30 C2.98018066 31.26183105 2.96036133 32.52366211 2.93994141 33.82373047 C2.86401235 38.49418492 2.77527588 43.1643226 2.68261719 47.83447266 C2.64427479 49.85784666 2.60943129 51.88129006 2.578125 53.90478516 C2.53258831 56.80917203 2.47457591 59.71307894 2.4140625 62.6171875 C2.39673569 63.97975174 2.39673569 63.97975174 2.37905884 65.36984253 C2.35918915 66.21056305 2.33931946 67.05128357 2.31884766 67.91748047 C2.30552399 68.65916473 2.29220032 69.400849 2.2784729 70.16500854 C2 72 2 72 0 74 C-2.05859375 74.30078125 -2.05859375 74.30078125 -4.4375 74.3125 C-5.61119141 74.33763672 -5.61119141 74.33763672 -6.80859375 74.36328125 C-9.61769771 73.89760091 -10.31068332 73.28272419 -12 71 C-12.3742218 68.16053772 -12.3742218 68.16053772 -12.37231445 64.66430664 C-12.37854324 63.35607437 -12.38477203 62.0478421 -12.39118958 60.69996643 C-12.3825006 59.27002584 -12.37318252 57.84008896 -12.36328125 56.41015625 C-12.36276255 54.94429017 -12.36328063 53.47842338 -12.36479187 52.01255798 C-12.36470215 48.93998838 -12.35427504 45.86768118 -12.33618164 42.79516602 C-12.31351432 38.85969284 -12.31294675 34.92460375 -12.31969929 30.98908329 C-12.32304382 27.96158952 -12.31639975 24.93418305 -12.30657005 21.90670586 C-12.3027246 20.45586034 -12.30156712 19.0050051 -12.3031559 17.55415535 C-12.30352745 15.524444 -12.2894111 13.49474566 -12.2746582 11.46508789 C-12.27005081 10.31053604 -12.26544342 9.15598419 -12.26069641 7.96644592 C-12.00602206 5.06852458 -11.60408888 3.40132788 -10 1 C-6.85154494 -0.57422753 -3.40781928 -0.66928343 0 0 Z " fill="#000000" transform="translate(83,355)"/>
<path d="M0 0 C2.94580078 -0.38818359 2.94580078 -0.38818359 6.6953125 -0.3984375 C7.36158661 -0.40130768 8.02786072 -0.40417786 8.71432495 -0.40713501 C10.12824347 -0.40917857 11.54219008 -0.4036282 12.95605469 -0.39111328 C15.09636814 -0.37521271 17.23474944 -0.39087026 19.375 -0.41015625 C27.92923577 -0.42374782 34.96375557 -0.31868987 41.8125 5.3125 C47.65228228 12.48708966 47.76070933 19.05906019 47 28 C45.86482037 33.15670747 43.03891911 36.65065244 39 40 C36.83984375 40.6328125 36.83984375 40.6328125 35 41 C36.22654976 43.48049146 37.45602475 45.95945453 38.6875 48.4375 C39.049646 49.1694458 39.41179199 49.9013916 39.78491211 50.65551758 C42.08532281 55.27321991 44.50951453 59.75134707 47.28515625 64.10546875 C48.27855475 66.73824618 47.83845768 68.35133369 47 71 C44.58632553 73.48072099 42.8661853 74.78345368 39.5 75.625 C35.72090415 74.68022604 34.07494494 72.12008616 32 69 C29.37018558 63.87438614 27.02314489 58.60758658 24.72460938 53.32617188 C22.38193462 47.67452764 22.38193462 47.67452764 17.83056641 44.04931641 C15.38631393 43.6702765 15.38631393 43.6702765 12 44 C12.01047363 44.83772949 12.02094727 45.67545898 12.03173828 46.53857422 C12.06580019 49.64338164 12.09088911 52.74809392 12.10986328 55.85302734 C12.12488107 57.8591136 12.15028981 59.86511324 12.17578125 61.87109375 C12.18222656 63.12792969 12.18867188 64.38476562 12.1953125 65.6796875 C12.20578613 66.84226074 12.21625977 68.00483398 12.22705078 69.20263672 C12 72 12 72 10 74 C7.94140625 74.30078125 7.94140625 74.30078125 5.5625 74.3125 C4.38880859 74.33763672 4.38880859 74.33763672 3.19140625 74.36328125 C0.3758298 73.89652793 -0.31283105 73.29499397 -2 71 C-2.3742218 68.07788086 -2.3742218 68.07788086 -2.37231445 64.46484375 C-2.37596512 63.80598175 -2.37961578 63.14711975 -2.38337708 62.46829224 C-2.39148097 60.29109902 -2.37787473 58.11465048 -2.36328125 55.9375 C-2.36276262 54.42439779 -2.36328044 52.9112949 -2.36479187 51.39819336 C-2.36470215 48.22727396 -2.35427434 45.05660884 -2.33618164 41.88574219 C-2.31349434 37.82013781 -2.31295038 33.75490502 -2.31969929 29.68925476 C-2.32303995 26.56486709 -2.31640737 23.44056422 -2.30657005 20.31619263 C-2.30271943 18.81707198 -2.30156927 17.31794189 -2.3031559 15.81881714 C-2.30352655 13.72408053 -2.29090696 11.62982119 -2.2746582 9.53515625 C-2.27005081 8.342854 -2.26544342 7.15055176 -2.26069641 5.92211914 C-2 3 -2 3 0 0 Z M12 12 C12 18.93 12 25.86 12 33 C21.95408381 33.45961467 21.95408381 33.45961467 31 30 C33.67134463 25.99298306 33.82653281 22.71123704 33 18 C30.47031526 14.71824682 28.92268669 13.30756223 25 12 C20.66328697 11.86498403 16.33988266 11.95703086 12 12 Z " fill="#000000" transform="translate(259,355)"/>
<path d="M0 0 C1.02939697 0.00326294 1.02939697 0.00326294 2.07958984 0.0065918 C4.14736078 0.00972259 6.21365918 -0.01359469 8.28125 -0.0390625 C17.19801797 -0.04342065 23.275265 0.57948162 30.86328125 5.44726562 C35.28779548 10.1804669 36.65695794 15.41531013 36.92578125 21.82226562 C36.67913545 27.47538736 35.69453027 32.85923483 31.8984375 37.22070312 C27.34435519 41.32226562 27.34435519 41.32226562 23.55078125 41.32226562 C23.94458984 42.01787598 24.33839844 42.71348633 24.74414062 43.43017578 C26.52626435 46.5952908 28.28862747 49.7709926 30.05078125 52.94726562 C30.98083984 54.58888672 30.98083984 54.58888672 31.9296875 56.26367188 C32.80947266 57.85888672 32.80947266 57.85888672 33.70703125 59.48632812 C34.25166016 60.46037598 34.79628906 61.43442383 35.35742188 62.43798828 C36.69973253 65.68227185 36.97708481 67.84545559 36.55078125 71.32226562 C33.5825749 74.07845724 31.57405043 75.19435698 27.55078125 75.69726562 C22.54289157 73.40198286 20.98544657 69.09774295 18.55078125 64.32226562 C18.17421387 63.59507324 17.79764648 62.86788086 17.40966797 62.11865234 C15.34663027 58.12848515 13.30733054 54.12630053 11.30859375 50.10351562 C10.96973145 49.42353516 10.63086914 48.74355469 10.28173828 48.04296875 C9.55078125 46.32226562 9.55078125 46.32226562 9.55078125 44.32226562 C6.91078125 44.32226562 4.27078125 44.32226562 1.55078125 44.32226562 C1.57434692 45.52556519 1.57434692 45.52556519 1.59838867 46.75317383 C1.66066708 50.38029967 1.69974989 54.00731312 1.73828125 57.63476562 C1.76341797 58.89740234 1.78855469 60.16003906 1.81445312 61.4609375 C1.82895508 63.27368164 1.82895508 63.27368164 1.84375 65.12304688 C1.86731567 66.79620972 1.86731567 66.79620972 1.89135742 68.50317383 C1.55078125 71.32226562 1.55078125 71.32226562 0.16943359 73.18701172 C-1.98185848 74.69583647 -3.40442182 74.69060559 -6.01171875 74.63476562 C-7.18927734 74.62896484 -7.18927734 74.62896484 -8.390625 74.62304688 C-10.44921875 74.32226562 -10.44921875 74.32226562 -12.44921875 72.32226562 C-12.70318604 69.43774414 -12.70318604 69.43774414 -12.70800781 65.70117188 C-12.71151245 65.02134247 -12.71501709 64.34151306 -12.71862793 63.64108276 C-12.72744656 61.38887386 -12.7215958 59.13697785 -12.71484375 56.88476562 C-12.71619037 55.32299743 -12.71813087 53.76122965 -12.72064209 52.19946289 C-12.72359352 48.92427586 -12.71929514 45.64919782 -12.70996094 42.37402344 C-12.69856632 38.17042872 -12.7051257 33.96708937 -12.71710587 29.76350403 C-12.72432398 26.5379442 -12.72203678 23.31244518 -12.71685028 20.08688354 C-12.71551365 18.536692 -12.71716199 16.98649497 -12.72180939 15.43630981 C-12.72687391 13.27184369 -12.71916585 11.10779436 -12.70800781 8.94335938 C-12.70641663 7.71029053 -12.70482544 6.47722168 -12.70318604 5.20678711 C-12.08576898 -1.80574113 -5.50868785 0.02979133 0 0 Z M1.55078125 12.32226562 C1.55078125 19.25226563 1.55078125 26.18226563 1.55078125 33.32226562 C11.60836281 34.00675476 11.60836281 34.00675476 20.55078125 30.32226562 C22.3466092 26.69440351 22.87614471 23.24191005 22.19921875 19.24804688 C21.12554803 16.16286054 19.91682971 14.53814036 17.11328125 12.88476562 C11.88695072 12.05955554 6.84049409 12.20471645 1.55078125 12.32226562 Z " fill="#000000" transform="translate(212.44921875,354.677734375)"/>
<path d="M0 0 C1.29421875 -0.01998047 2.5884375 -0.03996094 3.921875 -0.06054688 C11.90513635 -0.05648208 19.25633963 0.29510093 25.44946289 5.84960938 C32.93578507 14.22763929 32.06154385 25.10274924 32.06030273 35.66088867 C32.06248362 37.73442294 32.08066823 39.80741923 32.09960938 41.88085938 C32.18970668 62.02024918 32.18970668 62.02024918 26.6875 67.875 C25.86185547 68.80119141 25.86185547 68.80119141 25.01953125 69.74609375 C19.94730733 73.74659094 15.09004832 74.81803179 8.734375 74.8359375 C7.41695313 74.83980469 6.09953125 74.84367187 4.7421875 74.84765625 C4.06639648 74.84137207 3.39060547 74.83508789 2.69433594 74.82861328 C0.61587986 74.81242898 -1.46066309 74.82856591 -3.5390625 74.84765625 C-4.85132813 74.84378906 -6.16359375 74.83992188 -7.515625 74.8359375 C-8.71219727 74.83255371 -9.90876953 74.82916992 -11.14160156 74.82568359 C-14.125 74.4375 -14.125 74.4375 -15.78720093 73.32168579 C-17.76793743 70.53197271 -17.50638385 68.29911654 -17.51318359 64.90234375 C-17.51844055 64.24348175 -17.52369751 63.58461975 -17.52911377 62.90579224 C-17.54231412 60.7286201 -17.53357626 58.55217953 -17.5234375 56.375 C-17.52545824 54.86189636 -17.52836968 53.34879367 -17.53213501 51.83569336 C-17.53655838 48.66478196 -17.53012711 45.49412411 -17.51611328 42.32324219 C-17.4990211 38.25754108 -17.50886225 34.19243407 -17.52683067 30.12675476 C-17.53766832 27.00235513 -17.53422232 23.87809649 -17.5264473 20.75369263 C-17.52444522 19.25456675 -17.52690485 17.7554281 -17.53388596 16.25631714 C-17.54150046 14.16141834 -17.52989789 12.06748322 -17.51318359 9.97265625 C-17.51079681 8.780354 -17.50841003 7.58805176 -17.50595093 6.35961914 C-17.125 3.4375 -17.125 3.4375 -15.77947998 1.55430603 C-11.58737594 -1.27544539 -4.85944063 -0.02615159 0 0 Z M-3.125 12.4375 C-3.125 28.9375 -3.125 45.4375 -3.125 62.4375 C8.98892398 63.5522408 8.98892398 63.5522408 14.875 59.4375 C19.19136793 52.9629481 18.05866421 45.07296853 18.0625 37.5625 C18.08086914 35.68111328 18.08086914 35.68111328 18.09960938 33.76171875 C18.14934046 24.8990529 18.14934046 24.8990529 15.875 16.4375 C10.1971706 10.94282639 5.16903757 12.4375 -3.125 12.4375 Z " fill="#000000" transform="translate(410.125,354.5625)"/>
<path d="M0 0 C0.7734375 0.0103125 1.546875 0.020625 2.34375 0.03125 C3.1171875 0.0209375 3.890625 0.010625 4.6875 0 C7.66371188 0.73326959 8.2740006 1.94038359 9.84375 4.53125 C10.23574829 7.00416565 10.23574829 7.00416565 10.26025391 9.80297852 C10.27682037 10.85409317 10.29338684 11.90520782 10.31045532 12.98817444 C10.31370819 14.11742844 10.31696106 15.24668243 10.3203125 16.41015625 C10.33589203 17.57377182 10.35147156 18.73738739 10.36752319 19.93626404 C10.41507574 23.65541918 10.44281603 27.37438654 10.46875 31.09375 C10.50523158 34.8165514 10.54584963 38.53924622 10.59140015 42.26194763 C10.61863506 44.57899252 10.63998269 46.89611541 10.65493774 49.21327209 C10.66519989 50.26123459 10.67546204 51.30919708 10.68603516 52.38891602 C10.69253082 53.31172867 10.69902649 54.23454132 10.70571899 55.18531799 C10.75085174 57.6858204 10.75085174 57.6858204 11.84375 60.53125 C16.17311784 61.97437261 20.31927987 62.07270298 24.84375 61.53125 C28.18709505 59.24798997 29.09704465 57.39487034 29.84375 53.53125 C29.94608407 51.8320104 29.99916385 50.12946738 30.01733398 48.42724609 C30.03082382 47.41294525 30.04431366 46.39864441 30.05821228 45.35360718 C30.06865067 44.26496368 30.07908905 43.17632019 30.08984375 42.0546875 C30.12276142 39.75260007 30.1559734 37.45051683 30.18945312 35.1484375 C30.23701092 31.51630344 30.2814873 27.88418884 30.32055664 24.25195312 C30.36010996 20.74852391 30.41167166 17.24543268 30.46484375 13.7421875 C30.4732579 12.64949554 30.48167206 11.55680359 30.49034119 10.43099976 C30.50698318 9.42300323 30.52362518 8.41500671 30.54077148 7.37646484 C30.55107895 6.48696136 30.56138641 5.59745789 30.57200623 4.68099976 C30.84375 2.53125 30.84375 2.53125 32.84375 0.53125 C34.90234375 0.23046875 34.90234375 0.23046875 37.28125 0.21875 C38.45494141 0.19361328 38.45494141 0.19361328 39.65234375 0.16796875 C42.42348043 0.62735504 43.13742769 1.32503106 44.84375 3.53125 C45.22470093 5.84353638 45.22470093 5.84353638 45.23193359 8.59423828 C45.24139008 9.62606232 45.25084656 10.65788635 45.2605896 11.72097778 C45.25451691 12.83657074 45.24844421 13.9521637 45.2421875 15.1015625 C45.24505768 16.25236298 45.24792786 17.40316345 45.25088501 18.58883667 C45.25292862 21.02830496 45.24737815 23.46778952 45.23486328 25.90722656 C45.21890227 29.62082214 45.23465733 33.33331471 45.25390625 37.046875 C45.25192215 39.41927322 45.24807505 41.79167076 45.2421875 44.1640625 C45.24826019 45.26751007 45.25433289 46.37095764 45.2605896 47.50784302 C45.18833684 55.53605514 44.05530023 61.97936629 39.78125 68.84375 C33.10564795 74.9512157 25.8288955 76.15824555 16.96484375 75.85546875 C10.39625725 75.17312497 4.48105588 73.43354479 -0.15625 68.53125 C-5.62707975 60.20446166 -5.31822801 51.03481759 -5.359375 41.390625 C-5.36507507 40.34602112 -5.37077515 39.30141724 -5.37664795 38.22515869 C-5.38604739 36.02999877 -5.39261167 33.83482506 -5.39648438 31.63964844 C-5.40626018 28.27774965 -5.43735921 24.91644498 -5.46875 21.5546875 C-5.47527432 19.41667028 -5.48052703 17.27864871 -5.484375 15.140625 C-5.4967218 14.13642517 -5.5090686 13.13222534 -5.52178955 12.09759521 C-5.51878845 11.16272278 -5.51578735 10.22785034 -5.51269531 9.26464844 C-5.51634094 8.44494568 -5.51998657 7.62524292 -5.52374268 6.78070068 C-4.95105842 3.27525672 -3.52754305 0.86910481 0 0 Z " fill="#000000" transform="translate(200.15625,233.46875)"/>
<path d="M0 0 C2.42481351 1.60331273 2.90099577 2.84983178 3.89274597 5.56460571 C4.22342072 6.46463318 4.55409546 7.36466064 4.89479065 8.29196167 C6.70268395 13.61608883 8.40468489 18.96576157 10.04631042 24.34341431 C10.42035507 25.56275665 10.79439972 26.782099 11.17977905 28.03839111 C11.96276581 30.59755103 12.74370199 33.15724051 13.52165222 35.71792603 C14.51827836 38.99595093 15.5283335 42.26967514 16.54158497 45.542593 C17.51049106 48.68179057 18.46497976 51.82536713 19.42131042 54.96841431 C19.78577774 56.14133026 20.15024506 57.31424622 20.52575684 58.52270508 C21.01703316 60.15557968 21.01703316 60.15557968 21.51823425 61.82144165 C21.81039322 62.77723114 22.10255219 63.73302063 22.40356445 64.71777344 C22.92259254 67.36357519 22.86566948 68.76419669 21.90177917 71.25747681 C20.02324877 73.36143086 18.68373918 74.18720507 15.85881042 74.44107056 C13.87219363 74.44458669 11.88592046 74.35668387 9.90177917 74.25747681 C7.9678453 69.24682994 6.38776405 64.45842386 4.90177917 59.25747681 C-2.35822083 58.92747681 -9.61822083 58.59747681 -17.09822083 58.25747681 C-18.08822083 63.20747681 -18.08822083 63.20747681 -19.09822083 68.25747681 C-20.72322083 71.88247681 -20.72322083 71.88247681 -22.09822083 74.25747681 C-29.13634399 74.60938296 -29.13634399 74.60938296 -32.66072083 73.31997681 C-34.63905857 70.48149221 -34.04688193 68.34849153 -33.61305237 65.0340271 C-32.57387401 59.42960946 -30.83984519 54.0202846 -29.16853333 48.57778931 C-28.77316563 47.27517197 -28.37822484 45.972425 -27.98368835 44.66955566 C-27.1601048 41.95666437 -26.33069242 39.24564336 -25.49714661 36.53579712 C-24.43046655 33.06596889 -23.37980744 29.591522 -22.33352852 26.11549568 C-21.52359115 23.43169105 -20.70472632 20.75067468 -19.88319016 18.07040024 C-19.3023752 16.16923124 -18.72954664 14.26562828 -18.15684509 12.36199951 C-17.62146622 10.63407669 -17.62146622 10.63407669 -17.07527161 8.87124634 C-16.61013657 7.34976486 -16.61013657 7.34976486 -16.13560486 5.79754639 C-15.08632648 3.2283531 -14.27404796 1.94317284 -12.09822083 0.25747681 C-8.03416 -1.09721014 -4.10057271 -1.45112007 0 0 Z M-6.09822083 20.25747681 C-8.43508583 26.17844855 -10.2182259 32.09168107 -11.78572083 38.25747681 C-12.12313293 39.56265259 -12.12313293 39.56265259 -12.46736145 40.89419556 C-13.01485882 43.01429174 -13.55709385 45.13574573 -14.09822083 47.25747681 C-8.81822083 47.25747681 -3.53822083 47.25747681 1.90177917 47.25747681 C-0.33626579 38.22812297 -2.59259904 29.21697288 -5.09822083 20.25747681 C-5.42822083 20.25747681 -5.75822083 20.25747681 -6.09822083 20.25747681 Z " fill="#000000" transform="translate(171.0982208251953,354.7425231933594)"/>
<path d="M0 0 C1.52491998 3.04983996 1.23562548 5.6423369 1 9 C-0.0625 11 -0.0625 11 -2 12 C-5.29047448 11.79854238 -8.23754533 11.18602425 -11.43359375 10.40625 C-17.04086219 9.10898242 -20.65555624 8.66180585 -26 11 C-28.1882888 13.72971446 -28.1882888 13.72971446 -28.125 16.375 C-25.63251951 22.19078781 -18.26631776 24.3748378 -12.875 27 C-6.21203079 30.30630966 -0.8658334 33.47565461 2.3046875 40.49609375 C4.15076644 47.14405219 4.24692222 55.06728317 1.5625 61.5 C-1.35722018 66.3662003 -6.53226912 69.78000939 -11.83203125 71.64453125 C-22.00382505 73.31233888 -32.91274053 72.87221087 -41.5 66.75 C-44.57901124 63.36308763 -45.16277712 61.55775947 -45 57 C-43.375 54.0625 -43.375 54.0625 -41 52 C-36.82539712 51.44980522 -34.8568631 52.44177038 -31.5625 54.9375 C-27.98889098 57.43607292 -25.48694886 59 -21 59 C-15.53076871 58.0109507 -15.53076871 58.0109507 -12 54 C-11.4161804 51.0850745 -11.4161804 51.0850745 -12 48 C-15.71597133 43.52799611 -19.71645529 41.41721406 -24.875 39.0625 C-31.95751395 35.65767604 -37.70576323 32.77438953 -41.9375 25.8125 C-43.65643017 19.64457408 -43.90411912 13.8187243 -41.9375 7.6875 C-32.68360647 -5.14854587 -13.66382011 -8.14399874 0 0 Z " fill="#000000" transform="translate(297,237)"/>
<path d="M0 0 C1.13917374 0.00666183 1.13917374 0.00666183 2.30136108 0.01345825 C3.59247299 0.01368484 3.59247299 0.01368484 4.90966797 0.01391602 C5.83991791 0.02423859 6.77016785 0.03456116 7.72860718 0.04519653 C8.68020721 0.04802643 9.63180725 0.05085632 10.61224365 0.05377197 C13.6589706 0.06498914 16.70540621 0.09009641 19.75204468 0.11550903 C21.81454044 0.12553685 23.8770408 0.13466304 25.93954468 0.14285278 C31.00215735 0.16493349 36.06455158 0.19947374 41.12704468 0.24050903 C43.23940776 3.99401574 43.22579563 6.02863039 42.12704468 10.24050903 C40.12704468 12.24050903 40.12704468 12.24050903 37.14608765 12.46755981 C35.89972534 12.45708618 34.65336304 12.44661255 33.36923218 12.43582153 C32.70618073 12.43299164 32.04312927 12.43016174 31.35998535 12.42724609 C29.24048885 12.41604338 27.12141364 12.39093954 25.00204468 12.36550903 C23.56585286 12.35547931 22.12965442 12.34635344 20.69345093 12.33816528 C17.17102229 12.31780442 13.64950551 12.27865843 10.12704468 12.24050903 C10.12704468 18.51050903 10.12704468 24.78050903 10.12704468 31.24050903 C15.25775307 31.16159191 15.25775307 31.16159191 20.38803101 31.06033325 C24.19224229 31.03074335 25.89132637 31.0833635 29.12704468 33.24050903 C29.52548218 35.11550903 29.52548218 35.11550903 29.50204468 37.24050903 C29.51364624 38.29238403 29.51364624 38.29238403 29.52548218 39.36550903 C29.12704468 41.24050903 29.12704468 41.24050903 26.12704468 43.24050903 C23.35208141 43.38340107 20.70752275 43.42788445 17.93954468 43.36550903 C14.07235718 43.30363403 14.07235718 43.30363403 10.12704468 43.24050903 C10.12704468 49.51050903 10.12704468 55.78050903 10.12704468 62.24050903 C13.32327515 62.15349731 13.32327515 62.15349731 16.58407593 62.06472778 C18.64922362 62.02572759 20.71433022 61.99537202 22.77963257 61.96585083 C24.21438982 61.94071379 25.64901909 61.90659795 27.08334351 61.86331177 C29.14640838 61.80261239 31.20778083 61.7742955 33.27157593 61.75222778 C35.13326416 61.71295166 35.13326416 61.71295166 37.03256226 61.67288208 C40.12704468 62.24050903 40.12704468 62.24050903 42.07113647 64.56790161 C43.38501116 67.89344755 43.05747344 69.82893692 42.12704468 73.24050903 C40.59972358 74.76783013 39.22700445 74.37503294 37.09799194 74.38577271 C36.24363052 74.39215256 35.3892691 74.39853241 34.50901794 74.40510559 C33.57988083 74.40621841 32.65074371 74.40733124 31.69345093 74.40847778 C30.74517929 74.41180618 29.79690765 74.41513458 28.81990051 74.41856384 C26.80990078 74.42363723 24.7998926 74.42597204 22.78988647 74.42581177 C19.70616848 74.42799725 16.62280861 74.44614586 13.53915405 74.46511841 C11.59058757 74.46805238 9.64201939 74.47003715 7.69345093 74.47097778 C6.76633804 74.4781633 5.83922516 74.48534882 4.88401794 74.49275208 C4.02650436 74.48967545 3.16899078 74.48659882 2.28549194 74.48342896 C1.52905899 74.48485397 0.77262604 74.48627899 -0.00672913 74.48774719 C-1.87295532 74.24050903 -1.87295532 74.24050903 -3.87295532 72.24050903 C-4.12692261 69.35598755 -4.12692261 69.35598755 -4.13174438 65.61941528 C-4.13524902 64.93958588 -4.13875366 64.25975647 -4.1423645 63.55932617 C-4.15118313 61.30711727 -4.14533237 59.05522126 -4.13858032 56.80300903 C-4.13992694 55.24124084 -4.14186744 53.67947305 -4.14437866 52.1177063 C-4.1473301 48.84251927 -4.14303171 45.56744123 -4.13369751 42.29226685 C-4.1223029 38.08867213 -4.12886227 33.88533278 -4.14084244 29.68174744 C-4.14806055 26.45618761 -4.14577335 23.23068858 -4.14058685 20.00512695 C-4.13925022 18.4549354 -4.14089856 16.90473838 -4.14554596 15.35455322 C-4.15061048 13.1900871 -4.14290242 11.02603777 -4.13174438 8.86160278 C-4.1301532 7.62853394 -4.12856201 6.39546509 -4.12692261 5.12503052 C-3.84340545 1.90488609 -3.40344312 0.43704129 0 0 Z " fill="#000000" transform="translate(343.8729553222656,354.7594909667969)"/>
<path d="M0 0 C1.06734375 -0.01224609 2.1346875 -0.02449219 3.234375 -0.03710938 C4.25789063 -0.03904297 5.28140625 -0.04097656 6.3359375 -0.04296875 C7.74818604 -0.04913208 7.74818604 -0.04913208 9.18896484 -0.05541992 C11.625 0.1875 11.625 0.1875 14.625 2.1875 C15.00595093 4.45545959 15.00595093 4.45545959 15.01318359 7.32055664 C15.02264008 8.39249771 15.03209656 9.46443878 15.0418396 10.56886292 C15.03576691 11.73336472 15.02969421 12.89786652 15.0234375 14.09765625 C15.02630768 15.29426376 15.02917786 16.49087128 15.03213501 17.72373962 C15.0341806 20.26334097 15.02861638 22.8029579 15.01611328 25.3425293 C15.00016562 29.20983766 15.01589519 33.07608513 15.03515625 36.94335938 C15.03317198 39.41146063 15.02932452 41.87956122 15.0234375 44.34765625 C15.03254654 46.07315453 15.03254654 46.07315453 15.0418396 47.83351135 C14.97732855 55.29669728 14.5129174 62.4269293 9.828125 68.52734375 C1.95650844 74.96632609 -5.34981937 76.02293172 -15.375 75.1875 C-21.53920708 73.98472789 -26.04044514 71.72846224 -30.375 67.1875 C-33.55174072 61.78704077 -34.24198216 56.34645121 -33.375 50.1875 C-30.85482574 47.66732574 -29.86000151 47.89019623 -26.375 47.875 C-25.488125 47.85824219 -24.60125 47.84148437 -23.6875 47.82421875 C-22.924375 47.94410156 -22.16125 48.06398438 -21.375 48.1875 C-19.50686914 50.98969629 -18.96564437 52.57997561 -18.1875 55.75 C-16.97357688 59.48937121 -16.7763337 59.97139724 -13.125 61.9375 C-8.58282094 62.24031194 -6.25556079 61.54627225 -2.375 59.1875 C0.28357566 54.61879913 -0.02736254 49.64628133 0.0390625 44.51171875 C0.05842865 43.5865596 0.0777948 42.66140045 0.0977478 41.70820618 C0.15735254 38.76389683 0.20385248 35.81954798 0.25 32.875 C0.28819736 30.87433225 0.32725012 28.87368064 0.3671875 26.87304688 C0.46303841 21.9779962 0.54714 17.08286855 0.625 12.1875 C-0.20644531 12.24550781 -1.03789062 12.30351562 -1.89453125 12.36328125 C-2.98121094 12.40839844 -4.06789062 12.45351562 -5.1875 12.5 C-6.80591797 12.58701172 -6.80591797 12.58701172 -8.45703125 12.67578125 C-11.375 12.1875 -11.375 12.1875 -13.30859375 9.87109375 C-14.375 7.1875 -14.375 7.1875 -13.625 3.9375 C-11.00797057 -1.81996474 -5.73560917 0.00343861 0 0 Z " fill="#000000" transform="translate(170.375,233.8125)"/>
<path d="M0 0 C1.96021072 -0.01275149 3.92073219 0.00273045 5.88061523 0.04077148 C6.91484116 0.04310287 7.94906708 0.04543427 9.01463318 0.0478363 C11.20108283 0.05758172 13.38750691 0.07938689 15.57373047 0.11230469 C18.92965848 0.16172459 22.28412184 0.17378439 25.64038086 0.17944336 C27.76214133 0.1935283 29.88388901 0.20973232 32.00561523 0.22827148 C33.01394913 0.23363419 34.02228302 0.23899689 35.06117249 0.24452209 C36.45788429 0.26850319 36.45788429 0.26850319 37.8828125 0.29296875 C39.11500267 0.30892845 39.11500267 0.30892845 40.37208557 0.32521057 C42.37670898 0.59936523 42.37670898 0.59936523 44.37670898 2.59936523 C44.91799339 8.28285147 44.91799339 8.28285147 44.37670898 10.59936523 C41.82623314 13.26071381 40.43618206 13.59462004 36.70483398 13.89233398 C35.34514863 13.87253274 33.98561558 13.83695725 32.62670898 13.78686523 C31.92932617 13.77333008 31.23194336 13.75979492 30.51342773 13.74584961 C28.80085358 13.71065973 27.08867957 13.65685678 25.37670898 13.59936523 C25.38115021 14.33408051 25.38559143 15.06879578 25.39016724 15.82577515 C25.43020174 22.74171891 25.46067186 29.65764541 25.48033333 36.57367516 C25.49078122 40.12948922 25.50495857 43.68520773 25.52758789 47.2409668 C25.55342731 51.32658824 25.56317342 55.41210892 25.57202148 59.49780273 C25.58234406 60.77803314 25.59266663 62.05826355 25.603302 63.37728882 C25.60352859 65.14889877 25.60352859 65.14889877 25.60375977 66.95629883 C25.60820099 67.99998627 25.61264221 69.04367371 25.61721802 70.11898804 C25.37670898 72.59936523 25.37670898 72.59936523 23.37670898 74.59936523 C21.31811523 74.93530273 21.31811523 74.93530273 18.93920898 74.97436523 C18.15674805 75.00272461 17.37428711 75.03108398 16.56811523 75.06030273 C14.37670898 74.59936523 14.37670898 74.59936523 12.7610321 72.92596436 C11.04382936 70.03990232 11.01392558 68.25873218 11.03613281 64.9128418 C11.03635941 63.77196106 11.036586 62.63108032 11.03681946 61.45562744 C11.05230331 60.22946716 11.06778717 59.00330688 11.08374023 57.73999023 C11.08798508 56.48047546 11.09222992 55.22096069 11.09660339 53.92327881 C11.11054777 50.58247985 11.13747973 47.2422994 11.17071533 43.90167236 C11.2014606 40.48975965 11.2151182 37.07778294 11.23022461 33.66577148 C11.26331084 26.97679875 11.31352374 20.28811769 11.37670898 13.59936523 C10.41249023 13.62256836 9.44827148 13.64577148 8.45483398 13.66967773 C7.19155273 13.68772461 5.92827148 13.70577148 4.62670898 13.72436523 C3.37374023 13.74756836 2.12077148 13.77077148 0.82983398 13.79467773 C-2.36010559 13.61425129 -4.0684 13.45803291 -6.62329102 11.59936523 C-7.73821518 8.25459274 -7.84463961 6.30177211 -6.78369141 2.93505859 C-4.23590015 0.18054182 -3.61332031 0.21467458 0 0 Z " fill="#000000" transform="translate(310.623291015625,233.400634765625)"/>
<path d="M0 0 C1.17369141 -0.02513672 1.17369141 -0.02513672 2.37109375 -0.05078125 C5.18672372 0.41598094 5.87453395 1.01806329 7.5625 3.3125 C7.94345093 6.23461914 7.94345093 6.23461914 7.95068359 9.84765625 C7.95594055 10.50651825 7.96119751 11.16538025 7.96661377 11.84420776 C7.97981412 14.0213799 7.97107626 16.19782047 7.9609375 18.375 C7.96295824 19.88810364 7.96586968 21.40120633 7.96963501 22.91430664 C7.97405838 26.08521804 7.96762711 29.25587589 7.95361328 32.42675781 C7.9365211 36.49245892 7.94636225 40.55756593 7.96433067 44.62324524 C7.97516832 47.74764487 7.97172232 50.87190351 7.9639473 53.99630737 C7.96194522 55.49543325 7.96440485 56.9945719 7.97138596 58.49368286 C7.97900046 60.58858166 7.96739789 62.68251678 7.95068359 64.77734375 C7.94829681 65.969646 7.94591003 67.16194824 7.94345093 68.39038086 C7.5625 71.3125 7.5625 71.3125 6.17520142 73.19824219 C4.02695836 74.6825198 2.59159568 74.6805037 0 74.625 C-1.17755859 74.61919922 -1.17755859 74.61919922 -2.37890625 74.61328125 C-4.4375 74.3125 -4.4375 74.3125 -6.4375 72.3125 C-6.69146729 69.42797852 -6.69146729 69.42797852 -6.69628906 65.69140625 C-6.6997937 65.01157684 -6.70329834 64.33174744 -6.70690918 63.63131714 C-6.71572781 61.37910824 -6.70987705 59.12721222 -6.703125 56.875 C-6.70447162 55.31323181 -6.70641212 53.75146402 -6.70892334 52.18969727 C-6.71187477 48.91451023 -6.70757639 45.63943219 -6.69824219 42.36425781 C-6.68684757 38.16066309 -6.69340695 33.95732375 -6.70538712 29.7537384 C-6.71260523 26.52817858 -6.71031803 23.30267955 -6.70513153 20.07711792 C-6.7037949 18.52692637 -6.70544324 16.97672935 -6.71009064 15.42654419 C-6.71515516 13.26207807 -6.7074471 11.09802873 -6.69628906 8.93359375 C-6.69469788 7.7005249 -6.69310669 6.46745605 -6.69146729 5.19702148 C-6.27448285 0.4609762 -4.30752757 0.02121935 0 0 Z " fill="#000000" transform="translate(321.4375,354.6875)"/>
</svg>
