<?xml version="1.0" encoding="UTF-8"?>
<svg version="1.1" xmlns="http://www.w3.org/2000/svg" width="512" height="512">
<path d="M0 0 C1.01951569 -0.00453111 2.03903138 -0.00906223 3.08944148 -0.01373065 C6.51016896 -0.02640419 9.93073783 -0.02475235 13.35148621 -0.02310181 C15.80226853 -0.02908521 18.25304896 -0.03589032 20.7038269 -0.04345703 C26.67291351 -0.05930581 32.64193761 -0.06556626 38.61103944 -0.06668179 C43.46402313 -0.06763263 48.3169938 -0.07174473 53.16997337 -0.07808304 C66.93429604 -0.0956938 80.69858753 -0.10492221 94.46292154 -0.10342209 C95.20474163 -0.10334218 95.94656172 -0.10326227 96.71086121 -0.10317993 C97.45358891 -0.10309817 98.19631661 -0.10301641 98.96155121 -0.10293217 C110.99655487 -0.10211939 123.03143335 -0.12125534 135.0664008 -0.14945666 C147.42894231 -0.17819658 159.79142279 -0.19199634 172.15399855 -0.19026911 C179.09258574 -0.18960558 186.0310417 -0.19508183 192.96959877 -0.21662521 C199.49574503 -0.2367585 206.02166163 -0.23615198 212.54783821 -0.22159195 C214.94235895 -0.2194991 217.33689691 -0.22423296 219.73138809 -0.23631287 C223.00199724 -0.25174324 226.2716479 -0.2424708 229.54223633 -0.22705078 C230.48826007 -0.23733791 231.43428382 -0.24762503 232.40897495 -0.25822389 C240.01966156 -0.17901095 245.34849651 1.65432842 250.77409363 7.07992554 C255.97970147 14.66523983 256.41864676 20.57276432 256.39518738 29.62289429 C256.40042923 30.80208939 256.40567108 31.98128448 256.41107178 33.19621277 C256.41747625 35.67982192 256.41617548 38.16346147 256.40763855 40.64706421 C256.39909862 44.45270311 256.42796286 48.25685547 256.4596405 52.06234741 C256.46125187 54.47836259 256.46067623 56.89438042 256.45768738 59.31039429 C256.47453835 61.01826363 256.47453835 61.01826363 256.49172974 62.76063538 C256.48234879 63.81886002 256.47296783 64.87708466 256.46330261 65.96737671 C256.46305336 67.36133919 256.46305336 67.36133919 256.46279907 68.78346252 C255.81045884 72.01644619 254.48419312 73.21412379 251.96159363 75.26742554 C249.96159363 75.83383179 249.96159363 75.83383179 247.96159363 75.82992554 C247.30159363 75.8518396 246.64159363 75.87375366 245.96159363 75.89633179 C242.63465696 74.85016615 241.75733639 73.25159173 239.96159363 70.26742554 C239.37479602 66.49611813 239.42823242 62.75733358 239.45768738 58.94711304 C239.44355553 57.30369431 239.44355553 57.30369431 239.42913818 55.6270752 C239.40048085 52.13200105 239.39741117 48.63760776 239.39909363 45.14242554 C239.395492 41.64020195 239.38603935 38.13847227 239.3583374 34.63635254 C239.34148163 32.45841766 239.33872554 30.28031948 239.35134888 28.10235596 C239.34102379 26.62534714 239.34102379 26.62534714 239.33049011 25.11849976 C239.33145187 24.25199799 239.33241364 23.38549622 239.33340454 22.49273682 C238.87756646 19.76451772 238.14487878 18.91928538 235.96159363 17.26742554 C233.24928596 16.36332298 231.68937677 16.14084429 228.90509987 16.13599777 C228.07664547 16.13215663 227.24819106 16.12831548 226.39463198 16.12435794 C225.48462636 16.12522442 224.57462074 16.1260909 223.63703918 16.12698364 C222.67020183 16.12401252 221.70336447 16.1210414 220.70722902 16.11798024 C217.45297861 16.10927752 214.19876492 16.10778367 210.94450378 16.10629272 C208.61722739 16.10166572 206.28995175 16.09664121 203.962677 16.09124756 C197.63007655 16.07811145 191.2974867 16.0716764 184.96487474 16.0672369 C181.01142133 16.06430851 177.05797084 16.06020418 173.10451889 16.05573273 C162.16013788 16.04362307 151.21575942 16.03324095 140.27137184 16.02985764 C139.57091115 16.02963807 138.87045045 16.0294185 138.14876368 16.02919228 C137.4466226 16.02897401 136.74448153 16.02875573 136.02106345 16.02853084 C134.59824538 16.02808737 133.17542732 16.02764081 131.75260925 16.02719116 C130.69395779 16.02685902 130.69395779 16.02685902 129.61391942 16.02652016 C118.17493999 16.02257114 106.73602422 16.00511365 95.29706939 15.98183164 C83.55498887 15.95812539 71.81294031 15.94565614 60.07083547 15.94448972 C53.47718027 15.94343985 46.88361487 15.93749335 40.28998184 15.9196701 C34.08973796 15.90323644 27.88965184 15.90101103 21.689394 15.90980911 C19.41133134 15.91058198 17.13326037 15.90620414 14.85521889 15.89635086 C11.74999453 15.88370535 8.64533522 15.889468 5.54011536 15.89993286 C4.63457118 15.89187646 3.729027 15.88382005 2.79604208 15.87551951 C-3.69628549 15.88320345 -3.69628549 15.88320345 -9.03840637 19.26742554 C-9.78920699 22.46492678 -9.78920699 22.46492678 -9.65745544 26.23822021 C-9.66681391 27.30870588 -9.66681391 27.30870588 -9.67636144 28.40081751 C-9.69131645 30.7988077 -9.67061192 33.19517813 -9.65022278 35.59310913 C-9.65376266 37.30956094 -9.65953871 39.02600939 -9.66738892 40.7424469 C-9.67958531 44.44214793 -9.67608049 48.14138824 -9.66055679 51.8410759 C-9.63628955 57.69008189 -9.64771501 63.53868242 -9.66423035 69.38769531 C-9.68874951 79.69363004 -9.68291656 89.99938131 -9.67042542 100.30532837 C-9.65185788 115.81631481 -9.65666858 131.32726626 -9.69045961 146.83822691 C-9.70198317 152.65333112 -9.69752125 158.4681417 -9.68043923 164.28322959 C-9.67254547 167.90102049 -9.67679037 171.51872579 -9.68414879 175.13651466 C-9.68495956 176.8147075 -9.68060245 178.49291197 -9.6707058 180.17107582 C-9.65784988 182.46185318 -9.66335646 184.7518884 -9.67332458 187.04266357 C-9.67143946 188.32466833 -9.66955433 189.60667309 -9.66761208 190.92752647 C-10.06654231 194.5208577 -10.8676959 196.40741005 -13.03840637 199.26742554 C-16.13014389 200.81329429 -18.6327019 200.56102075 -22.03840637 200.26742554 C-24.59341911 198.28719848 -25.86905539 197.08697668 -26.53059769 193.88553238 C-26.52506693 192.55261972 -26.52506693 192.55261972 -26.51942444 191.19277954 C-26.5249231 190.16916824 -26.53042175 189.14555695 -26.53608704 188.09092712 C-26.52170593 186.97386887 -26.50732483 185.85681061 -26.49250793 184.7059021 C-26.49309204 183.52513596 -26.49367615 182.34436981 -26.49427795 181.12782288 C-26.49196972 177.8944145 -26.47191888 174.66169978 -26.44398212 171.4284296 C-26.41896605 168.04786764 -26.41662633 164.66729185 -26.41188049 161.28665161 C-26.39945124 154.88698822 -26.3666306 148.48759835 -26.32648253 142.08805537 C-26.28176303 134.80156194 -26.25977738 127.5150554 -26.23970079 120.22845888 C-26.1978977 105.24129539 -26.12754691 90.25438783 -26.03840637 75.26742554 C-36.13938906 75.35178424 -46.24021307 75.44665024 -56.34096909 75.55495262 C-61.03110035 75.60491052 -65.72120914 75.65124064 -70.41145325 75.68930054 C-74.93731881 75.72615969 -79.46299616 75.77252143 -83.98870087 75.82548904 C-85.71583507 75.84402963 -87.44300961 75.85913884 -89.17020416 75.8707695 C-91.58838191 75.88763772 -94.00612896 75.91667388 -96.42414856 75.94857788 C-97.13912506 75.95073807 -97.85410156 75.95289825 -98.59074402 75.9551239 C-102.20341242 76.01606346 -105.0231207 76.16728109 -108.03840637 78.26742554 C-109.21427215 80.6191571 -109.16911796 82.02104955 -109.17884827 84.64308167 C-109.18455841 85.56339172 -109.19026855 86.48370178 -109.19615173 87.43190002 C-109.19726959 88.44520889 -109.19838745 89.45851776 -109.19953918 90.50253296 C-109.20450409 91.56803375 -109.20946899 92.63353455 -109.21458435 93.73132324 C-109.22925606 97.2785201 -109.23602268 100.82567198 -109.24153137 104.37289429 C-109.24728669 106.84842428 -109.25304437 109.32395427 -109.25880432 111.79948425 C-109.2693339 117.01088671 -109.27516113 122.22227369 -109.27864075 127.4336853 C-109.28329305 134.04984446 -109.30798349 140.66581419 -109.3366127 147.28191662 C-109.3554382 152.41013639 -109.36045554 157.53830784 -109.36197662 162.66655922 C-109.36496824 165.10092615 -109.37287557 167.53529296 -109.3861618 169.96962547 C-109.66688795 225.4490181 -91.47058548 272.3229673 -52.96809387 312.42367554 C-51.85507099 313.52172502 -50.73584608 314.6135463 -49.60871887 315.69711304 C-47.8323787 317.47345321 -46.22537583 319.35157143 -44.60090637 321.26742554 C-41.68424477 324.65493834 -38.56027935 327.57267299 -35.12825012 330.43148804 C-33.31201467 332.02705937 -31.61140116 333.66913979 -29.90779114 335.38217163 C-29.100765 336.19263443 -29.100765 336.19263443 -28.2774353 337.01947021 C-27.86855576 337.43129547 -27.45967621 337.84312073 -27.03840637 338.26742554 C-27.0378616 337.67843349 -27.03731684 337.08944145 -27.03675556 336.48260117 C-27.02178948 322.15233564 -26.97934989 307.82234645 -26.9063158 293.49225998 C-26.87165969 286.56229888 -26.84630951 279.63253681 -26.84284973 272.70248413 C-26.83948613 266.01737545 -26.81021239 259.33284331 -26.76497459 252.6478653 C-26.75196223 250.09456546 -26.74770504 247.54120583 -26.75225258 244.98787689 C-26.75713167 241.41742055 -26.73118273 237.84844262 -26.6978302 234.27816772 C-26.70645584 233.2172139 -26.71508148 232.15626007 -26.72396851 231.06315613 C-26.61198022 223.9345261 -26.61198022 223.9345261 -23.72375488 220.5753479 C-20.05569111 218.78878552 -17.92278236 219.18843221 -14.03840637 220.26742554 C-11.97902421 221.8462852 -11.19269426 222.95884977 -10.03840637 225.26742554 C-9.91793222 227.65527551 -9.85276951 230.01890289 -9.82746887 232.40805054 C-9.79933968 233.88722712 -9.77067506 235.3663936 -9.74153137 236.84555054 C-9.70075658 239.16194705 -9.66386091 241.47816724 -9.63703918 243.79476929 C-9.22977182 276.20763389 4.4779823 299.43008979 27.21940613 321.72055054 C30.72125296 324.97297808 34.3650711 327.99350081 38.10221863 330.97055054 C40.6096055 332.98468098 43.05982403 335.05108042 45.49650574 337.14974976 C51.63960436 342.433588 57.98179722 347.39591145 64.44352722 352.28329468 C69.44754447 356.07865275 74.35362909 359.97462347 79.21159363 363.95492554 C84.96417921 368.66674038 90.78801858 373.25750254 96.69987488 377.76742554 C102.50528367 382.20084245 108.22601581 386.74431619 113.96159363 391.26742554 C117.88136768 389.5752304 121.03383173 386.97937876 124.33659363 384.32992554 C125.59955563 383.32724726 126.86257808 382.32464512 128.12565613 381.32211304 C129.08713562 380.55592651 129.08713562 380.55592651 130.06803894 379.77426147 C132.93973357 377.48905012 135.82512513 375.22142789 138.71159363 372.95492554 C139.27797546 372.50963501 139.8443573 372.06434448 140.42790222 371.6055603 C145.25978751 367.80984152 150.10971325 364.03753332 154.96159363 360.26742554 C157.24609702 358.49077685 159.53042212 356.71389934 161.81462097 354.93685913 C163.18156708 353.87395517 164.54902451 352.81170824 165.91716003 351.75033569 C177.25046769 342.95420144 188.22146614 333.78072484 198.96159363 324.26742554 C199.73889832 323.59453491 200.516203 322.92164429 201.31706238 322.22836304 C221.07355681 304.89165629 235.64741445 283.76519262 238.96159363 257.26742554 C239.05255698 255.01034491 239.0987561 252.75113336 239.10635376 250.49223328 C239.10988061 249.84795685 239.11340745 249.20368041 239.11704117 248.53988045 C239.12763584 246.40128442 239.13139277 244.26273306 239.13517761 242.12411499 C239.14148971 240.58279231 239.14825623 239.04147144 239.15544128 237.50015259 C239.17006089 234.19137768 239.1818055 230.88260957 239.19138908 227.5738163 C239.20688647 222.34235488 239.23083267 217.11095308 239.25628662 211.87953186 C239.32737944 197.00715907 239.38736478 182.13475334 239.43840027 167.26229858 C239.46668776 159.04057808 239.5020525 150.81891814 239.54505402 142.59726113 C239.57183255 137.39581151 239.58973307 132.19443029 239.60109127 126.99292529 C239.6102083 123.76084916 239.62756465 120.52885651 239.6472702 117.29682922 C239.65475076 115.79722593 239.65882707 114.29760124 239.65926552 112.79797935 C239.66034662 110.75251674 239.67474969 108.70707403 239.68984985 106.66166687 C239.69408179 105.51667378 239.69831373 104.3716807 239.70267391 103.19199085 C239.95747152 100.31398585 240.40570765 98.67224452 241.96159363 96.26742554 C244.63792389 94.18583534 246.0791303 94.27154963 249.52409363 94.39242554 C252.96159363 95.26742554 252.96159363 95.26742554 254.65266758 96.96495754 C256.28326924 99.83326942 256.33856955 101.68927101 256.34191036 104.98191357 C256.3503503 106.15474838 256.35879024 107.3275832 256.36748594 108.53595847 C256.3614759 109.82552665 256.35546585 111.11509484 256.34927368 112.44374084 C256.35344549 113.82671616 256.35892217 115.20968806 256.36559349 116.59265357 C256.38008776 120.39723739 256.375791 124.20160531 256.36842668 128.00620115 C256.36370693 132.10793 256.37619447 136.20961133 256.38644409 140.31132507 C256.40366273 148.34967985 256.40446552 156.38795655 256.39923119 164.42632499 C256.39519283 170.9607721 256.39662907 177.4951961 256.40197945 184.02964211 C256.40272787 184.95902302 256.40347629 185.88840393 256.40424739 186.8459479 C256.40577885 188.73392218 256.4073172 190.62189647 256.40886236 192.50987075 C256.42259926 210.22675126 256.41714206 227.94358766 256.40567715 245.66046719 C256.39575035 261.86575859 256.40867374 278.07093572 256.43261134 294.2762095 C256.45700199 310.91356406 256.46660987 327.5508654 256.45995861 344.18823749 C256.45646544 353.52962077 256.45870459 362.87091623 256.47620964 372.212286 C256.49093147 380.16724677 256.49156766 388.12205794 256.47413873 396.07701578 C256.46562489 400.1348612 256.46348823 404.19243935 256.47879028 408.25027084 C256.49263689 411.9682568 256.48787497 415.68574654 256.46855105 419.40370379 C256.46301483 421.37920196 256.47706317 423.3547254 256.49190515 425.33017558 C256.41895601 434.14471587 255.26568365 441.24967027 248.83659363 447.64242554 C239.50056796 454.71015028 227.80852266 453.66505151 216.70378113 453.56039429 C214.94687769 453.55478945 213.18996952 453.55052355 211.43305969 453.54753113 C206.83975465 453.53615218 202.24674043 453.50674597 197.65354919 453.47341919 C192.95418734 453.44256731 188.25477787 453.42899368 183.55534363 453.41390991 C174.35730015 453.38186868 165.1594712 453.33075782 155.96159363 453.26742554 C155.99301453 455.15848022 155.99301453 455.15848022 156.02507019 457.08773804 C156.0977945 461.79156005 156.14351098 466.49533293 156.18132019 471.19955444 C156.20136199 473.23056411 156.2286031 475.2615166 156.26335144 477.29232788 C156.31219777 480.2216711 156.33463706 483.15024753 156.35221863 486.07992554 C156.37286377 486.97920776 156.39350891 487.87848999 156.41477966 488.80502319 C156.41721483 495.73906642 154.78743908 500.99273215 150.21549988 506.29086304 C149.65733582 506.73687866 149.09917175 507.18289429 148.52409363 507.64242554 C147.96850769 508.10390991 147.41292175 508.56539429 146.84049988 509.04086304 C141.33561257 512.6344901 136.30106653 512.55558505 129.92318726 512.53485107 C128.90367157 512.53938219 127.88415588 512.5439133 126.83374578 512.54858172 C123.4130183 512.56125526 119.99244943 512.55960342 116.57170105 512.55795288 C114.12091873 512.56393628 111.6701383 512.57074139 109.21936035 512.57830811 C103.25027375 512.59415688 97.28124964 512.60041734 91.31214782 512.60153286 C86.45916413 512.6024837 81.60619345 512.6065958 76.75321388 512.61293411 C62.98889122 512.63054487 49.22459973 512.63977328 35.46026572 512.63827316 C34.71844563 512.63819325 33.97662554 512.63811334 33.21232605 512.63803101 C32.46959835 512.63794924 31.72687065 512.63786748 30.96163604 512.63778324 C18.92663238 512.63697047 6.89175391 512.65610642 -5.14321355 512.68430774 C-17.50575506 512.71304766 -29.86823554 512.72684742 -42.2308113 512.72512019 C-49.16939849 512.72445665 -56.10785445 512.7299329 -63.04641151 512.75147629 C-69.57255778 512.77160957 -76.09847437 512.77100305 -82.62465096 512.75644302 C-85.0191717 512.75435017 -87.41370965 512.75908403 -89.80820084 512.77116394 C-93.07880998 512.78659431 -96.34846064 512.77732188 -99.61904907 512.76190186 C-100.56507282 512.77218898 -101.51109656 512.78247611 -102.48578769 512.79307497 C-110.0964743 512.71386202 -115.42530926 510.88052265 -120.85090637 505.45492554 C-124.90407449 499.54888057 -126.41289358 495.05320619 -126.41872311 487.90316963 C-126.42338303 487.19204889 -126.42804294 486.48092815 -126.43284407 485.74825829 C-126.4447722 483.37108561 -126.43540737 480.99448679 -126.42608643 478.61730957 C-126.43026031 476.89351233 -126.43573812 475.16971785 -126.44240624 473.44592845 C-126.45687249 468.7132068 -126.45261241 463.98065913 -126.44523942 459.2479279 C-126.44051297 454.14215661 -126.453013 449.03642324 -126.46325684 443.93066406 C-126.48046058 433.92954677 -126.48128155 423.92849226 -126.47604393 413.92736401 C-126.47200383 405.79878708 -126.47344389 397.67022872 -126.47879219 389.54165268 C-126.47954061 388.38509862 -126.48028903 387.22854455 -126.48106014 386.0369434 C-126.4825916 383.68745971 -126.48412995 381.33797603 -126.4856751 378.98849235 C-126.49940592 356.95095091 -126.49395843 334.91344495 -126.48248989 312.87590431 C-126.47255751 292.7132981 -126.48549726 272.55078365 -126.50942408 252.3881916 C-126.53380478 231.6872198 -126.54342544 210.98629077 -126.53677136 190.2853049 C-126.53327677 178.66248778 -126.53552697 167.03974124 -126.55302238 155.41693497 C-126.5677315 145.52237336 -126.56839668 135.62793204 -126.55095147 125.73337282 C-126.5424284 120.6851696 -126.5403239 115.63718137 -126.55560303 110.58898926 C-126.56942108 105.96630017 -126.56472404 101.34401084 -126.54536379 96.72134505 C-126.54159461 95.05047773 -126.54455216 93.3795786 -126.55497544 91.70873953 C-126.66275936 73.10596249 -126.66275936 73.10596249 -120.25911421 66.40572274 C-113.24545951 59.98272796 -106.44641048 59.10706965 -97.1053009 59.15390015 C-96.33389267 59.15375412 -95.56248444 59.15360809 -94.7677002 59.15345764 C-92.23551046 59.15415046 -89.70339565 59.16191313 -87.17121887 59.16976929 C-85.40859518 59.17163571 -83.64597096 59.17305856 -81.88334656 59.17405701 C-77.25722304 59.17786451 -72.6311312 59.18767964 -68.00502014 59.19876099 C-63.27917408 59.20901316 -58.55332287 59.21356277 -53.82746887 59.21859741 C-44.56443416 59.22930356 -35.30142291 59.24635868 -26.03840637 59.26742554 C-26.06982727 57.37637085 -26.06982727 57.37637085 -26.10188293 55.44711304 C-26.17460725 50.74329102 -26.22032373 46.03951814 -26.25813293 41.33529663 C-26.27817473 39.30428697 -26.30541584 37.27333448 -26.34016418 35.24252319 C-26.38901052 32.31317997 -26.4114498 29.38460354 -26.42903137 26.45492554 C-26.44967651 25.55564331 -26.47032166 24.65636108 -26.49159241 23.72982788 C-26.49402757 16.79578465 -24.86425182 11.54211892 -20.29231262 6.24398804 C-19.73414856 5.79797241 -19.1759845 5.35195679 -18.60090637 4.89242554 C-18.04532043 4.43094116 -17.4897345 3.96945679 -16.91731262 3.49398804 C-11.41242531 -0.09963902 -6.37787928 -0.02073398 0 0 Z M-110.03840637 259.26742554 C-110.12961975 288.88212666 -110.20042592 318.49682114 -110.24266769 348.1116332 C-110.24767063 351.6064353 -110.25284791 355.10123713 -110.25813293 358.59603882 C-110.25918218 359.29180282 -110.26023142 359.98756682 -110.26131245 360.70441458 C-110.27872664 371.97614445 -110.31026987 383.24779289 -110.34701756 394.51947442 C-110.38439887 406.08177999 -110.40633676 417.6440282 -110.41476035 429.206393 C-110.41998439 435.70229509 -110.43229982 442.19801233 -110.4613266 448.69385529 C-110.48840861 454.80379211 -110.49686591 460.91346734 -110.4908371 467.02345848 C-110.49194056 469.26969765 -110.49993706 471.51594526 -110.51522827 473.76213264 C-110.53504291 476.82202201 -110.53037639 479.88091543 -110.51942444 482.94082642 C-110.5310758 483.835766 -110.54272717 484.73070559 -110.55473161 485.65276456 C-110.52723178 490.56335727 -110.52723178 490.56335727 -108.19584274 494.78783798 C-105.11142838 496.90315465 -102.62958568 497.39250389 -98.98191261 497.3988533 C-98.15345821 497.40269445 -97.32500381 497.40653559 -96.47144473 497.41049314 C-95.5614391 497.40962665 -94.65143348 497.40876017 -93.71385193 497.40786743 C-92.74701457 497.41083855 -91.78017722 497.41380968 -90.78404176 497.41687083 C-87.52979135 497.42557356 -84.27557767 497.4270674 -81.02131653 497.42855835 C-78.69404013 497.43318536 -76.36676449 497.43820986 -74.03948975 497.44360352 C-67.70688929 497.45673962 -61.37429944 497.46317468 -55.04168749 497.46761417 C-51.08823408 497.47054256 -47.13478358 497.47464689 -43.18133163 497.47911835 C-32.23695063 497.491228 -21.29257216 497.50161013 -10.34818459 497.50499344 C-9.64772389 497.505213 -8.9472632 497.50543257 -8.22557642 497.50565879 C-7.52343535 497.50587707 -6.82129427 497.50609535 -6.09787619 497.50632024 C-4.67505813 497.50676371 -3.25224006 497.50721027 -1.829422 497.50765991 C-0.77077053 497.50799206 -0.77077053 497.50799206 0.30926783 497.50833091 C11.74824727 497.51227993 23.18716304 497.52973743 34.62611787 497.55301943 C46.36819839 497.57672569 58.11024694 497.58919494 69.85235178 497.59036136 C76.44600699 497.59141122 83.03957239 497.59735773 89.63320541 497.61518097 C95.83344929 497.63161463 102.03353541 497.63384004 108.23379326 497.62504196 C110.51185591 497.6242691 112.78992689 497.62864693 115.06796837 497.63850021 C118.17319272 497.65114573 121.27785204 497.64538307 124.3830719 497.63491821 C125.28861608 497.64297462 126.19416026 497.65103102 127.12714517 497.65933156 C131.92085576 497.6214391 135.02434142 497.3260258 138.96159363 494.26742554 C137.42239801 490.04925021 134.30545009 487.92575562 130.83659363 485.32992554 C129.56338187 484.35476675 128.29129016 483.37814424 127.02018738 482.40023804 C126.35487 481.89009155 125.68955261 481.37994507 125.0040741 480.8543396 C121.58613184 478.19875453 118.24631347 475.44870748 114.89909363 472.70492554 C108.60269175 467.56451542 102.21508803 462.57223048 95.75309753 457.64096069 C91.48202871 454.36635819 87.24055155 451.05319985 82.99894714 447.74057007 C78.99049879 444.61217012 74.96749353 441.50622277 70.91471863 438.43539429 C70.09576111 437.81052124 69.27680359 437.18564819 68.43302917 436.5418396 C66.86418035 435.34552678 65.29034434 434.1557171 63.71086121 432.97348022 C59.97336867 430.11173058 56.86649681 427.71219963 54.96159363 423.26742554 C55.1792573 419.56714317 55.31650404 417.91251513 57.96159363 415.26742554 C62.81465904 414.6536402 65.72553043 414.73143877 69.78581238 417.54086304 C71.08886605 418.55537398 72.37654555 419.58990346 73.64909363 420.64242554 C74.2671991 421.13098022 74.88530457 421.61953491 75.5221405 422.12289429 C76.16602722 422.63207397 76.80991394 423.14125366 77.47331238 423.66586304 C78.154879 424.18557175 78.83644562 424.70528046 79.53866577 425.24073792 C81.96159363 427.26742554 81.96159363 427.26742554 84.13623047 429.76860046 C92.63548609 438.32962343 101.59148306 438.41424397 113.22637653 438.48946095 C116.87938535 438.4897987 120.53073035 438.43882389 124.18320084 438.38015962 C128.0284262 438.3283427 131.87364461 438.33172151 135.71916199 438.32814026 C142.16494417 438.31436794 148.60952996 438.26344372 155.05485535 438.18661499 C163.32150602 438.08824578 171.58727575 438.05043118 179.85444641 438.03194141 C186.98224389 438.01567565 194.10985236 437.97346836 201.23750305 437.92621017 C203.52101518 437.91197598 205.80452736 437.90097017 208.08805847 437.89026833 C211.673648 437.87166593 215.25874537 437.83690881 218.84406853 437.78968239 C220.78355186 437.76734888 222.72318363 437.75934267 224.66278076 437.75177002 C225.82043442 437.73319443 226.97808807 437.71461884 228.17082214 437.69548035 C229.17436234 437.68525754 230.17790253 437.67503473 231.21185303 437.66450214 C234.43394226 437.19921598 236.34102016 436.17070953 238.96159363 434.26742554 C240.22655138 431.73751003 240.08461974 430.00010785 240.08184814 427.1675415 C240.08322281 426.08778046 240.08459747 425.00801941 240.08601379 423.89553833 C240.08241852 422.70583435 240.07882324 421.51613037 240.07511902 420.29037476 C240.07533806 418.41725113 240.07533806 418.41725113 240.07556152 416.50628662 C240.07498315 413.0767389 240.06995881 409.64725096 240.06298757 406.21771383 C240.05674741 402.63558216 240.0561497 399.05344974 240.05496216 395.47131348 C240.0518508 388.68567303 240.04364004 381.90004865 240.03361267 375.11441529 C240.02244547 367.39021338 240.01693955 359.66601071 240.01191723 351.94180274 C240.00145727 336.05033436 239.9838616 320.15888202 239.96159363 304.26742554 C237.21425024 306.97822283 234.75756852 309.71108658 232.39909363 312.76742554 C220.83023747 327.32454713 207.47955816 339.69963561 192.96159363 351.26742554 C191.82044796 352.18865594 190.67985195 353.11056753 189.53971863 354.03305054 C182.21658522 359.94329147 174.79677391 365.71121442 167.30558777 371.40658569 C161.32213197 375.96586322 155.44414883 380.64675892 149.58268738 385.36117554 C144.88300101 389.14012249 140.147205 392.87207764 135.39128113 396.57992554 C133.0435801 398.41083703 130.71977799 400.26774192 128.40690613 402.14242554 C127.25858 403.05923172 126.11014656 403.9759035 124.96159363 404.89242554 C123.95096863 405.70969116 122.94034363 406.52695679 121.89909363 407.36898804 C118.54356324 409.53758879 116.97086089 410.45413161 112.96159363 410.26742554 C106.58915524 407.06631051 101.13082932 402.09494338 95.71159363 397.51742554 C89.16962474 392.06256849 82.53538081 386.79411058 75.75456238 381.63803101 C69.84440365 377.12010738 63.99091249 372.52767366 58.12467957 367.95297241 C56.13728567 366.40433049 54.14734531 364.85902465 52.15690613 363.31430054 C45.8687983 358.42057976 39.69130386 353.42624938 33.63957214 348.24227905 C30.3457272 345.42177702 26.99201645 342.70353453 23.58659363 340.01742554 C11.84237697 330.39298016 1.97000745 319.57472648 -6.84309387 307.24008179 C-7.567547 306.25910522 -8.29200012 305.27812866 -9.03840637 304.26742554 C-9.36840637 304.26742554 -9.69840637 304.26742554 -10.03840637 304.26742554 C-10.37015991 311.18540975 -10.59651413 318.10132373 -10.7525177 325.02548218 C-10.81758658 327.37619642 -10.90607956 329.72639065 -11.01911926 332.07528687 C-12.29104316 345.88304915 -12.29104316 345.88304915 -7.3240509 358.14071655 C-4.19787826 361.06345319 -0.74467136 363.15062199 2.96159363 365.26742554 C4.22775112 366.23621564 5.47863075 367.2262421 6.69596863 368.25570679 C7.69112488 369.02269897 8.68628113 369.78969116 9.71159363 370.57992554 C15.95270272 375.41984092 22.04690223 380.42585781 28.10124207 385.49716187 C31.11066392 388.00106687 34.09126854 390.42271813 37.37174988 392.56430054 C40.1183377 394.37050309 41.14873928 395.1063253 41.96159363 398.26742554 C41.77409363 401.89242554 41.77409363 401.89242554 40.96159363 405.26742554 C37.14961822 407.80874247 35.49010571 407.85159892 30.96159363 407.26742554 C28.14561104 405.66181488 25.81675207 403.60185894 23.39909363 401.45492554 C21.98080434 400.24804194 20.56151629 399.04233117 19.14128113 397.83773804 C18.43713074 397.23220093 17.73298035 396.62666382 17.00749207 396.0027771 C14.08169946 393.52109048 11.06000743 391.17441855 8.02409363 388.82992554 C-9.63153181 375.04801213 -26.59737132 360.47096332 -43.03840637 345.26742554 C-44.06870684 344.32888211 -45.09997044 343.39139498 -46.13215637 342.45492554 C-54.92009768 334.47505491 -63.33759201 326.31158682 -71.03840637 317.26742554 C-71.84922668 316.34574585 -72.660047 315.42406616 -73.49543762 314.47445679 C-87.90112511 297.98007581 -100.48366294 279.48338347 -109.03840637 259.26742554 C-109.36840637 259.26742554 -109.69840637 259.26742554 -110.03840637 259.26742554 Z M115.96159363 453.26742554 C120.02784845 457.36987859 120.02784845 457.36987859 124.33659363 461.05648804 C124.92956238 461.52312866 125.52253113 461.98976929 126.13346863 462.47055054 C126.73674988 462.93976929 127.34003113 463.40898804 127.96159363 463.89242554 C128.56487488 464.36937866 129.16815613 464.84633179 129.78971863 465.33773804 C133.11448927 467.93973245 136.29809133 470.06932416 139.96159363 472.26742554 C139.96159363 465.99742554 139.96159363 459.72742554 139.96159363 453.26742554 C132.04159363 453.26742554 124.12159363 453.26742554 115.96159363 453.26742554 Z " fill="#000000" transform="translate(191.0384063720703,-0.267425537109375)"/>
<path d="M0 0 C0.46148437 -0.32613281 0.92296875 -0.65226562 1.3984375 -0.98828125 C11.37851434 -7.67453827 21.88140265 -9.65909599 33.76953125 -7.49609375 C43.17801846 -4.96693052 50.96737329 0.34320457 57 8 C63.24756279 19.16519884 64.74697265 30.84417947 62.3515625 43.3984375 C57.04351183 60.68362814 43.92617825 72.37212713 30 83 C28.55093269 84.12873269 27.10313039 85.25909034 25.65625 86.390625 C21.11383415 89.93976592 16.56579749 93.48098009 12 97 C11.27151855 97.56928223 10.54303711 98.13856445 9.79248047 98.72509766 C9.09268066 99.26440918 8.39288086 99.8037207 7.671875 100.359375 C7.05151367 100.84116211 6.43115234 101.32294922 5.79199219 101.81933594 C2.82876405 103.77167535 0.50676661 104.12988024 -3 104 C-7.96876034 101.04444428 -12.38960368 97.38351872 -16.875 93.75 C-17.56335938 93.19570312 -18.25171875 92.64140625 -18.9609375 92.0703125 C-20.64242881 90.71577783 -22.32146867 89.35820093 -24 88 C-28.31268191 91.64785618 -32.50994431 95.37837014 -36.625 99.25 C-41.72612941 103.98110767 -47.06018162 108.26803906 -52.625 112.4375 C-55.02531215 114.23914606 -57.36641527 116.09739176 -59.6875 118 C-60.30318848 118.50015625 -60.91887695 119.0003125 -61.55322266 119.515625 C-62.7317455 120.47587947 -63.90380109 121.44415021 -65.06787109 122.421875 C-68.88121704 125.50428242 -72.10448387 127.39213103 -77 128 C-82.54295607 125.60659281 -86.95569341 121.79173209 -91.5625 117.9375 C-92.97434972 116.77103226 -94.38712729 115.60568675 -95.80078125 114.44140625 C-96.50412598 113.86148926 -97.2074707 113.28157227 -97.93212891 112.68408203 C-100.42594029 110.65311262 -102.96183426 108.68227789 -105.5090332 106.71899414 C-119.76995025 95.70983016 -136.12611083 82.95712212 -139 64 C-140.10793179 49.99491516 -139.10964447 38.88172276 -129.9375 27.625 C-123.07271957 20.46024597 -113.8678859 15.96256942 -103.9440918 15.6574707 C-92.59745601 15.50277029 -84.71687087 18.05125141 -75 24 C-74.39671875 23.59007813 -73.7934375 23.18015625 -73.171875 22.7578125 C-72.37265625 22.21898438 -71.5734375 21.68015625 -70.75 21.125 C-69.96109375 20.59132813 -69.1721875 20.05765625 -68.359375 19.5078125 C-66 18 -66 18 -63.87890625 17.09765625 C-61.33349841 15.61063005 -60.56209797 13.89927947 -59.1875 11.3125 C-53.47619096 1.462972 -45.94805281 -4.0530365 -35.04296875 -7.64453125 C-22.31148021 -9.85976157 -10.74557451 -6.83809287 0 0 Z M-42 15 C-42 15.66 -42 16.32 -42 17 C-41.29875 17.21914062 -40.5975 17.43828125 -39.875 17.6640625 C-28.24256798 21.55207646 -21.60104419 26.99561274 -16 37.95703125 C-10.71251929 49.62507763 -12.71597 62.05629564 -16 74 C-13.76175998 75.87018719 -11.51136473 77.72065432 -9.25 79.5625 C-8.61578125 80.09552734 -7.9815625 80.62855469 -7.328125 81.17773438 C-6.4 81.92700195 -6.4 81.92700195 -5.453125 82.69140625 C-4.88754883 83.15748291 -4.32197266 83.62355957 -3.73925781 84.10375977 C-2.02067757 85.19261305 -2.02067757 85.19261305 0.03515625 84.7722168 C3.19062853 83.53206287 5.64680192 81.37018711 8.25 79.25 C8.85408691 78.7655542 9.45817383 78.2811084 10.08056641 77.78198242 C11.37870935 76.73899171 12.67436511 75.6928993 13.96777344 74.64404297 C16.03499831 72.97168686 18.11397866 71.31490823 20.1953125 69.66015625 C37.78298845 56.33320726 37.78298845 56.33320726 47 37 C47.66838077 29.56554927 47.7014474 23.0896185 43 17 C37.69756422 11.40974933 33.10389236 8.04719004 25.3125 7.5625 C18.8384659 7.70744106 12.99087581 10.07216372 8.33203125 14.6328125 C7.16789863 16.04615826 6.07697289 17.51916227 5 19 C1.86128812 20.56935594 -0.53855822 20.35201103 -4 20 C-6.5625 17.8125 -6.5625 17.8125 -9 15 C-15.17936087 9.34654219 -20.1829911 7.51339198 -28.46484375 7.67578125 C-33.82334343 8.36107474 -38.48041772 10.8992023 -42 15 Z M-119.7734375 41.12109375 C-124.0066165 47.60567686 -123.66775611 54.50443771 -123 62 C-122.12517973 65.35016398 -120.82221181 68.06612438 -119 71 C-118.41605469 71.9590625 -118.41605469 71.9590625 -117.8203125 72.9375 C-110.76444164 83.29167736 -99.97269123 90.99385039 -90.05151367 98.40893555 C-85.5427101 101.77924363 -81.23815853 105.29368882 -77 109 C-72.61487123 107.55162718 -69.72921813 105.31769767 -66.25 102.3125 C-65.18595943 101.40240086 -64.1208475 100.49355286 -63.0546875 99.5859375 C-62.53487305 99.14217773 -62.01505859 98.69841797 -61.47949219 98.24121094 C-59.49309818 96.57473781 -57.44107474 95.00359935 -55.375 93.4375 C-49.23384628 88.71956986 -43.42392937 83.52890865 -38 78 C-39.3931403 74.74698204 -40.94960155 72.96613784 -43.6875 70.75 C-54.48941653 61.51074771 -60.52072767 50.79500958 -64 37 C-67.18026528 37.72906236 -67.18026528 37.72906236 -68.75 40.5 C-71 43 -71 43 -74.5 43.875 C-79.79028133 44.06393862 -79.79028133 44.06393862 -82 43 C-82.66666667 41.66666667 -83.33333333 40.33333333 -84 39 C-90.44398743 32.98561173 -95.33843259 31.510817 -103.99609375 31.69140625 C-111.05849295 32.41693231 -115.33643188 35.77933559 -119.7734375 41.12109375 Z M-48 32 C-47.44283719 44.03471664 -42.21743636 50.47989564 -34 59 C-33.45472656 59.59167969 -32.90945313 60.18335938 -32.34765625 60.79296875 C-31.0532278 62.22239115 -31.0532278 62.22239115 -29 62 C-26.89614102 57.79228204 -27.47761882 52.22396104 -28.53125 47.73828125 C-31.11033026 40.37949245 -35.05215357 36.662757 -41.78125 32.91796875 C-44.21583288 31.74513074 -44.21583288 31.74513074 -48 32 Z " fill="#000000" transform="translate(344,72)"/>
<path d="M0 0 C1.29687241 -0.0112088 2.59374481 -0.0224176 3.92991638 -0.03396606 C5.35997457 -0.02105605 6.79002829 -0.00764196 8.22007751 0.00622559 C9.73155337 0.00272329 11.24302554 -0.00293652 12.75448608 -0.0105896 C16.85374657 -0.02483072 20.95233574 -0.00778391 25.05153203 0.01569557 C29.34179635 0.03580805 33.6320329 0.02992487 37.92233276 0.02758789 C45.12586028 0.02764145 52.32912541 0.04739367 59.53257751 0.07946777 C67.861823 0.1163742 76.19072495 0.12514133 84.52004153 0.11817026 C92.53286255 0.11186652 100.54556572 0.12261624 108.55836296 0.14213562 C111.96857316 0.15031216 115.37872315 0.15301871 118.78894234 0.15144348 C122.80357331 0.15056494 126.81787749 0.1647722 130.83242226 0.19067001 C132.30622015 0.19783561 133.78005281 0.19991353 135.25386429 0.19655228 C137.2643986 0.19284136 139.27493998 0.20941757 141.28540039 0.22705078 C142.41086808 0.2307795 143.53633577 0.23450821 144.69590855 0.23834991 C147.92951516 0.66800595 149.30087221 1.31431515 151.57920837 3.62145996 C152.67408707 7.56302328 152.97336629 9.71489675 151.32920837 13.49645996 C149.57920837 15.62145996 149.57920837 15.62145996 146.57920837 16.62145996 C144.53591301 16.72346292 142.48943323 16.76517267 140.44361877 16.77536011 C139.15935501 16.78396057 137.87509125 16.79256104 136.5519104 16.80142212 C135.12562602 16.8058572 133.6993412 16.81015557 132.27305603 16.81433105 C130.77335419 16.82223324 129.27365425 16.83050227 127.7739563 16.83911133 C122.84707959 16.8653121 117.92019444 16.88063435 112.99327087 16.89489746 C111.29732126 16.90025744 109.60137171 16.90563495 107.90542221 16.91102982 C100.85219115 16.9326533 93.79896237 16.95139117 86.74570656 16.96265221 C76.63521563 16.97890066 66.52510841 17.01210597 56.41476214 17.06905305 C49.30640199 17.10772813 42.1981446 17.12728184 35.08968198 17.13257277 C30.8433266 17.13622883 26.59738066 17.14827712 22.35113907 17.18067551 C18.35699878 17.21071466 14.36351659 17.21708323 10.36928749 17.20529175 C8.90393307 17.20507068 7.43854846 17.21340355 5.97329903 17.23094559 C3.97191594 17.25360113 1.97023496 17.24236898 -0.03123474 17.22946167 C-1.71088853 17.23442689 -1.71088853 17.23442689 -3.42447472 17.23949242 C-7.39961943 16.41956297 -8.90525264 14.73632324 -11.42079163 11.62145996 C-12.04579163 8.62145996 -12.04579163 8.62145996 -11.42079163 5.62145996 C-7.84270892 1.18826509 -5.6660307 -0.00358584 0 0 Z " fill="#000000" transform="translate(235.42079162597656,280.3785400390625)"/>
<path d="M0 0 C1.21734077 -0.0098568 1.21734077 -0.0098568 2.45927429 -0.01991272 C5.15147997 -0.03966236 7.84362983 -0.05131192 10.53588867 -0.0612793 C11.45454901 -0.06535482 12.37320934 -0.06943035 13.31970787 -0.07362938 C18.1818863 -0.0944971 23.04403645 -0.10879584 27.90625 -0.11816406 C32.93023468 -0.12923078 37.95377672 -0.16363164 42.97760487 -0.20333576 C46.83893156 -0.22947204 50.70015231 -0.23785323 54.56155968 -0.24144554 C56.41353025 -0.24631914 58.26549585 -0.25795511 60.11738014 -0.27648354 C62.71012132 -0.30081203 65.30171105 -0.29992172 67.89453125 -0.29296875 C68.65887482 -0.30577881 69.42321838 -0.31858887 70.21072388 -0.33178711 C73.90944885 -0.29565278 75.96956145 0.06699114 79.11528015 2.08137512 C81.14135742 4.17700195 81.14135742 4.17700195 81.80541992 6.17700195 C81.7925293 6.83700195 81.77963867 7.49700195 81.76635742 8.17700195 C81.78569336 9.16700195 81.78569336 9.16700195 81.80541992 10.17700195 C80.74723386 13.36400939 78.93717155 14.38268783 76.14135742 16.17700195 C73.27227942 16.56424076 70.79052284 16.72504723 67.92626953 16.69458008 C66.7058622 16.70509399 66.7058622 16.70509399 65.46080017 16.71582031 C62.77975019 16.7333815 60.0997613 16.72178571 57.41870117 16.70825195 C55.55212705 16.71094715 53.6855543 16.71482981 51.81898499 16.71984863 C47.91092535 16.7257409 44.00323186 16.71718852 40.09521484 16.69848633 C35.08569466 16.67568107 30.07703094 16.68883145 25.06754208 16.71277618 C21.21478314 16.72722802 17.3622274 16.72263128 13.50946236 16.71226501 C11.66227683 16.70959685 9.81507284 16.71287066 7.96790886 16.72218323 C5.38712528 16.73234058 2.80773085 16.71686085 0.22705078 16.69458008 C-0.91778778 16.70672546 -0.91778778 16.70672546 -2.08575439 16.71911621 C-5.58165718 16.66319016 -7.49709457 16.45537978 -10.30540466 14.29309082 C-12.17194684 11.75016479 -12.78331579 10.34072725 -12.85864258 7.17700195 C-9.92384291 -0.09012102 -7.28586062 0.02542908 0 0 Z " fill="#000000" transform="translate(325.858642578125,250.822998046875)"/>
<path d="M0 0 C1.2031485 -0.01248528 1.2031485 -0.01248528 2.43060303 -0.02522278 C5.07951727 -0.04929936 7.72818525 -0.05809125 10.37719727 -0.06469727 C12.22038344 -0.0736642 14.06356887 -0.08278606 15.90675354 -0.09205627 C19.76939666 -0.10854161 23.63195313 -0.11624576 27.49462891 -0.11914062 C32.44247646 -0.12452911 37.38950941 -0.16223008 42.33712673 -0.20788479 C46.14356967 -0.23763349 49.94981573 -0.24486368 53.75636482 -0.24586678 C55.58043213 -0.25007215 57.40449986 -0.26251918 59.22845268 -0.28338432 C61.7805154 -0.31025889 64.33068026 -0.30548641 66.8828125 -0.29296875 C67.63466324 -0.30780304 68.38651398 -0.32263733 69.16114807 -0.33792114 C73.08201612 -0.28319101 74.84644576 0.1819031 77.9747467 2.62120056 C80.00610352 5.30639648 80.00610352 5.30639648 80.63110352 8.86889648 C80.00610352 12.30639648 80.00610352 12.30639648 77.98048401 14.4888916 C74.21019129 16.79274124 71.07796741 16.86957505 66.79101562 16.82397461 C65.57060829 16.83448853 65.57060829 16.83448853 64.32554626 16.84521484 C61.64449629 16.86277603 58.96450739 16.85118024 56.28344727 16.83764648 C54.41687315 16.84034169 52.5503004 16.84422434 50.68373108 16.84924316 C46.77567145 16.85513543 42.86797796 16.84658305 38.95996094 16.82788086 C33.95044075 16.80507561 28.94177704 16.81822598 23.93228817 16.84217072 C20.07952923 16.85662255 16.2269735 16.85202581 12.37420845 16.84165955 C10.52702292 16.83899138 8.67981894 16.84226519 6.83265495 16.85157776 C4.25187137 16.86173511 1.67247694 16.84625538 -0.90820312 16.82397461 C-2.05304169 16.83612 -2.05304169 16.83612 -3.2210083 16.84851074 C-6.71524764 16.7926113 -8.63409168 16.58241702 -11.44456482 14.4263916 C-13.27450325 11.92243417 -13.84279361 10.40400546 -13.99389648 7.30639648 C-13.28027559 4.51678754 -12.78956773 2.87226256 -10.41148376 1.18101501 C-6.96862364 -0.06451986 -3.61551693 0.00318771 0 0 Z " fill="#000000" transform="translate(326.993896484375,220.693603515625)"/>
<path d="M0 0 C0.80224503 -0.00700928 1.60449005 -0.01401855 2.43104553 -0.02124023 C5.07482835 -0.03880155 7.717535 -0.02720455 10.36132812 -0.01367188 C12.20308639 -0.01636734 14.04484328 -0.02025021 15.88659668 -0.02526855 C19.7433835 -0.03116106 23.59979933 -0.02260868 27.45654297 -0.00390625 C32.39646688 0.01888322 37.33552149 0.00575881 42.27541351 -0.01819611 C46.07760144 -0.03266081 49.87958378 -0.02804503 53.68177795 -0.01768494 C55.5030172 -0.01501951 57.32427521 -0.01828096 59.14549255 -0.02760315 C61.69254892 -0.03777995 64.23820406 -0.02225292 66.78515625 0 C67.91057579 -0.01214539 67.91057579 -0.01214539 69.05873108 -0.02453613 C73.93453305 0.05425163 76.48835771 1.01277057 79.89257812 4.51757812 C80.52148438 6.51757812 80.52148438 6.51757812 80.45507812 8.51757812 C80.45636719 9.17757812 80.45765625 9.83757812 80.45898438 10.51757812 C79.60938461 13.51754418 78.36562 14.61303481 75.89257812 16.51757812 C73.03268307 16.91220666 70.55787716 17.06505538 67.69921875 17.03515625 C66.4644001 17.04567017 66.4644001 17.04567017 65.20463562 17.05639648 C62.48568916 17.07399003 59.76778502 17.06234923 57.04882812 17.04882812 C55.15840454 17.05152266 53.26798231 17.05540475 51.37756348 17.0604248 C47.416451 17.06632169 43.45569942 17.0577508 39.49462891 17.0390625 C34.41670251 17.01627282 29.33962175 17.02939489 24.26172638 17.05335236 C20.35835394 17.06780521 16.45518206 17.0632067 12.55180359 17.05284119 C10.67949829 17.05017248 8.8071748 17.05344871 6.93489075 17.0627594 C4.31808227 17.07291663 1.7026439 17.05743631 -0.9140625 17.03515625 C-1.68820999 17.04325317 -2.46235748 17.0513501 -3.25996399 17.05969238 C-6.80136789 17.00381972 -8.73861359 16.8016054 -11.58410645 14.61022949 C-13.22552711 12.3553313 -13.67531033 11.27646788 -13.66992188 8.51757812 C-13.69183594 7.85757813 -13.71375 7.19757813 -13.73632812 6.51757812 C-11.7508106 0.20338574 -5.65813701 -0.0610619 0 0 Z " fill="#000000" transform="translate(218.107421875,220.482421875)"/>
<path d="M0 0 C0.80224503 -0.00700928 1.60449005 -0.01401855 2.43104553 -0.02124023 C5.07482835 -0.03880155 7.717535 -0.02720455 10.36132812 -0.01367188 C12.20308639 -0.01636734 14.04484328 -0.02025021 15.88659668 -0.02526855 C19.7433835 -0.03116106 23.59979933 -0.02260868 27.45654297 -0.00390625 C32.39646688 0.01888322 37.33552149 0.00575881 42.27541351 -0.01819611 C46.07760144 -0.03266081 49.87958378 -0.02804503 53.68177795 -0.01768494 C55.5030172 -0.01501951 57.32427521 -0.01828096 59.14549255 -0.02760315 C61.69254892 -0.03777995 64.23820406 -0.02225292 66.78515625 0 C67.91057579 -0.01214539 67.91057579 -0.01214539 69.05873108 -0.02453613 C73.93551518 0.0542675 76.48628987 1.01442859 79.89257812 4.51757812 C80.55664062 6.51757812 80.55664062 6.51757812 80.51757812 8.51757812 C80.53691406 9.50757813 80.53691406 9.50757813 80.55664062 10.51757812 C79.4997215 13.70076985 77.6823562 14.72307471 74.89257812 16.51757812 C72.0577837 16.90478817 69.61489091 17.06569439 66.78515625 17.03515625 C65.58178871 17.04567017 65.58178871 17.04567017 64.35411072 17.05639648 C61.7103279 17.0739578 59.06762125 17.0623608 56.42382812 17.04882812 C54.58206986 17.05152359 52.74031297 17.05540646 50.89855957 17.0604248 C47.04177275 17.06631731 43.18535692 17.05776493 39.32861328 17.0390625 C34.38868937 17.01627303 29.44963476 17.02939744 24.50974274 17.05335236 C20.70755481 17.06781706 16.90557247 17.06320128 13.1033783 17.05284119 C11.28213905 17.05017576 9.46088104 17.05343721 7.6396637 17.0627594 C5.09260733 17.0729362 2.54695219 17.05740917 0 17.03515625 C-1.12541954 17.04730164 -1.12541954 17.04730164 -2.27357483 17.05969238 C-7.15035893 16.98088875 -9.70113362 16.02072766 -13.10742188 12.51757812 C-13.77148438 10.51757812 -13.77148438 10.51757812 -13.73242188 8.51757812 C-13.7453125 7.85757812 -13.75820312 7.19757813 -13.77148438 6.51757812 C-11.68302864 0.22764084 -5.70367779 -0.06155337 0 0 Z " fill="#000000" transform="translate(218.107421875,250.482421875)"/>
<path d="M0 0 C1.13021576 -0.0131424 1.13021576 -0.0131424 2.28326416 -0.02655029 C4.76495569 -0.04849233 7.24485402 -0.03401173 9.7265625 -0.01708984 C11.45622091 -0.02045951 13.18587702 -0.02531339 14.91552734 -0.03158569 C18.53701364 -0.03894992 22.15788247 -0.02826648 25.77929688 -0.00488281 C30.41674955 0.02360527 35.05275542 0.0071988 39.69015503 -0.02274513 C43.2607713 -0.0408306 46.83104568 -0.03505448 50.40167236 -0.02210617 C52.11126884 -0.01877558 53.82089656 -0.02284706 55.53045654 -0.03450394 C57.92217977 -0.04723405 60.31157482 -0.02780947 62.703125 0 C63.406651 -0.01012115 64.110177 -0.02024231 64.83502197 -0.03067017 C68.70357601 0.05248112 70.26221928 0.57407538 73.30175781 3.05410767 C75.3515625 5.64697266 75.3515625 5.64697266 75.796875 7.77978516 C75.69117188 8.43720703 75.58546875 9.09462891 75.4765625 9.77197266 C75.39664063 10.43455078 75.31671875 11.09712891 75.234375 11.77978516 C73.89156682 14.61988387 72.15879175 15.29052305 69.3515625 16.64697266 C66.75161451 16.94072487 64.39183413 17.07785793 61.79492188 17.06689453 C61.05119827 17.07536407 60.30747467 17.08383362 59.54121399 17.09255981 C57.09240438 17.11588437 54.64422459 17.11695324 52.1953125 17.11572266 C50.48807526 17.12282602 48.7808404 17.13052528 47.0736084 17.13879395 C43.49936277 17.15222756 39.925338 17.15381216 36.35107422 17.14794922 C31.77423436 17.14204821 27.19845349 17.17266563 22.62181854 17.2130661 C19.09757798 17.23893116 15.57359302 17.24182175 12.04927063 17.23817444 C10.36197748 17.23986622 8.6746726 17.24951443 6.98747253 17.26731873 C4.62699669 17.28949101 2.26867248 17.27981878 -0.09179688 17.26220703 C-0.78597214 17.27547028 -1.4801474 17.28873352 -2.19535828 17.30239868 C-6.00606941 17.23643569 -7.56934221 16.71036673 -10.58166504 14.29602051 C-12.6484375 11.64697266 -12.6484375 11.64697266 -13.2734375 8.64697266 C-11.77380613 1.4487421 -6.63111506 -0.09539739 0 0 Z " fill="#000000" transform="translate(276.6484375,310.35302734375)"/>
</svg>
